<svg height="960" viewBox="0 0 960 960" width="960" xmlns="http://www.w3.org/2000/svg"><g fill="none" fill-rule="evenodd" stroke="#000"><path d="m269.081702 90.17069 187.313569 844.852349" stroke-linecap="round" stroke-linejoin="round" stroke-width="20"/><path d="m626.940376 25.0230386 84.146825 7.2029925 24.7723 124.0569299-64.243394 65.689635-35.704788 23.201893 151.782279 603.514988-328.708378 86.128284-173.609757.205278-162.34157-790.348757 246.591114-98.8180706z" stroke-linecap="round" stroke-linejoin="round" stroke-width="40"/><path d="m701.76156 45 19.23844 133.502305-51.416599 53.293199-52.180262 19.413947-294.271483 57.790549-54.131656-218.4462801 105.035983-33.9969417 247.259925-11.5567782zm-246.446071 47.3412762c-13.611901 5.0468403-19.191335 22.8644908-12.462015 39.7968368 6.72932 16.932345 23.219137 26.567451 36.831037 21.520611 13.611901-5.04684 19.191335-22.864491 12.462015-39.796837-6.72932-16.9323452-23.219137-26.567451-36.831037-21.5206108zm69.803551-6.9784403c-13.386667 5.0865615-18.919417 22.9267601-12.357744 39.8471981 6.561674 16.920439 22.732998 26.513692 36.119664 21.42713 13.386667-5.086561 18.919417-22.92676 12.357744-39.847198-6.561674-16.9204389-22.732998-26.5136916-36.119664-21.4271301zm68.019279-7.0388904c-12.604629 5.0146642-17.735903 22.8139905-11.46102 39.7559075s21.579752 26.610866 34.184382 21.596201c12.604629-5.014664 17.735903-22.81399 11.46102-39.7559068-6.274883-16.941917-21.579752-26.6108659-34.184382-21.5962017zm67-5c-12.604629 5.0146642-17.735903 22.8139902-11.46102 39.7559075 6.274883 16.941917 21.579752 26.610866 34.184382 21.596201 12.604629-5.014664 17.735903-22.81399 11.46102-39.7559068-6.274883-16.941917-21.579752-26.6108659-34.184382-21.5962017z" fill="#000" stroke-width="2"/></g></svg>