<?xml version="1.0" encoding="UTF-8"?>
<svg width="960px" height="960px" viewBox="0 0 960 960" version="1.1" xmlns="http://www.w3.org/2000/svg" xmlns:xlink="http://www.w3.org/1999/xlink">
    <style>
    .pair {
      animation: fillpulse 3s infinite;
    }

    @keyframes fillpulse {
      0%, 20%, 40%, 60%, 100% {
        fill: rgba(255,255,255,0);
      }
      10%, 30%, 50% {
        fill: #0078CC;
      }
    }
    </style>
    <title>pair_relay_smart_implant</title>
    <g id="pair_relay_smart_implant" stroke="none" stroke-width="1" fill="none" fill-rule="evenodd">
        <path d="M191.540843,851.86132 L191.522808,851.914475 L162.040336,841.911494 C156.762567,840.834464 152.083093,838.758073 148.121705,835.74539 C135.344541,826.093433 131.607319,809.441331 133.436476,788.541652 C134.045207,781.586386 135.269384,774.487853 136.913835,767.491038 C137.883153,763.366775 138.884377,759.746979 139.779689,756.859038 C139.872817,756.049612 139.988829,755.258449 140.13026,754.47981 C140.384866,753.059526 140.720525,751.676248 141.119154,750.395643 C215.742625,502.985149 262.721816,347.237752 294.745169,241.091097 L292.930406,239.985816 C288.931061,237.550015 286.940563,232.820665 287.991782,228.251826 L292.631866,208.084948 L243.829777,161.145566 C241.293823,158.706407 240.290593,155.610671 240.494496,152.642504 C240.515837,151.546367 240.703059,150.443783 241.064937,149.371932 L280.014704,34.0063694 C281.506085,29.5890391 285.64299,26.6159353 290.298074,26.6159353 L290.451138,26.6159353 L290.672849,26.6182035 L370.976466,28.2614768 C377.813898,22.2180592 386.723114,18.8417444 396.06531,19.0057061 L712.071892,24.7473422 C712.157858,24.7489041 712.243803,24.7514891 712.329708,24.7550966 L736.609201,25.7747469 C739.413347,25.8831952 742.166328,26.4359308 744.803047,27.3913149 C747.91402,28.5265663 750.774214,30.2283014 753.261534,32.3939602 L811.879866,68.9381989 L873.517781,107.357826 C889.885073,117.562469 897.573804,137.349834 892.406741,155.958146 L709.066019,815.407887 C709.042807,815.491375 709.0186,815.574582 708.993403,815.65749 L676.925408,921.173087 C669.936945,944.1506 645.680306,957.10279 622.695037,950.098877 C622.579732,950.063198 622.485643,950.033597 622.320074,949.981203 C622.176259,949.935728 622.132664,949.922013 622.075185,949.904227 L621.911328,949.852097 L617.030222,948.256466 L361.481307,907.123312 C340.668676,903.772248 320.231433,898.475473 300.448138,891.302296 L191.540843,851.86132 Z M512.195454,145.362089 C515.103934,147.272962 518.45672,148.397119 522.171584,148.573435 C539.841667,149.409275 559.263278,129.143997 564.720752,103.508479 C568.423883,86.1125675 564.64728,71.2171242 556.24311,63.792586 L512.195454,145.362089 Z M507.958539,141.685837 L551.675274,60.7291494 C549.216563,59.5329119 546.499916,58.8520831 543.56948,58.7636023 C526.544691,58.2522211 507.726722,77.4182434 501.791297,102.080257 C497.779045,118.751232 500.608097,133.468338 507.958539,141.685837 Z M481.056665,61.1378545 L437.075249,142.584691 C439.526911,143.973078 442.298352,144.787246 445.3435,144.931043 C462.514521,145.745222 482.124122,125.75474 488.291255,100.482249 C492.531841,83.1073911 489.205918,68.3052557 481.056665,61.1378545 Z M476.449069,58.148046 C474.277342,57.165793 471.888505,56.6076941 469.313119,56.5301417 C452.754213,56.0311671 433.756891,74.9549043 427.161029,99.2795628 C422.527961,116.369995 425.174511,131.334399 432.700575,139.163548 L476.449069,58.148046 Z M409.18141,59.8125048 L360.515631,137.585761 C363.312884,139.865767 366.710258,141.207618 370.609437,141.392663 C387.299504,142.182197 407.0848,122.452939 413.922075,97.5374611 C418.416895,81.1662874 416.099397,67.1492569 409.18141,59.8125048 Z M404.846562,56.433524 C402.527765,55.1610903 399.901398,54.4384842 397.011478,54.3518032 C380.898057,53.8653458 361.741364,72.5514534 354.516586,96.5503512 C349.934852,111.77774 351.206066,125.258512 356.7026,133.372861 L404.846562,56.433524 Z M284.159822,129.205423 L334.703704,54.6323486 C332.360251,53.1587945 329.636063,52.3211644 326.583963,52.2289273 C310.896738,51.7578592 291.593154,70.2129018 283.780409,93.892871 C279.01076,108.345015 279.580618,121.168826 284.159822,129.205423 Z M287.695127,133.730037 C290.422961,136.262632 293.857907,137.755076 297.889758,137.945644 C314.116478,138.716498 334.057874,119.247904 341.531897,94.6743476 C346.272639,79.083574 344.752055,65.6965338 338.806727,58.3193441 L287.695127,133.730037 Z M150.666196,774.656604 C148.870007,782.65957 147.716223,790.595842 147.498094,797.979875 C147.072821,812.376076 150.164452,822.725269 157.509668,828.055604 L479.939201,889.140737 C491.701055,891.393598 503.25464,884.354878 506.673785,872.853094 L749.006944,57.6598188 C749.327454,56.581643 749.513159,55.4677553 749.559799,54.343715 C749.700483,50.953122 748.589301,47.8011156 746.637996,45.3361016 L740.682157,41.619134 L740.985057,41.1309685 C739.613407,40.5891021 738.129527,40.2639274 736.573486,40.19908 L712.318103,39.1875002 L396.293575,33.4430104 C390.617926,33.3398421 385.193225,35.3054199 380.944956,38.8498664 L590.126657,43.111714 L591.498344,43.1454325 L688.386784,46.7863171 C690.155001,46.8527633 691.387642,48.569388 690.888047,50.2696738 L688.8951,57.0523187 L694.599606,57.2332405 C705.089109,57.5659214 713.322487,66.3493053 712.990291,76.8506898 C712.935744,78.5750284 712.647188,80.2839297 712.132555,81.9303998 L480.875826,821.792177 C476.535774,835.677345 462.536397,844.143523 448.24147,841.5269 L171.603616,790.889556 C162.049048,789.140635 154.465912,782.854138 150.666196,774.656604 Z M153.457463,761.522868 L154.150033,761.758345 C154.102247,761.899905 154.007685,762.188942 153.873023,762.615048 C153.747196,763.0132 153.613165,763.446982 153.47206,763.914625 C154.077349,774.430124 161.775445,783.564053 172.581165,785.541993 L449.219019,836.179336 C460.813907,838.30173 472.169821,831.434196 475.69084,820.169366 L706.947569,80.3075888 C707.315212,79.1313856 707.521355,77.9105585 707.560323,76.6786923 C707.797618,69.1773371 701.917443,62.9043552 694.427505,62.6668074 L687.311186,62.441109 L626.267246,269.969019 L625.660534,272.045486 C625.304955,273.262451 624.156501,274.071422 622.892888,273.995016 L332.723575,256.449409 C332.282717,256.422752 331.855019,256.288704 331.477619,256.058904 L309.396176,242.613473 L154.436726,755.785762 C154.182626,756.627256 153.97614,757.482436 153.818253,758.347226 C153.623987,759.411276 153.504987,760.471653 153.457463,761.522868 Z M564.678349,918.022588 L564.748,917.817615 C575.234843,921.399774 584.140837,910.656402 591.124983,883.622177 C734.200622,386.452164 807.477752,129.69872 810.495277,115.005677 C813.132389,102.164951 810.966309,90.9316492 803.976245,81.1202134 L754.69579,50.3648739 C754.941787,51.7241884 755.042963,53.1316012 754.983295,54.5696587 C754.917995,56.1434307 754.657988,57.7029915 754.209237,59.2125593 L511.876078,874.405835 C509.013307,884.036014 501.524104,891.128135 492.472082,893.817022 L564.678349,918.022588 Z M576.451759,921.969365 L627.27501,939.006744 C627.53021,939.092294 627.786552,939.174378 628.043967,939.252974 C643.807658,944.066036 660.477144,935.151778 665.276304,919.34242 L697.23829,814.056152 L880.478514,154.197714 C884.032525,141.399518 878.746902,127.783681 867.499865,120.764541 L813.489269,87.0571769 C817.193977,95.8573144 817.968387,105.563584 815.804169,116.101672 C812.73839,131.029677 739.734968,386.824084 596.352474,885.05668 C591.240305,904.847852 584.642456,917.33961 576.451754,921.969368 Z M593.697852,933.487091 L482,896.042838 L482.370249,894.931961 C481.226821,894.852998 480.076903,894.704728 478.925397,894.484169 L190.03585,839.75328 L304.13892,881.075778 C323.300078,888.023375 343.077831,893.146263 363.204049,896.386807 L593.697852,933.487091 Z M304.330937,205.763956 L304.298044,205.798789 L304.284955,205.855676 L304.315553,205.828365 L304.330937,205.763956 Z M507.51357,339.282136 C507.821448,338.981347 507.98281,338.822119 508.095626,338.707156 C517.680976,325.574817 538.826079,323.452047 571.467127,329.981235 C575.869626,330.861867 578.722704,335.134924 577.839656,339.525374 C576.956607,343.915825 572.671824,346.761096 568.269325,345.880464 C541.269055,340.4796 525.590077,342.10776 521.167151,348.354493 C520.419647,349.410232 517.327699,352.430992 517.018673,352.767665 C514.661934,355.335254 495.898128,379.580432 488.802556,387.781314 C477.546213,400.791111 466.827518,410.892942 455.745975,418.150591 C441.662179,427.374508 427.532566,431.540098 413.356417,429.485758 C402.546298,427.919207 393.517452,421.059384 385.853027,410.059618 C379.955487,401.595636 374.943685,390.86768 370.16106,377.481607 C368.47187,372.753739 366.855711,367.828302 365.073791,362.071969 C364.080059,358.861809 361.057583,348.832712 360.928999,348.411291 C358.250456,339.632579 356.527406,335.024231 355.733342,334.044853 C352.007359,329.449321 342.845485,326.522129 327.961605,326.214194 C323.472384,326.121316 319.908652,322.416751 320.001785,317.939816 C320.094918,313.462882 323.809649,309.908902 328.298869,310.00178 C347.502972,310.399096 360.957915,314.697911 368.377584,323.849142 C371.125261,327.238057 372.97304,332.179995 376.485183,343.690762 C376.629652,344.164247 379.638487,354.148082 380.610686,357.288683 C382.329444,362.840974 383.876864,367.55692 385.478219,372.038949 C394.581908,397.519234 404.548607,411.823157 415.694705,413.438396 C434.193205,416.119111 454.071717,403.100052 476.491537,377.18779 C483.134492,369.510032 502.097369,345.00763 505.024495,341.818623 C505.811911,340.960759 506.368967,340.400386 507.51357,339.282136 Z" id="Combined-Shape" fill="#000000" fill-rule="nonzero"/>
        <path class="pair" d="M364.63056,321.229501 L514.554328,333.557729 C512.119093,335.193291 510.048279,337.159015 508.342243,339.46793 C508.22899,339.581935 508.067002,339.739836 507.757931,340.038119 C506.608892,341.147049 506.049676,341.702753 505.259208,342.553468 C502.320737,345.7159 483.28436,370.014115 476.615658,377.627892 C454.108939,403.324218 434.153378,416.234785 415.583179,413.57641 C404.393879,411.974631 394.388549,397.789907 385.249575,372.521958 C383.642012,368.077279 382.088595,363.400633 380.363175,357.89461 C379.387208,354.780181 376.36671,344.879545 376.221682,344.410006 C372.695926,332.995162 370.840985,328.094406 368.082658,324.733732 C367.048493,323.473733 365.897533,322.306496 364.630545,321.229498 Z"/>
    </g>
</svg>