<svg height="960" viewBox="0 0 960 960" width="960" xmlns="http://www.w3.org/2000/svg"><g fill="none" fill-rule="evenodd" stroke="#000" stroke-linecap="round" stroke-linejoin="round"><path d="m923.624868 391.456405-6.165149 416.300432c-.109135 7.369325-2.480987 14.526672-6.793757 20.500979l-70.486122 97.641584-.575149.552122c-6.408681 6.944761-15.970686 10.413946-26.057695 9.144412l-727.5171897-91.564088c-28.0464654-3.52988-49.0839886-27.396014-49.0839886-55.6836v-396.402527c0-73.215371 152.6509693-315.4558707 424.4045543-315.4558707 314.165974 0 462.274496 266.1292977 462.274496 315.4558707" stroke-width="40"/><g transform="translate(36.945818 -82.145859)"><path d="m443.054182 183.145859c31.194475-122.0000004 89.527808-183.00000038 175-183.00000038" stroke-width="40"/><path d="m793.907935 1017.14586 8.146247-485.218927c0-48.439228-140.225002-309.781074-437.668552-309.781074-180.802071 0-305.9199239 117.470399-364.33144775 212.263225" stroke-width="20"/></g></g></svg>