<svg height="960" viewBox="0 0 960 960" width="960" xmlns="http://www.w3.org/2000/svg"><g fill="none" fill-rule="evenodd" stroke="#000"><path d="m479.891037 707.936139c-58.340319 0-114.78433-3.310346-168.19161-9.482178-55.219161-6.38108-107.144353-15.824312-154.519725-27.83331-3.855276-.976932-7.820044-1.992148-12.291372-3.177008-3.883638-1.029079-7.893917-2.132747-12.141646-3.370414-5.703434-1.662104-11.427315-4.08067-16.438185-6.581747-6.801643-3.394177-12.606653-7.108498-15.33074-9.326397-2.3092086-1.879933-4.6052249-3.847658-6.8867304-5.871491-2.4022097-2.130767-4.5452022-4.097832-6.5292348-5.959943-16.5272285-15.518031-30.177346-32.119267-40.5420692-49.57862-10.1853159-17.159012-17.1986863-35.166238-20.6529344-53.815071-.8086516-4.365168-1.4233851-8.797005-1.836945-13.292211-.4241134-4.598839-.6384786-9.05642-.6384786-13.36482 0-70.997846 51.6066123-134.949243 135.0428314-180.950181 82.252924-45.34811 195.737211-73.396609 320.956839-73.396609s238.704574 28.048499 320.957498 73.397269c83.436219 46.000938 135.042832 109.952335 135.042832 180.950181 0 4.30774-.214366 8.765321-.638479 13.364821-.41422 4.494545-1.028293 8.926382-1.836945 13.29221-3.454908 18.648173-10.467618 36.656059-20.652934 53.813751-10.364724 17.459353-24.015501 34.060589-40.54207 49.57862-1.984032 1.862771-4.127025 3.829176-6.529234 5.959943-2.281506 2.023833-4.577522 3.991558-6.88673 5.871491-2.724088 2.217899-8.529757 5.93288-15.330741 9.326397-5.01087 2.500417-10.734751 4.919643-16.438185 6.581747-4.247729 1.237667-8.258007 2.341335-12.141646 3.370414-4.471988 1.18486-8.436095 2.200076-12.291371 3.177008-47.375373 12.008998-99.299906 21.45223-154.519726 27.83331-53.40728 6.172492-109.851291 9.482838-168.192269 9.482838" stroke-linecap="round" stroke-linejoin="round" stroke-width="40"/><path d="m41.194938 539.98971c3.5508436 13.925225 9.3415819 27.499233 17.1676886 40.606485 9.7321615 16.299708 22.6127113 31.856938 38.2523892 46.457679 2.1818356 2.037053 4.2818612 3.960536 6.2235432 5.673288 2.063078 1.819759 4.213245 3.648709 6.47953 5.483566 2.095407 1.696341 6.92619 4.718769 12.931352 7.697869 4.514757 2.239905 9.519058 4.362957 14.24362 5.731714 3.657725 1.059557 7.64797 2.146029 11.838124 3.250226 3.602965.949268 7.7885 2.012764 12.141615 3.109083 46.854377 11.808737 98.22615 21.096597 152.873646 27.375815 52.846343 6.072427 108.802808 9.328561 166.753736 9.328561 57.950927 0 113.907392-3.25679 166.753735-9.328561 54.647496-6.279218 106.018609-15.567078 152.873646-27.375815 4.353115-1.096976 8.53865-2.160471 12.141615-3.109083 4.190154-1.104197 8.180399-2.190669 11.838125-3.250226 4.724561-1.368757 9.728862-3.491153 14.243619-5.731714 6.005162-2.979757 10.835945-6.001528 12.931352-7.697869 2.266285-1.834201 4.416452-3.663807 6.479531-5.483566 1.941682-1.712752 4.041707-3.636235 6.223542-5.673288 15.639678-14.600741 28.520228-30.157971 38.252389-46.457679 7.526575-12.606359 13.170846-25.644024 16.750059-39.010585-121.469594 53.392062-284.209993 78.075002-442.278611 78.075002-168.944148 0-332.687386-28.201009-435.114246-79.670902z" fill-rule="nonzero" stroke-width="30"/><path d="m39.3429484 530.243232c.0969274.521192.1964923 1.041724.299354 1.561598 101.2495406 52.606734 266.1098106 81.470595 436.4613136 81.470595 158.987923 0 322.621766-25.152266 443.65504-79.608538.241988-1.139242.469471-2.279801.681788-3.423655.749044-4.035116 1.311487-8.068255 1.682712-12.093487.3554-3.856553.536068-7.912095.536068-12.165966 0-65.738651-48.991841-125.578812-128.201284-169.184945-80.391694-44.257128-191.599697-71.630552-314.566903-71.630552s-234.17455 27.373424-314.566244 71.630552c-79.2094428 43.606133-128.2012835 103.446294-128.2012835 169.184945 0 4.25453.1800079 8.309413.5360677 12.165966.3718846 4.025232.9343271 8.057712 1.6833712 12.093487z" stroke-linecap="round" stroke-linejoin="round" stroke-width="20"/></g></svg>