<?xml version="1.0" encoding="UTF-8"?>
<svg width="960px" height="960px" viewBox="0 0 960 960" version="1.1" xmlns="http://www.w3.org/2000/svg" xmlns:xlink="http://www.w3.org/1999/xlink">
    <title>com.fibaro/FGR-223/assets/icon</title>
    <g id="com.fibaro/FGR-223/assets/icon" stroke="none" stroke-width="1" fill="none" fill-rule="evenodd">
        <path d="M902.285343,393.160226 L896.416944,789.422621 C896.313062,796.437234 894.055376,803.250072 889.950196,808.936814 L822.856824,901.878557 L822.309359,902.404104 C816.209151,909.014589 807.107399,912.316789 797.505914,911.108362 L105.006743,823.951584 C78.3102545,820.591609 58.285343,797.874238 58.285343,770.948235 L58.285343,393.625987 C58.285343,323.934735 203.588673,93.3541414 462.26178,93.3541414 C761.305817,93.3541414 902.285343,346.673679 902.285343,393.625987" id="Path-92" stroke="#000000" stroke-width="60"></path>
        <path d="M480,117 C509.768441,1 565.435108,-57 647,-57" id="Path-91" stroke="#000000" stroke-width="30" stroke-linecap="round"></path>
        <g id="Group" transform="translate(58.285343, 153.354141)" stroke="#000000" stroke-width="30">
            <path d="M755.964549,757.645859 L763.714657,295.619788 C763.714657,249.495894 630.308576,0.645858617 347.329239,0.645858617 C175.319288,0.645858617 56.2857202,112.50132 0.714656971,202.763169" id="Path-92"></path>
        </g>
    </g>
</svg>