<svg height="960" viewBox="0 0 960 960" width="960" xmlns="http://www.w3.org/2000/svg"><g fill="none" fill-rule="evenodd"><g fill="#000" fill-rule="nonzero" transform="translate(291.636038 381.165871)"><g stroke="#000" stroke-width="18.9"><path d="m.36396181 67.8341289h21.99999999v-68.00000002c-5.1829491 9.36886978-9.6728357 19.56242812-13.36397657 30.33734362-4.1583737 11.9706597-7.06189315 24.637186-8.63602342 37.6626564z"/><path d="m355.363962 67.8341289h22c-2.828972-23.8364031-10.225146-46.6980262-22-68.00000002z"/><path d="m377.363962 131.834129h-22v70c11.982917-21.884725 19.382593-45.421168 22-70z"/><path d="m22.3639618 131.834129h-21.99999999c1.32912534 13.003419 4.14717961 26.031862 8.37811839 38.740441 3.530007 10.641436 8.1103096 21.144701 13.6218816 31.259559z"/></g><path d="m258.363962 101.334671c0-15.1885837 12.311958-27.5005421 27.499458-27.5005421 15.188583 0 27.500542 12.3119584 27.500542 27.5005421 0 15.187499-12.311959 27.499458-27.500542 27.499458-15.1875 0-27.499458-12.311959-27.499458-27.499458z"/><path d="m62.3639618 101.334671c0-15.1885837 12.3117155-27.5005421 27.5-27.5005421 15.1882852 0 27.5000002 12.3119584 27.5000002 27.5005421 0 15.187499-12.311715 27.499458-27.5000002 27.499458-15.1882845 0-27.5-12.311959-27.5-27.499458z"/></g><g stroke="#000" stroke-linejoin="round"><path d="m481.020286 875.437947c217.23376 0 393.336516-176.102756 393.336516-393.336515s-176.102756-393.3365155-393.336516-393.3365155c-217.233759 0-393.3365151 176.1027565-393.3365151 393.3365155s176.1027561 393.336515 393.3365151 393.336515z" stroke-linecap="round" stroke-width="20"/><path d="m481.020286 692.297136c116.087882 0 210.195704-94.107822 210.195704-210.195704s-94.107822-210.195704-210.195704-210.195704-210.195704 94.107822-210.195704 210.195704 94.107822 210.195704 210.195704 210.195704z" stroke-linecap="round" stroke-width="20"/><path d="m478.939141 795.313842c172.982438 0 313.21241-140.229972 313.21241-313.21241s-140.229972-313.212411-313.21241-313.212411-313.212411 140.229973-313.212411 313.212411 140.229973 313.21241 313.212411 313.21241z" stroke-linecap="round" stroke-width="20"/><path d="m898.050111 23.5c10.617644 0 20.230116 4.3036504 27.188177 11.2617116 6.958062 6.9580613 11.261712 16.5705335 11.261712 27.1881771v835.1002223c0 10.617644-4.30365 20.230116-11.261712 27.188177-6.958061 6.958062-16.570533 11.261712-27.188177 11.261712h-835.1002223c-10.6176436 0-20.2301158-4.30365-27.1881771-11.261712-6.9580612-6.958061-11.2617116-16.570533-11.2617116-27.188177v-835.1002223c0-10.6176436 4.3036504-20.2301158 11.2617117-27.188177 6.9580612-6.9580613 16.5705334-11.2617117 27.188177-11.2617117z" stroke-width="40"/></g></g></svg>