<?xml version="1.0" encoding="UTF-8"?>
<svg width="960px" height="960px" viewBox="0 0 960 960" version="1.1" xmlns="http://www.w3.org/2000/svg" xmlns:xlink="http://www.w3.org/1999/xlink">
    <style>
    .pair {
      animation: fillpulse 3s infinite;
    }

    @keyframes fillpulse {
      0%, 20%, 40%, 60%, 100% {
        fill: rgba(255,255,255,0);
      }
      10%, 30%, 50% {
        fill: #0078CC;
      }
    }
    </style>
    <title>pair_tech_outlet</title>
    <g id="pair_tech_outlet" stroke="none" stroke-width="1" fill="none" fill-rule="evenodd">
        <g id="Socket-EU" transform="translate(279.000000, 281.000000)" fill="#000000" fill-rule="nonzero">
            <path d="M59.5243236,342.360758 C21.7863144,304.546467 1,254.200258 1,200.598566 C1,146.996873 21.7851902,96.6506639 59.5231994,58.8374998 C97.3893665,20.8959186 147.629518,0 200.99942,0 C254.365949,0 304.607225,20.8936657 342.474516,58.8374998 C352.642835,69.0263722 361.429521,79.9429408 369.290997,92.1560701 L369.290997,91.8124984 L373.015446,98.127459 C373.224546,98.5465039 373.38643,98.8641669 373.704576,99.1818299 L373.888944,99.3665701 L373.888944,99.6357952 L374.249809,100.219304 C374.326254,100.449103 374.446543,100.649613 374.584819,100.883918 C374.718598,101.103579 374.866991,101.351401 374.982783,101.646535 L375.080587,101.745663 L376.158688,103.442119 L376.575763,104.274576 C376.705045,104.644057 376.874798,104.887373 377.036682,105.125057 C377.160343,105.307545 377.277259,105.479894 377.361574,105.64999 L377.789891,106.520747 C377.878702,106.788845 378.015853,107.055818 378.147384,107.325043 C378.236195,107.498518 378.32613,107.6765 378.4037,107.852228 L378.557714,107.851102 L378.736461,108.198053 C388.198787,126.556047 394.761821,146.085564 398.241196,166.244774 L398.249065,166.842927 C398.337876,167.135808 398.389589,167.429815 398.436805,167.723822 C398.481773,167.988542 398.522244,168.252134 398.611055,168.516853 L398.644781,168.912243 L398.644781,169.505889 L398.832521,170.794565 L399.036,171.672081 C399.036,171.933421 399.082092,172.19476 399.124811,172.453847 C399.179896,172.782775 399.231609,173.112829 399.231609,173.442883 L399.231609,173.537506 L399.429467,174.231408 C399.429467,174.784503 399.429467,175.308309 399.592475,175.8017 L399.626201,176.198216 L399.626201,176.889865 C399.792581,177.447465 399.818438,177.97803 399.82181,178.498456 L400.01742,178.695588 L400.01742,180.530599 C400.703177,186.336397 401,192.361856 401,200.605324 C401.016827,206.326638 400.825714,212.165104 400.426626,217.956259 L400.428874,218.109458 C399.438461,229.626432 397.505974,240.541874 394.513374,251.537296 L394.338,252.068987 C394.317765,252.720083 394.113162,253.330627 393.918677,253.922021 L393.7478,254.43231 C393.723067,255.226467 393.422908,255.914737 393.291377,256.179456 L393.142984,256.839564 L392.342559,259.446204 C392.240258,259.662485 392.203159,259.814558 392.159316,259.988033 C392.105355,260.205441 392.044648,260.45101 391.914242,260.711223 L390.920456,264.117652 L390.701239,264.33506 C390.655147,264.470236 390.620297,264.666241 390.583198,264.869004 C390.531486,265.148367 390.4764,265.449134 390.375223,265.7499 L389.147605,268.846551 C389.06329,269.094373 388.976728,269.310654 388.890165,269.530315 C388.806975,269.737584 388.723784,269.943727 388.640594,270.182538 L388.607993,270.476545 L388.412383,271.066813 C388.310082,271.375464 388.206656,271.632298 388.104355,271.889132 C388.009922,272.123436 387.91549,272.357741 387.822182,272.640484 L387.552376,273.382824 C387.309551,273.748925 387.145419,274.122911 387.001522,274.454092 C386.95543,274.558853 386.912711,274.657982 386.869991,274.750352 L386.838514,275.003806 L386.642905,275.594074 L385.64687,277.990064 L385.034186,279.219037 L384.663202,280.154003 C384.572143,280.429986 384.468717,280.691326 384.365291,280.949287 C384.270859,281.181338 384.178675,281.414517 384.084243,281.69388 L384.011171,281.842573 L383.619952,282.43622 C383.483924,282.71333 383.296184,283.277689 383.112941,283.822898 L383.028627,284.007638 L382.636283,284.600158 L381.099513,288.076428 L380.486828,289.100385 C380.318199,289.44283 380.138328,289.806678 379.955085,290.35414 L379.526768,291.22377 C379.3424,291.594377 379.155784,291.963858 378.971417,292.519205 L378.823023,292.959652 L378.622917,292.956273 L378.420563,293.353915 L378.295777,293.477826 L377.358201,295.356769 C377.255899,295.565165 377.099637,295.826505 376.943374,296.086718 C376.805098,296.317643 376.666823,296.548569 376.574639,296.734435 L376.109223,297.830485 L375.323413,298.813889 L374.68712,300.047368 C374.566832,300.167899 374.371222,300.555403 374.229574,300.838146 L373.703452,302.014175 C373.38643,302.331838 373.224546,302.654007 373.03793,303.02574 L369.292122,309.383506 L369.292122,309.042188 C361.430645,321.255317 352.643959,332.173012 342.47564,342.360758 C304.737631,380.172796 254.492983,401 201.000544,401 C147.506981,401 97.2645812,380.175049 59.5243236,342.360758 Z M396.083871,181.147901 L396.083871,181.150154 L369.317978,181.150154 L369.317978,99.9996432 C360.851686,86.0202174 350.867735,73.1300828 339.641551,61.6885817 C302.65113,24.62339 253.420504,4.2084718 201.025276,4.2084718 C148.831279,4.2084718 99.5984042,24.62339 62.4022557,61.694214 C50.9737175,73.3418581 40.988642,86.1632784 32.7314501,99.8036384 L32.7314501,181.150154 L5.96106034,181.147901 C5.31914657,188.557785 5.03135336,194.577612 5.03135336,200.591807 C5.03135336,206.250039 5.43493837,212.311545 5.77669281,217.28038 L32.7314501,217.28038 L32.7314501,301.189603 C40.9965114,315.028221 50.9782142,327.848514 62.4022557,339.296774 C99.5219592,376.493762 148.754834,396.977395 201.025276,396.977395 C253.500321,396.977395 302.729824,376.492636 339.6438,339.296774 C350.76993,328.150407 360.751633,315.32786 369.317978,301.186223 L369.317978,217.28038 L396.268239,217.28038 C396.609993,212.305912 397.013578,206.2399 397.013578,200.591807 C397.013578,194.59113 396.728033,188.572429 396.083871,181.147901 Z M6.4871823,176.932671 L28.719208,176.932671 L28.719208,107.363342 C23.4815963,116.94843 18.9443565,127.377239 15.2142866,138.400822 C11.0120561,150.647745 8.07791432,163.606594 6.4871823,176.932671 Z M373.524705,176.932671 L395.564494,176.932671 C392.730406,152.55485 385.320855,129.17395 373.524705,107.388125 L373.524705,176.932671 Z M395.765725,221.2951 L373.522457,221.2951 L373.522457,293.763948 C385.637877,271.107365 393.119376,246.740809 395.765725,221.2951 Z M28.7203322,221.2951 L6.27920674,221.2951 C7.63498258,234.758605 10.5095421,248.248019 14.8253161,261.406252 C18.4261038,272.424202 23.0982468,283.299092 28.7203322,293.771833 L28.7203322,221.2951 Z" id="Combined-Shape" stroke="#000000" stroke-width="1.9"></path>
            <path d="M273,200.500562 C273,184.759666 285.759666,172 301.499438,172 C317.240334,172 330,184.759666 330,200.500562 C330,216.240334 317.240334,229 301.499438,229 C285.759666,229 273,216.240334 273,200.500562 Z" id="Combined-Shape-path"></path>
            <path d="M71,200.500562 C71,184.759666 83.7594142,172 99.5,172 C115.240586,172 128,184.759666 128,200.500562 C128,216.240334 115.240586,229 99.5,229 C83.7594142,229 71,216.240334 71,200.500562 Z" id="Combined-Shape-path"></path>
        </g>
        <path d="M481,895 C709.093602,895 894,710.093602 894,482 C894,253.906398 709.093602,69 481,69 C252.906398,69 68,253.906398 68,482 C68,710.093602 252.906398,895 481,895 Z M481,889 C256.220107,889 74,706.779893 74,482 C74,257.220107 256.220107,75 481,75 C705.779893,75 888,257.220107 888,482 C888,706.779893 705.779893,889 481,889 Z" id="Oval" fill="#000000" fill-rule="nonzero"></path>
        <path d="M481,707 C605.264069,707 706,606.264069 706,482 C706,357.735931 605.264069,257 481,257 C356.735931,257 256,357.735931 256,482 C256,606.264069 356.735931,707 481,707 Z M481,701 C360.04964,701 262,602.95036 262,482 C262,361.04964 360.04964,263 481,263 C601.95036,263 700,361.04964 700,482 C700,602.95036 601.95036,701 481,701 Z" id="Oval" fill="#000000" fill-rule="nonzero"></path>
        <path d="M479,811 C660.701683,811 808,663.701683 808,482 C808,300.298317 660.701683,153 479,153 C297.298317,153 150,300.298317 150,482 C150,663.701683 297.298317,811 479,811 Z M479.5,798 C304.701877,798 163,656.298123 163,481.5 C163,306.701877 304.701877,165 479.5,165 C654.298123,165 796,306.701877 796,481.5 C796,656.298123 654.298123,798 479.5,798 Z" id="Oval" fill="#000000" fill-rule="nonzero"></path>
        <path d="M573,637 C583.49341,637 592,628.49341 592,618 C592,607.50659 583.49341,599 573,599 C562.50659,599 554,607.50659 554,618 C554,628.49341 562.50659,637 573,637 Z M573.5,631 C566.596441,631 561,625.403559 561,618.5 C561,611.596441 566.596441,606 573.5,606 C580.403559,606 586,611.596441 586,618.5 C586,625.403559 580.403559,631 573.5,631 Z" id="Oval" fill="#000000" fill-rule="nonzero"></path>
        <circle class="pair" fill="#0041DD" cx="573" cy="618" r="9"></circle>
        <path d="M32.2776573,0 L927.722343,0 C945.548801,0 960,14.4511994 960,32.2776573 L960,927.722343 C960,945.548801 945.548801,960 927.722343,960 L32.2776573,960 C14.4511994,960 0,945.548801 0,927.722343 L0,32.2776573 C0,14.4511994 14.4511994,0 32.2776573,0 Z M32.7828508,12 C21.857084,12 13,20.857084 13,31.7828508 L13,927.217149 C13,938.142916 21.857084,947 32.7828508,947 L928.217149,947 C939.142916,947 948,938.142916 948,927.217149 L948,31.7828508 C948,20.857084 939.142916,12 928.217149,12 L32.7828508,12 Z" id="Rectangle" fill="#000000" fill-rule="nonzero"></path>
    </g>
</svg>
