<svg height="960" viewBox="0 0 960 960" width="960" xmlns="http://www.w3.org/2000/svg"><g fill="none" fill-rule="evenodd"><g stroke="#000"><path d="m480.020836 56c60.564012 0 119.362604 9.0038395 174.724037 26.6383872 53.901365 17.1694652 102.203554 41.8207078 143.850717 73.1964528 42.265928 31.841906 75.36903 69.061368 98.598234 110.422626 24.490936 43.626535 36.809086 90.054996 36.809086 137.85985 0 4.820475-.161194 9.723101-.409366 14.549589-.076592 8.945677-.076435 17.89137-.076434 26.837986.009612 2.894073.114391 23.211516.224158 44.198972l.021057 4.022707c.117059 22.345461.233249 44.238964.239994 45.509936l.000616 2.112429c-.418393 49.117357-12.763567 96.686962-36.777467 141.556864-23.191021 43.263703-56.242667 82.116362-98.43317 115.443577-41.586773 32.832465-90.00201 58.679793-143.859062 76.70849-55.364687 18.50341-114.171845 27.942134-174.831434 27.942134-60.659588 0-119.466746-9.438724-174.840668-27.945223-53.847817-18.025608-102.263054-43.872936-143.853976-76.708678-42.186354-33.323938-75.2379999-72.176597-98.4227883-115.428664-20.096352-37.549027-32.0149222-77.08762-35.6515649-117.741859-.0273015-.305204-.0541324-.61043-.0801936-.916723.0004326-.295167.0006523-.583641.0006523-.865221l-.000182-.450837c-.0070186-8.826056-.2158974-23.99238-.4320719-39.765829-.0167683-1.223526-.0335697-2.450643-.0503191-3.678765l-.0500073-3.684799-.0198014-1.472136c-.006575-.490349-.0131226-.980279-.0196374-1.469627l-.0194406-1.466127c-.1772046-13.420418-.325504-26.27451-.3318154-35.122173l-.0001199-.949141c.0010601-2.176806.0115865-4.085916.0334442-5.670594.079589-16.636429.0802768-33.588066.0802569-50.308704-.2454335-5.102841-.4048082-10.129702-.4048082-15.237584 0-47.892089 12.3181496-94.233315 36.8108757-137.863038 23.2274146-41.35807 56.3305159-78.577532 98.5964449-110.419438 41.644794-31.373961 90.028088-56.0251558 143.850717-73.1964528 55.361432-17.6345477 114.160024-26.6383872 174.724037-26.6383872z" stroke-linejoin="round" stroke-width="40"/><path d="m704.630279 383.505287c-20.015714 76.89748-112.639038 135.281101-223.65737 135.281101-125.523647 0-227.709133-74.623849-227.709133-166.381138 0-91.75729 102.104451-166.381138 227.709133-166.381138 106.885533 0 196.834693 54.161161 221.145277 126.836182h4.862116c-9.805268-30.694031-31.036512-58.789626-62.073023-81.607147-43.840086-32.155652-102.023417-49.8575-164.015405-49.8575-61.910953 0-120.175319 17.701848-164.015404 49.8575-44.083192 32.318054-68.312741 75.354659-68.312741 121.152103 0 45.797443 24.229549 88.834048 68.312741 121.152102 43.840085 32.155652 102.023416 49.857501 164.015404 49.857501 61.910953 0 120.175319-17.701849 164.015405-49.857501 33.872746-24.847549 56.076413-56.109988 64.504082-90.052065z" fill="#000" fill-rule="nonzero" stroke-width="20"/><path d="m480.020836 300.421725c-39.106967 0-70.926921 23.009304-70.926921 51.203802s31.819954 51.203802 70.926921 51.203802c39.106966 0 70.926921-23.009304 70.926921-51.203802s-31.819955-51.203802-70.926921-51.203802z" stroke-linecap="round" stroke-linejoin="round" stroke-width="20"/><path d="m31.0967113 402.829329c0 222.963535 212.6150377 330.653009 447.8908337 330.653009 236.790492 0 450.960846-118.86493 450.960846-330.653009" stroke-width="30"/></g><path d="m867.624485 571.500333c33.642983-40.637823 54.471618-59.354103 62.485904-56.148839 11.180273 4.471481 14.986852 34.129173 11.419738 88.973075-32.452801 81.446329-87.110357 154.696569-176.050727 198.935504-82.609656 41.090038-183.023321 62.739927-287.875139 62.739927-106.407741 0-206.535505-20.516376-288.096296-60.403768-88.986026-43.51871-139.8141323-115.091828-171.2435129-198.731523l-.9422249-2.54014c-5.4618772-49.838914-3.6930087-76.411971 5.3066057-79.719171 10.4037581-3.823197 33.6325391 12.054265 69.686343 47.632386 22.2495111 60.771828 70.0485571 109.406995 139.4995701 143.372086 68.059463 33.284553 154.323506 50.960225 247.29864 50.960225 91.039101 0 177.325001-18.603844 246.517798-53.020337 68.878136-34.259981 117.64138-82.426459 141.284536-140.292931z" fill="#000" fill-rule="nonzero"/></g></svg>