<svg height="960" viewBox="0 0 960 960" width="960" xmlns="http://www.w3.org/2000/svg"><g fill="none" fill-rule="evenodd" stroke="#000" stroke-linejoin="round"><path d="m498 34c119.845791 0 228.345791 48.5771046 306.884343 127.115657 78.538552 78.538552 127.115657 187.038552 127.115657 306.884343s-48.577105 228.345791-127.115657 306.884343c-29.84465 29.84465-64.015733 55.362867-101.49177 75.533172l-2.141573 1.141485 1.317322 14.227431c.279644 3.020659 9.991872 12.325356-19.438598 24.647613l-.903864.374322c-8.236124 3.374126-21.867464 8.125423-39.456584 13.035559-20.684283 5.774174-46.964463 11.813106-76.351697 16.121521-39.380156 5.773462-84.292669 8.413829-128.84 3.315417-142.99201-16.36534-296.759609-99.156322-357.7510325-206.752012-61.0396733-107.680808-55.9984512-277.477313-40.4732697-338.830565 7.4286649-29.356999 14.5490693-46.149323 20.8803893-55.565109 6.2735571-9.329884 12.7693169-13.676593 18.6446859-15.958227 5.6200606-2.182487 11.2180928-2.649145 16.8804401-1.775282l.1302079.020332.1179293-.288799c31.0781967-76.163029 83.1689317-141.521333 149.0778717-188.859573l2.177819-1.554064c70.811818-50.2025631 157.327102-79.717564 250.73738-79.717564z" stroke-width="40"/><path d="m785.120797 592.993028c100.145386-70.123342 110.984427-227.433506 24.209676-351.362086-86.774752-123.92858-238.303462-167.5463438-338.448848-97.423002-100.145386 70.123342-110.984427 227.433507-24.209676 351.362087s238.303462 167.546343 338.448848 97.423001z" stroke-linecap="round" stroke-width="20"/><path d="m621.715466 341.217803c8.395727 63.138811 70.065705 194.481955 79.686843 194.481955 5.967407 0 66.463715-140.079905 57.137046-206.911863-3.744537-26.832169-26.161717-77.073816-98.789301-166.306482-2.315321-2.844681-11.123354-9.779971-26.424097-20.805868-13.337478 90.935632-17.207642 157.449718-11.610491 199.542258z" fill="#000" stroke-width="42"/><path d="m98.6245057 319.445081c12.2110253 4.428418 47.8635423 20.432151 37.3949443 211.596218s158.020234 325.928641 295.571112 346.714408c137.550879 20.785767 211.248247 1.149673 252.197679-9.33193 40.949431-10.481603-100.662313 50.742705-238.696901 34.960363-138.034587-15.782342-287.422644-94.695603-346.4668343-198.753139-59.0441901-104.057536-53.9241534-268.113881-38.9147951-327.370011s26.7037699-62.244327 38.9147951-57.815909z" stroke-linecap="round" stroke-width="20"/></g></svg>