<?xml version="1.0" encoding="utf-8"?>
<!-- Generator: Adobe Illustrator 20.0.0, SVG Export Plug-In . SVG Version: 6.00 Build 0)  -->
<svg version="1.1" id="Layer_1" xmlns="http://www.w3.org/2000/svg" xmlns:xlink="http://www.w3.org/1999/xlink" x="0px" y="0px"
	 viewBox="0 0 253.4 386.3" style="enable-background:new 0 0 253.4 386.3;" xml:space="preserve">
<style type="text/css">
.fillpulse {
	animation: fillpulse 3s infinite;
}

@keyframes fillpulse {
	0%, 20%, 40%, 60%, 100% {
		fill: #FFFFFF;
	}
	10%, 30%, 50% {
		fill: #0078CC;
	}
}
</style>
<g>
	<ellipse class="fillpulse" cx="59.2" cy="252.4" rx="8.3" ry="5.3"/>
</g>
<g>
	<path d="M59.2,258.3c-4.9,0-8.8-2.6-8.8-5.8c0-3.2,4-5.8,8.8-5.8c4.9,0,8.8,2.6,8.8,5.8C68,255.6,64,258.3,59.2,258.3z M59.2,247.6
		c-4.3,0-7.8,2.2-7.8,4.8c0,2.7,3.5,4.8,7.8,4.8c4.3,0,7.8-2.2,7.8-4.8C67,249.8,63.5,247.6,59.2,247.6z"/>
</g>
<g>
	<path class="fillpulse" d="M59.2,257.8c-4.6,0-8.3-2.4-8.3-5.3c0-2.9,3.7-5.3,8.3-5.3c4.6,0,8.3,2.4,8.3,5.3
		C67.5,255.4,63.8,257.8,59.2,257.8z M59.2,243.6c-8.8,0-16.5,2.8-20.2,6.9H27.4c-1,2.1-1.9,4.2-2.7,6.3c0.4,0.6,0.8,1.2,1.2,1.8
		h10.9c2,5.9,11.2,10.3,22.3,10.3c12.5,0,22.7-5.7,22.7-12.7C81.8,249.3,71.7,243.6,59.2,243.6z"/>
</g>
<g>
	<path d="M253.3,262.7c-0.2-8.3-1.3-16.5-3.3-24.6c-0.1-0.3-0.2-0.7-0.3-1c-2-6.5-5-12.8-8.7-18.8l-1.2-2
		c-5.8-16.7-20.6-31.1-40.7-41.3c24.7-16,38.5-38.9,38.5-63.6c0-0.2,0-0.4,0-0.6h0l0-0.9C237.6,49.3,188,0,127,0
		S16.3,49.3,16.3,109.9l0,0.9h0c0,0.2,0,0.4,0,0.6c0,24.7,13.4,47.5,38,63.6c-20.2,10.2-35,24.6-40.8,41.3l-1.2,2
		c-3.7,6-6.6,12.3-8.7,18.8c-0.1,0.3-0.2,0.7-0.3,1c-1.9,8-3,16.2-3.2,24.5h0c0,1,0,1.9,0,2.9c0,66.6,56.8,120.7,126.7,120.7
		s126.7-54.2,126.7-120.7C253.4,264.6,253.4,263.6,253.3,262.7z M127,2.1c52.1,0,95.8,36.7,106.2,85.4c-5.2-13.5-14.8-25.9-28.3-36
		c-14.8-11.1-33-18.7-52.7-22.2c-0.3-0.1-0.7-0.1-1-0.2c-1.3-0.2-2.5-0.4-3.8-0.6c-1.1-0.2-2.1-0.3-3.2-0.4
		c-0.6-0.1-1.1-0.1-1.7-0.2c-1.4-0.1-2.7-0.3-4.1-0.4c-0.3,0-0.6,0-0.9-0.1c-1.6-0.1-3.1-0.2-4.7-0.3c-0.1,0-0.3,0-0.4,0
		c-1.7-0.1-3.5-0.1-5.2-0.1s-3.5,0-5.2,0.1c-0.1,0-0.3,0-0.4,0c-1.6,0.1-3.2,0.2-4.7,0.3c-0.3,0-0.6,0-0.9,0.1
		c-1.4,0.1-2.7,0.2-4.1,0.4c-0.6,0.1-1.1,0.1-1.7,0.2c-1.1,0.1-2.2,0.3-3.2,0.4c-1.3,0.2-2.6,0.4-3.8,0.6c-0.3,0.1-0.7,0.1-1,0.2
		c-19.8,3.5-38,11-52.7,22.2C35.6,61.7,26,74.1,20.8,87.6C31.2,38.8,74.8,2.1,127,2.1z M18.4,111.4c0-0.5,0-0.9,0-1.4
		c0-0.4,0-0.7,0-1.1c0-0.3,0-0.7,0.1-1c0-0.4,0-0.7,0.1-1.1c0-0.3,0-0.6,0.1-0.9c0-0.4,0.1-0.8,0.1-1.2c0-0.3,0.1-0.5,0.1-0.8
		c0.1-0.5,0.1-0.9,0.2-1.4c0-0.2,0.1-0.4,0.1-0.6c0.1-0.5,0.2-1,0.3-1.6c0-0.1,0-0.2,0.1-0.3c0.1-0.6,0.2-1.2,0.4-1.8c0,0,0,0,0,0
		c8.3-39,53.3-69.1,107.2-69.1c53.8,0,98.8,30,107.1,69c0,0,0,0.1,0,0.1c0.1,0.6,0.2,1.2,0.3,1.7c0,0.1,0,0.3,0.1,0.4
		c0.1,0.5,0.2,1,0.2,1.5c0,0.2,0.1,0.4,0.1,0.6c0.1,0.4,0.1,0.9,0.2,1.3c0,0.3,0.1,0.5,0.1,0.8c0,0.4,0.1,0.8,0.1,1.1
		c0,0.3,0.1,0.6,0.1,1c0,0.3,0,0.7,0.1,1c0,0.4,0,0.7,0.1,1.1c0,0.3,0,0.7,0,1c0,0.5,0,0.9,0,1.4c0,24-13.8,46.6-37.8,62.3
		c-1.2-0.6-2.5-1.2-3.8-1.8c24.2-15,38-36.9,38-60.5c0-43.3-47.1-78.6-105-78.6S22,68.1,22,111.4c0,23.5,13.7,45.4,37.8,60.4
		c-1.3,0.6-2.5,1.1-3.8,1.7C32.1,157.9,18.4,135.3,18.4,111.4z M191.1,171.2l-0.2,0.1c-18.5-7.8-40.6-12.2-64.2-12.2
		c-23.4,0-45.5,4.4-63.9,12.1l-0.2-0.1c-24.5-14.6-38.5-36.3-38.5-59.6C24.1,69.3,70.3,35,127,35c56.7,0,102.9,34.3,102.9,76.4
		C229.8,134.8,215.7,156.5,191.1,171.2z M11.8,230.7c0.3-1.3,0.5-2.5,0.8-3.8l0-0.1c0.3-2.6,0.8-5.1,1.6-7.6l2.1-7.1
		c14.1-30.5,58.8-52,110.4-52c51.6,0,96.3,21.5,110.4,52l2.1,7.1c0.8,2.8,1.4,5.6,1.7,8.5l0,0.1c0.3,1.1,0.5,2.2,0.7,3.3
		c0,0.4,0,0.7,0,1.1c0,34.1-36.3,62.9-88.3,70.2l-1.3-4.5c2-0.3,4.1-0.6,6.2-1l0.4-0.1l0,0c46.5-8.2,78.3-34.1,78.3-64.6
		c0-37.2-49.5-67.5-110.3-67.5c-60.8,0-110.3,30.3-110.3,67.5c0,31.1,34,58,82.8,65.4l-1.4,4.5c-50.7-8-86-36.7-86-69.9
		C11.8,231.6,11.8,231.2,11.8,230.7z M101.7,309.2c0.8,0.1,1.5,0.3,2.3,0.4c0.4,0.1,0.7,0.1,1.1,0.2c1.2,0.2,2.4,0.4,3.6,0.6l0,0
		l0.3,0l0.8,0.1l0,0c0,0,0,0,0,0c4.5,0.6,8.9,1,13.3,1.1c1.1,0,2.2,0.1,3.3,0.1c0,0,0.1,0,0.1,0c0.6,0,1.1,0,1.7,0
		c0.8,0,1.7,0,2.5-0.1c1,0,2-0.1,3-0.2c0.4,0,0.7,0,1.1-0.1c1.3-0.1,2.6-0.2,3.9-0.4c0,0,0,0,0.1,0c1.3-0.1,2.7-0.3,4-0.5l0,0
		l0.8-0.1l0.3,0l0,0c1-0.2,1.9-0.3,2.9-0.5c0.3-0.1,0.6-0.1,0.8-0.2c0.6-0.1,1.2-0.2,1.8-0.4l1.3,4.1c-2,1-5.8,1.8-10.9,2.3
		c-1.7,0.2-3.5,0.3-5.4,0.4c-5,0.3-10.7,0.3-15.9,0.1c-2-0.1-3.9-0.2-5.6-0.4c-5.8-0.5-10.2-1.4-12.4-2.5L101.7,309.2z M100,311.4
		l-1.3-8.8l1-3.2l0.4,3.1l0.8,6.1L100,311.4z M113.4,293.5c2.5-2.7,5.8-4.5,9.4-5.3c1.2-0.2,2.4-0.4,3.7-0.4c5,0,9.8,2.1,13,5.7
		c0.3,0.4,0.6,0.7,0.9,1.1c0.1,0.1,0.2,0.3,0.3,0.5c0.2,0.2,0.4,0.5,0.5,0.8c0.1,0.2,0.2,0.3,0.3,0.5c0.1,0.2,0.3,0.5,0.4,0.8
		c0.1,0.2,0.2,0.3,0.2,0.5c0.1,0.3,0.3,0.6,0.4,0.9l0,0.1c0.7,1.7,1,3.5,1.1,5.3c0,0.8,0,1.6-0.1,2.3c-0.1,0.5-0.1,1.1-0.3,1.6
		c0,0.2-0.1,0.4-0.1,0.5c-0.1,0.3-0.1,0.6-0.2,0.9c-0.7,0.1-1.4,0.2-2.1,0.3c-0.6,0.1-1.2,0.2-1.8,0.2c-0.7,0.1-1.5,0.1-2.2,0.2
		c-0.6,0.1-1.2,0.1-1.9,0.2c-0.8,0.1-1.6,0.1-2.4,0.1c-0.6,0-1.2,0.1-1.7,0.1c-1.2,0-2.3,0.1-3.5,0.1c-0.2,0-0.5,0-0.7,0
		c-1.4,0-2.8,0-4.2-0.1c-0.4,0-0.9,0-1.3-0.1c-1,0-2-0.1-3-0.2c-0.6,0-1.1-0.1-1.7-0.1c-0.9-0.1-1.8-0.1-2.7-0.2
		c-0.6-0.1-1.3-0.2-1.9-0.2c-0.8-0.1-1.6-0.2-2.3-0.3c-0.1-0.3-0.2-0.7-0.3-1c0-0.2-0.1-0.4-0.1-0.6c-0.1-0.6-0.2-1.2-0.2-1.8
		c0-0.7,0-1.4,0-2.1c0.1-1.9,0.5-3.7,1.3-5.4c0.2-0.5,0.4-0.9,0.6-1.4C111.5,295.8,112.4,294.6,113.4,293.5z M111.5,294.2
		C111.5,294.2,111.5,294.2,111.5,294.2c0.1-0.2,0.2-0.4,0.3-0.6c0.1-0.1,0.1-0.2,0.2-0.4c0.1-0.2,0.2-0.4,0.4-0.5
		c0.1-0.1,0.2-0.2,0.2-0.3c0.1-0.2,0.3-0.4,0.4-0.5c0.1-0.1,0.2-0.2,0.2-0.3c0.2-0.3,0.5-0.5,0.7-0.8c3.2-3.5,7.9-5.5,12.7-5.5
		c4.8,0,9.4,2,12.6,5.5c0.3,0.3,0.5,0.6,0.8,0.9c0.1,0.1,0.1,0.2,0.2,0.3c0.2,0.2,0.3,0.4,0.5,0.7c0.1,0.1,0.1,0.2,0.2,0.3
		c0.2,0.2,0.3,0.5,0.4,0.8c0.1,0.1,0.1,0.2,0.2,0.3c0.2,0.3,0.3,0.7,0.5,1c0,0,0,0,0,0c-0.2-0.2-0.3-0.5-0.5-0.7
		c-0.1-0.1-0.2-0.3-0.3-0.4c-0.3-0.4-0.6-0.8-0.9-1.1c-3.5-3.9-8.5-6.1-13.8-6.1c-0.7,0-1.3,0-2,0.1c-4.5,0.5-8.8,2.6-11.9,5.9
		C112.3,293.2,111.9,293.7,111.5,294.2C111.6,294.2,111.5,294.2,111.5,294.2z M149.4,307.2l-0.1,1.1c-0.9,0.2-1.8,0.4-2.6,0.5
		c-0.2,0-0.3,0.1-0.5,0.1c-0.6,0.1-1.3,0.2-1.9,0.3c0.1-0.2,0.1-0.4,0.2-0.7c0-0.2,0.1-0.3,0.1-0.5c0.1-0.5,0.2-1.1,0.3-1.6
		c0.1-0.8,0.1-1.6,0.1-2.5c0-0.5-0.1-0.9-0.1-1.4c0-0.1,0-0.3-0.1-0.4c0-0.3-0.1-0.6-0.2-0.9c0-0.2-0.3-2.4-0.3-2.4l0,0l0,0
		l-0.1-0.5c-0.1-0.7-0.3-1.5-0.6-2.2c0,0,0,0,0,0c-0.1-0.3-0.2-0.7-0.4-1c0,0,0-0.1,0-0.1c-0.1-0.3-0.2-0.5-0.4-0.8
		c0-0.1-0.1-0.2-0.1-0.3c-0.1-0.2-0.2-0.4-0.3-0.6c-0.1-0.1-0.1-0.3-0.2-0.4c-0.1-0.1-0.2-0.3-0.3-0.4c-0.1-0.2-0.2-0.4-0.3-0.5
		c-0.1-0.1-0.1-0.2-0.2-0.3c-0.4-0.5-0.8-1-1.2-1.5c-3.4-3.7-8.2-5.9-13.3-5.9c-5.1,0-10,2.1-13.4,5.8c-2.1,2.3-3.6,5.1-4.3,8.1
		l-0.1,0.5c0,0-0.4,1.6-0.4,1.8c0,0.2-0.1,0.3-0.1,0.5c-0.1,0.3-0.1,0.6-0.2,0.9c0,0.1-0.1,0.3-0.1,0.4c-0.1,0.5-0.1,0.9-0.1,1.4
		c0,0.7,0,1.5,0,2.2c0,0.5,0.1,1,0.2,1.5c0,0.1,0,0.2,0,0.3c0.1,0.5,0.2,0.9,0.3,1.4c0,0,0,0.1,0,0.1c-0.8-0.1-1.6-0.2-2.4-0.4
		c-0.3,0-0.5-0.1-0.8-0.1c-1.1-0.2-2.3-0.4-3.4-0.6l-1.5-11l-0.1-0.5l-0.3,0l-0.1,0c-1.6-0.2-3.2-0.5-4.8-0.8
		c0.8-6.3,3.5-12.1,7.9-16.8c6-6.5,14.6-10.2,23.6-10.2c9,0,17.6,3.8,23.5,10.3c4.3,4.8,6.9,10.5,7.5,16.8c-2.1,0.4-4.2,0.7-6.3,1
		l-0.6,0.1c0,0-0.3,2.8-0.4,3.9c-0.1,0.5-0.2,1.1-0.2,1.5C149.8,304,149.6,305.6,149.4,307.2z M155.3,191.6l-0.2-0.3
		c-1.4-1.7-2.9-3.3-4.6-4.7c-6.7-5.8-15.2-9-23.9-9c-8.8,0-17.1,3.1-23.9,8.9c-1.7,1.4-3.2,3-4.6,4.6l-0.2,0.3
		c-2.1,2.5-3.9,5.4-5.4,8.4c-10.7,2.9-20.8,7.2-30.1,12.9c-15.7,9.6-28,22.7-35.2,37.5h0l-0.1,0.3c0,0.1-0.1,0.2-0.1,0.2
		c-0.8,1.8-1.6,3.5-2.3,5.4c-4.6-7.4-7.1-15.4-7.1-23.8c0-36.7,49-66.5,109.3-66.5c60.2,0,109.3,29.8,109.3,66.5
		c0,8.4-2.5,16.5-7.1,23.9c-6.6-17.2-20-32.6-37.9-43.4c-9.7-5.9-20.3-10.3-31.6-13.3C158.6,196.9,157.4,194.6,155.3,191.6z
		 M160.4,209.2l6.5,77.2c-1.7-5.3-4.6-10.2-8.4-14.5c-8-8.9-19.6-14-31.8-14c-12.1,0-23.8,5-31.9,13.8c-4.3,4.6-7.4,10-9.3,15.9
		l4.1-75.2c0.6-4.2,1.8-8.2,3.6-11.9c1.5-3,3.3-5.8,5.4-8.4l0.2-0.3c1.4-1.6,2.9-3.2,4.5-4.5c6.7-5.7,14.7-8.7,23.3-8.7
		c8.6,0,16.6,3,23.3,8.8c1.6,1.4,3.1,2.9,4.4,4.6l0.2,0.2C158.7,198.4,159.4,201.7,160.4,209.2z M27.8,251.1h11.4l0.1-0.2
		c3.8-4.2,11.4-6.8,19.9-6.8c12.2,0,22.2,5.5,22.2,12.2s-10,12.2-22.2,12.2c-10.7,0-19.9-4.2-21.8-10l-0.1-0.3h-11
		c-0.3-0.5-0.6-0.9-0.9-1.4C26,254.9,26.9,252.9,27.8,251.1z M36.5,259.2c2.3,6,11.7,10.3,22.6,10.3c12.8,0,23.2-5.9,23.2-13.2
		s-10.4-13.2-23.2-13.2c-8.6,0-16.4,2.7-20.4,6.9H28.2c7.2-14.4,19.2-27.2,34.7-36.6c8.9-5.4,18.7-9.6,29-12.5
		c-1.6,3.6-2.7,7.4-3.3,11.3l-4.4,81.2c-25.4-6.5-46-18.7-57.3-34.2H36.5z M85.2,293c1.3-7.7,4.9-14.8,10.3-20.7
		c8-8.6,19.4-13.5,31.2-13.5c11.9,0,23.3,5,31.1,13.7c5.2,5.8,8.5,12.8,9.7,20.3l1-0.1l-7.1-83.7c-0.5-3.6-0.9-6.2-1.6-8.6
		c11,2.9,21.3,7.2,30.7,13c17.8,10.9,31.2,26.3,37.6,43.4c-12.4,18.8-38.1,33.1-69.6,38.9c-0.7-6.4-3.3-12.4-7.7-17.3
		c-6.1-6.8-14.9-10.7-24.2-10.7c-9.2,0-18.1,3.8-24.3,10.5c-4.5,4.9-7.3,10.8-8.2,17.3c-3.2-0.6-6.4-1.3-9.5-2.1L85.2,293z
		 M97.7,303l1.6,10.9l0.2,0.1l0,0c0,0,0.1,0,0.1,0.1l0.4,0.2l0,0c3,1.4,8.5,2.1,12.7,2.5c1.8,0.2,3.7,0.3,5.7,0.4
		c2.3,0.1,4.7,0.2,7.1,0.2c3,0,6-0.1,8.9-0.2c1.9-0.1,3.8-0.3,5.5-0.4c3.9-0.4,9.1-1.2,11.7-2.6l0.3-0.5l-1.6-5l0.2-1.3
		c0.2-1.6,0.4-3.2,0.6-4.8c0.1-0.4,0.1-0.9,0.2-1.5c0.1-0.5,0.1-1,0.2-1.5l1.2,3.9l0.4-0.1c51.1-7,87.2-34.7,89.5-67.9
		c2.1,11.4,3.1,23.9,2.8,37.6c-6.3,21-21.3,40.1-42.4,53.7c-21.8,14.1-48.2,21.5-76.2,21.5c-56.1,0-104.7-30.5-118.3-74.2
		c-0.4-13.9,0.5-26.8,2.5-38.6C13.1,267.7,48.2,295.2,97.7,303z M126.7,384.1c-62.3,0-114-43.7-123.1-100.7c0,0.1,0,0.1,0.1,0.2
		c0.3,1,0.6,1.9,1,2.9c0.1,0.2,0.2,0.5,0.3,0.7c0.3,0.8,0.6,1.6,0.9,2.4c0.1,0.2,0.2,0.5,0.3,0.7c0.4,1,0.8,1.9,1.2,2.8
		c0.1,0.2,0.2,0.3,0.2,0.5c0.4,0.8,0.8,1.6,1.2,2.4c0.1,0.2,0.2,0.5,0.4,0.7c0.5,0.9,1,1.9,1.5,2.8c0,0.1,0.1,0.2,0.1,0.3
		c0.5,0.8,1,1.7,1.5,2.5c0.1,0.2,0.3,0.5,0.4,0.7c0.5,0.9,1.1,1.7,1.7,2.6c0,0,0.1,0.1,0.1,0.1c0.6,0.9,1.2,1.8,1.9,2.7
		c0.2,0.2,0.3,0.4,0.5,0.7c0.6,0.8,1.1,1.5,1.7,2.2c0.1,0.1,0.2,0.3,0.3,0.4c0.7,0.9,1.4,1.7,2.1,2.5c0.2,0.2,0.3,0.4,0.5,0.6
		c0.6,0.7,1.2,1.4,1.9,2.1c0.2,0.2,0.3,0.4,0.5,0.5c0.8,0.8,1.5,1.6,2.3,2.4c0.2,0.2,0.3,0.3,0.5,0.5c0.7,0.7,1.4,1.3,2.1,2
		c0.2,0.2,0.4,0.4,0.6,0.6c0.8,0.8,1.7,1.6,2.6,2.3c0.1,0.1,0.2,0.2,0.4,0.3c0.8,0.7,1.6,1.3,2.4,2c0.2,0.2,0.5,0.4,0.7,0.6
		c0.9,0.7,1.9,1.5,2.8,2.2c23.8,17.9,55.2,27.8,88.5,27.8c33.3,0,64.7-9.9,88.5-27.8c1-0.7,1.9-1.5,2.8-2.2c0.2-0.2,0.5-0.4,0.7-0.6
		c0.8-0.7,1.6-1.3,2.4-2c0.1-0.1,0.2-0.2,0.4-0.3c0.9-0.8,1.7-1.5,2.6-2.3c0.2-0.2,0.4-0.4,0.6-0.6c0.7-0.6,1.4-1.3,2-2
		c0.2-0.2,0.3-0.3,0.5-0.5c0.8-0.8,1.6-1.6,2.3-2.4c0.2-0.2,0.4-0.4,0.5-0.6c0.6-0.7,1.2-1.3,1.8-2c0.2-0.2,0.4-0.4,0.6-0.7
		c0.7-0.8,1.4-1.6,2.1-2.5c0.1-0.2,0.3-0.4,0.4-0.5c0.5-0.7,1.1-1.4,1.6-2.1c0.2-0.3,0.4-0.5,0.6-0.8c0.6-0.8,1.2-1.7,1.8-2.5
		c0.1-0.2,0.2-0.3,0.3-0.5c0.5-0.7,1-1.5,1.4-2.2c0.2-0.3,0.4-0.6,0.6-1c0.4-0.7,0.8-1.3,1.2-2c0.1-0.2,0.3-0.5,0.4-0.7
		c0.5-0.8,0.9-1.7,1.4-2.5c0.2-0.4,0.4-0.7,0.6-1.1c0.3-0.6,0.6-1.2,0.9-1.8c0.2-0.4,0.3-0.7,0.5-1.1c0.4-0.8,0.7-1.7,1.1-2.5
		c0.2-0.4,0.3-0.8,0.5-1.2c0.2-0.5,0.4-1.1,0.6-1.6c0.2-0.4,0.3-0.8,0.5-1.3c0.3-0.8,0.6-1.7,0.8-2.5c0-0.1,0.1-0.2,0.1-0.3
		C240.7,340.4,189,384.1,126.7,384.1z M213.9,328.7c-23.4,17.6-54.4,27.4-87.2,27.4c-32.8,0-63.8-9.7-87.2-27.4
		c-2.2-1.6-4.3-3.3-6.3-5.1c-19.4-16.9-30.3-38.2-31-60.9c0.2-8.1,1.3-16.2,3.2-24c0.1-0.3,0.2-0.6,0.3-1c1.3-4.1,3-8.2,5-12.2
		c0,0.3-0.1,0.6-0.1,1c-3.4,14.2-4.8,30.3-4.3,47.8l0,0.3c13.8,44.7,63.4,75.9,120.4,75.9c28.4,0,55.2-7.6,77.4-21.9
		c21.6-13.9,37-33.5,43.4-55.1l0-0.3c0.3-17-1.2-32.5-4.5-45.9c-0.1-0.6-0.1-1.2-0.2-1.8c2,4,3.7,8.1,5,12.2
		c0.1,0.3,0.2,0.6,0.3,0.9c1.9,7.9,3,16,3.2,24C250.4,287.7,237.2,311.1,213.9,328.7z"/>
	<path d="M59.2,258.3c4.9,0,8.8-2.6,8.8-5.8c0-3.2-4-5.8-8.8-5.8c-4.9,0-8.8,2.6-8.8,5.8C50.3,255.6,54.3,258.3,59.2,258.3z
		 M59.2,247.6c4.3,0,7.8,2.2,7.8,4.8c0,2.7-3.5,4.8-7.8,4.8c-4.3,0-7.8-2.2-7.8-4.8C51.3,249.8,54.8,247.6,59.2,247.6z"/>
</g>
</svg>
