<svg height="960" viewBox="0 0 960 960" width="960" xmlns="http://www.w3.org/2000/svg"><g fill="none" fill-rule="evenodd" stroke="#000"><path d="m206.194296 94.7743991 186.460431 841.2256009 329.787244-86.35487-151.129576-600.547046 92.006842-31.086802 63.979132-65.376687-24.670401-123.4659177-83.800689-7.1686772-312.734189 28.6365913z" stroke-linecap="round" stroke-linejoin="round" stroke-width="40"/><path d="m686.256562 26 21.743438 151.031536-58.111449 60.290747-89.964122 28.306383-290.207441 39.371334-52.716988-201.975539 98.681096-45.9745919 279.632545-31.0498691zm-278.99183 54.5089357c-15.344323 5.6776953-21.633867 25.7225523-14.048088 44.7714413s26.1743 29.888383 41.518624 24.210687c15.344323-5.677695 21.633867-25.722552 14.048088-44.771441-7.585779-19.0488885-26.1743-29.8883826-41.518624-24.2106873zm79.534201-6.9757453c-14.874074 5.7223817-21.021574 25.792605-13.730826 44.8280986 7.290748 19.035493 25.258886 29.827902 40.13296 24.105521 14.874074-5.722382 21.021574-25.792605 13.730826-44.8280987-7.290748-19.0354933-25.258886-29.8279026-40.13296-24.1055209zm76.27994-8.0437517c-14.334677 5.6414972-20.170243 25.6657389-13.034101 44.7253953 7.136141 19.059657 24.541678 29.937225 38.876355 24.295727 14.334677-5.641497 20.170243-25.665739 13.034101-44.7253954-7.136141-19.0596567-24.541678-29.9372241-38.876355-24.2957269zm76-7c-14.334677 5.6414972-20.170243 25.6657389-13.034101 44.7253953 7.136141 19.059657 24.541678 29.937225 38.876355 24.295727 14.334677-5.641497 20.170243-25.665739 13.034101-44.7253954-7.136141-19.0596567-24.541678-29.9372241-38.876355-24.2957269z" fill="#000" stroke-width="2"/></g></svg>