<?xml version="1.0" encoding="utf-8"?>
<!-- Generator: Adobe Illustrator 20.0.0, SVG Export Plug-In . SVG Version: 6.00 Build 0)  -->
<svg version="1.1" id="Layer_2" xmlns="http://www.w3.org/2000/svg" xmlns:xlink="http://www.w3.org/1999/xlink" x="0px" y="0px"
	 viewBox="0 0 2175.02 3612.46" style="enable-background:new 0 0 2175.02 3612.46;" xml:space="preserve">
<style type="text/css">
.fillpulse {
	animation: fillpulse 3s infinite;
}

@keyframes fillpulse {
	0%, 20%, 40%, 60%, 100% {
		fill: rgba(0,0,0,1);
	}
	10%, 30%, 50% {
		fill: #0078CC;
	}
}
</style>
<g>
	<path d="M1732.13,2007.67l-648.64,114.08l101.64,414.57l40.28-7.73l457.39-87.77l147.16-28.23L1732.13,2007.67z M1693.59,2365.69
		l-56.72,10.88l0,0l-144.72,27.76l-206.05,39.55l-4.03,1.01l-66.58-271.56l56.69-14.17l-0.07-0.3l4.31-0.76l4.02-1l0.07,0.29
		l410.03-72.12l64.12,265.42l-4.27,0.82L1693.59,2365.69z"/>
	<path d="M981.94,2458.03c11.01,44.91,22.01,89.79,33.01,134.62l109.46-36.49l55.22-18.41l-101.64-414.61l-164.68,54.89
		c12.44,50.78,24.88,101.53,37.31,152.21L981.94,2458.03z"/>
	<polygon points="1183.73,2542.37 1054.49,2585.45 1250.29,2547.88 1662.61,2468.76 1791.88,2425.67 1198.18,2539.59 	"/>
	<path d="M924.74,1912.54l-287.9,44.05l21.65,85.46l130.88-20.38L946,1997.28c-6.21-24.7-12.42-49.49-18.64-74.27L924.74,1912.54z"
		/>
	<polygon points="898.48,2024.2 938.51,2004.19 883.51,2012.75 657.25,2047.98 639.57,2056.82 617.22,2067.99 768.22,2044.47 	"/>
	<polygon points="1093.42,1980.07 1011.8,1992.78 971.77,2012.79 1053.39,2000.09 	"/>
	<path d="M601.56,2069.48l51.5-25.75l-21.63-85.36l-51.5,25.75c6.31,24.98,12.61,49.83,18.9,74.61L601.56,2069.48z"/>
	<path d="M953.53,2015.57l54.1-27.05l-58.57-233.45l-54.1,27.05c0.31,1.24,0.62,2.47,0.93,3.71l0.93,3.7
		c9.28,37.05,18.56,74.02,27.81,110.9c0.52,2.05,1.03,4.1,1.55,6.15l2.82-0.43l3.88,15.47c6.26,24.95,12.51,49.9,18.76,74.77h0
		l1.69,6.71l-2.59,1.3C951.66,2008.14,952.59,2011.86,953.53,2015.57z"/>
	<polygon points="1013.05,1986.84 1107.45,1972.15 1072.84,1833.83 1070.96,1834.12 1072.7,1833.25 1049.88,1742.06 955.16,1756.13
			"/>
	<path d="M920.82,1722.85l60.99-8.96l40.46-20.23l-438.44,64.47l-4.62,2.31l-35.84,17.92l212.05-31.2
		C810.72,1739.02,865.85,1730.92,920.82,1722.85z"/>
	<polygon points="363.98,1131.26 528.15,1779.63 579.65,1753.88 576.27,1740.51 422.41,1132.89 422.41,1132.89 415.48,1105.51 	"/>
	<polygon points="420.9,1103.81 580.03,1732.28 585.08,1752.22 1035.85,1685.93 875.74,1045.67 	"/>
	<polygon points="905.66,1062.02 948.07,1232.02 990.05,1400.24 1041.55,1374.49 957.16,1036.27 	"/>
	<polygon points="1045.7,1378.76 1004.82,1399.2 1176.59,1375.5 1363.05,1349.76 1403.93,1329.32 	"/>
	<polygon points="962.58,1034.57 1046.98,1372.86 1417.08,1321.78 1334.45,987.05 	"/>
	<polygon points="1439.3,1333.37 1443.45,1350.15 1521.47,1666.27 1643.31,1648.19 1561.74,1316.46 	"/>
	<path d="M1382.4,1360.87c6.79,27.5,13.59,55.03,20.39,82.54l1.31,5.3c5.23,21.18,10.46,42.36,15.68,63.51l3.91,15.86
		c13.62,55.23,27.26,110.54,40.86,165.6l50.17-25.08l1.32-0.66l-7.34-29.72l-74.81-303.1L1382.4,1360.87z"/>
	<path d="M1520.2,1672.19l-40.38,20.19c36.52-5.43,72.98-10.84,109.44-16.24l40.39-20.19L1520.2,1672.19z"/>
	<path d="M1112.34,1681.38l-51.5,25.75l7,28.07c7.44,29.82,14.87,59.6,22.29,89.33l51.5-25.75L1112.34,1681.38z"/>
	<path d="M1343.04,1787.37l35.87-5.4l40.28-20.14l-273.39,41.2l-4.54,2.27l-35.74,17.87l157.67-23.77
		C1289.81,1795.39,1316.43,1791.38,1343.04,1787.37z"/>
	<polygon points="1404.14,1637.52 1117.75,1679.61 1147.07,1797.11 1432.97,1754.03 	"/>
	<polygon points="1174.58,3039.82 1178.74,3038.96 1178.74,3038.96 1949.09,2879.82 1919.23,2761.46 1124.55,2915.71 1123.78,2916
		1143.23,2993.86 1156.09,3045.32 	"/>
	<polygon points="1150.65,3046.94 1137.88,2995.8 1118.44,2918.01 1048.93,2944.07 1083.03,3067.08 	"/>
	<path d="M2171.53,3316.71l-119.85-452.29l-67.05,13.85l-503.6-1978.71l391.1-127.17l1.86-0.6L2137.1,518.5l-3.12-3.24l4.52-4.35
		L2019.94,28.19l-0.09,0.02l0.21-1.84L1681.83,0.05L1681.12,0L417.02,112.69L0,289.31l3.32,7.83l-8.28,1.92l764.96,3297.69
		l291.92-58.38l7.91,32.59l234.61-49.22l-114.37-477.26l-4.22,0.87l-20.97,6.25l-49.32,14.69l-26.44,7.88v0l-130.48,38.87
		l99.27,408.8l-204.09,40.82L251.9,1062.92l1.45-0.56l1211.08-159.01l503.51,1978.37l-11.92,2.46v0l-2.9,0.6l-409.74,84.65
		l-357.77,73.91l114.34,477.16L2171.53,3316.71z M1855.92,754.89L635.24,901.84l230.55-239.5l1234.15-137.92l-237.06,228.2
		L1855.92,754.89z M2119.57,505.12L868.53,644.92L766.91,160.41L2006.23,43.66L2119.57,505.12z M1681.22,17.07l233.33,18.15
		L756.64,144.3l-244.38-23.02L1681.22,17.07z M827.11,3565.99l-54.28,10.86L13.22,302.19l37.34-15.81L827.11,3565.99z
		 M249.14,1045.76l-1.26,0.17L66.44,279.65l354.01-149.94l329.15,31.01l102.95,490.86l-247.5,257.11L249.14,1045.76z
		 M320.94,1036.33L614.68,923.2l1.91-1.98l1155.66-139.13l-306.19,99.56l1.35,4.15L320.94,1036.33z"/>
	<path d="M1776.17,356.2c9.51,17.06,21.1,32.02,34.46,44.46c13.38,12.46,27.84,21.76,42.99,27.65c11.57,4.5,23.18,6.81,34.59,6.96
		l-0.32,0.41l6.85-0.55l0.57-0.03l0.02-0.02l2.18-0.17c0.42-0.03,0.83-0.08,1.26-0.12c5.65-0.61,11.22-1.8,16.57-3.53l2.56-0.89
		l2.37-0.9l2.37-0.98c0.48-0.21,0.97-0.43,1.36-0.62l1.34-0.62l4.37-2.29c0.5-0.27,0.98-0.55,1.45-0.84l0.92-0.55
		c0.57-0.34,1.14-0.69,1.66-1.04l0.79-0.51c0.58-0.37,1.15-0.76,1.64-1.11l0.37-0.25c0.17-0.11,0.34-0.23,0.49-0.35
		c0.47-0.32,0.93-0.66,1.44-1.04l0.3-0.22c0.62-0.45,1.22-0.92,1.8-1.39l0.49-0.39c0.42-0.34,0.85-0.68,1.27-1.04l3.09-2.71
		c0.6-0.56,1.2-1.12,1.76-1.68c0.6-0.58,1.2-1.18,1.74-1.74l0.34-0.34c0.54-0.56,1.08-1.14,1.6-1.71l2.3-2.61l1.67-2.02
		c0.6-0.75,1.2-1.51,1.73-2.22c0.49-0.64,0.97-1.28,1.39-1.88l3.67-5.43l1.56-2.56l1.36-2.35l1.45-2.69l1.32-2.59l1.29-2.71
		l0.3-0.67c0.35-0.74,0.67-1.48,0.99-2.24l1.08-2.58l1.14-2.93l0.97-2.68l1.93-5.99l1.47-5.38l1.48-6.47l1.1-6.04l0.55-3.69
		l0.45-3.54c0.05-0.35,0.08-0.71,0.11-0.97l0.05-0.46c0.1-0.95,0.2-1.91,0.28-2.92l0.09-1.12c0.06-0.74,0.12-1.47,0.16-2.19
		l0.1-1.65c0.04-0.75,0.08-1.51,0.11-2.26c0.05-1.16,0.09-2.33,0.11-3.57v-0.08c0.03-1.2,0.04-2.4,0.04-3.63
		c0-0.82-0.01-1.63-0.02-2.45c-0.02-1.57-0.07-3.26-0.14-5.02c-0.03-0.76-0.06-1.53-0.11-2.25l-0.11-1.95l-0.53-6.35l-0.44-3.95
		c-0.1-0.87-0.22-1.74-0.34-2.63l-0.16-1.09c-0.08-0.6-0.17-1.2-0.26-1.81l-0.18-1.15c-0.11-0.65-0.21-1.31-0.33-1.97l-0.55-3.13
		l-0.57-2.9c-0.09-0.51-0.19-1.02-0.3-1.5l-0.66-3.04l-0.87-3.65l-0.92-3.58c-0.11-0.43-0.23-0.86-0.35-1.29l-1.72-5.98l-1.13-3.58
		l-1.04-3.09c-0.2-0.59-0.4-1.18-0.59-1.67l-2.1-5.69l-2.72-6.66l-1.53-3.46l-1.42-3.08l-1.47-3.04l-3.54-6.82l-1.72-3.09
		l-1.65-2.87l-3.48-5.69c-0.34-0.54-0.69-1.08-0.99-1.54l-2.85-4.27c-0.43-0.63-0.87-1.25-1.3-1.86l-3.14-4.34l-1.79-2.36
		c-0.69-0.9-1.39-1.79-2.08-2.63l-2.51-3.06l-2.2-2.57l-2.24-2.51c-0.63-0.69-1.26-1.38-1.9-2.06l-0.25-0.28
		c-0.75-0.79-1.5-1.57-2.26-2.34l-2.49-2.49c-0.77-0.77-1.54-1.51-2.29-2.21l-2.47-2.3l-2.49-2.21l-2.49-2.11l-2.5-2.03l-2.5-1.96
		l-2.5-1.87l-2.63-1.87l-2.62-1.79l-1.73-1.13l-6.14-3.71l-2.75-1.52l-2.64-1.38l-2.7-1.33l-2.74-1.26l-4.89-2.04
		c-0.21-0.09-0.44-0.17-0.65-0.25l-2.83-1.04l-2.66-0.9l-2.95-0.91l-2.2-0.61l-3.39-0.85l-2.95-0.63l-2.82-0.51l-2.63-0.4
		l-3.13-0.38l-2.63-0.23l-2.66-0.16c-0.36-0.03-0.7-0.04-1.06-0.04l-1.55-0.04c-0.39-0.02-0.78-0.02-1.23-0.02l-2.38,0.03
		l-2.75,0.11l-3.07,0.23l-2.8,0.3l-2.79,0.39l-2.65,0.48c-0.15,0.02-0.3,0.05-0.44,0.08l-2.36,0.51l-2.91,0.73l-1.83,0.52
		c-0.49,0.14-0.97,0.28-1.49,0.45l-4.26,1.49l-2.54,1.01c-0.56,0.24-1.12,0.48-1.65,0.72l-0.82,0.37c-0.57,0.26-1.15,0.53-1.63,0.78
		l-0.93,0.45c-3.89,1.95-7.68,4.26-11.28,6.86c-4.6,3.33-8.97,7.21-12.97,11.54l-6.53,7.07l0.6,0c-3.85,5.04-7.3,10.57-10.29,16.5
		c-7.36,14.58-11.92,31.2-13.54,49.42c-1.62,18.07-0.26,36.97,4.05,56.17C1759.72,320.87,1766.7,339.2,1776.17,356.2z
		 M1799.11,167.92c3.23-2.34,6.64-4.41,10.06-6.13l0.96-0.46c0.45-0.23,0.89-0.44,1.35-0.64l0.85-0.38c0.48-0.22,0.96-0.42,1.36-0.6
		l2.01-0.81l2.31-0.84l1.88-0.63c0.4-0.13,0.8-0.25,1.26-0.38l3.96-1.05l2.24-0.49l2.83-0.52l2.54-0.36l2.55-0.28l2.58-0.21
		l2.68-0.11l2.27-0.03c0.25,0,0.51,0,0.75,0.01l1.93,0.05c0.16,0,0.32,0.01,0.56,0.02l1.78,0.1l3.15,0.26l2.44,0.28l2.72,0.41
		l2.62,0.48l2.69,0.57l2.53,0.62l2.6,0.71l2.54,0.78l2.63,0.88l2.79,1.03c0.09,0.03,0.18,0.06,0.27,0.1l4.69,1.95l2.33,1.07
		l2.76,1.35l2.47,1.29l2.53,1.4l2.51,1.47l2.38,1.45l5,3.32l2.44,1.73l2.38,1.78l2.36,1.85l2.37,1.93l2.36,2l2.31,2.05l2.38,2.22
		c0.71,0.67,1.42,1.34,2.12,2.04l2.36,2.36c0.67,0.68,1.33,1.36,1.99,2.06l0.25,0.27c0.68,0.72,1.35,1.45,1.98,2.15l2.16,2.42
		l2.1,2.45l2.05,2.49l0.34,0.43c0.67,0.82,1.32,1.65,1.96,2.47l3.5,4.69l1.26,1.77c0.41,0.57,0.81,1.15,1.2,1.72l1.51,2.22
		l1.23,1.88c0.31,0.47,0.62,0.95,0.93,1.44l1.46,2.33l3.47,5.89l1.64,2.96l1.48,2.78l2.93,5.87l3.09,6.78l1.43,3.41l1.01,2.53
		l1.52,4.01l0.81,2.26c0.18,0.48,0.35,0.97,0.53,1.51l0.99,2.94l1.09,3.44l1.02,3.43l0.64,2.32c0.1,0.37,0.2,0.74,0.3,1.12l0.9,3.53
		l0.83,3.5l0.64,2.98c0.09,0.39,0.17,0.78,0.25,1.25l1.1,5.93c0.11,0.63,0.21,1.25,0.31,1.87l0.16,1.04
		c0.08,0.57,0.17,1.13,0.25,1.72l0.16,1.12c0.12,0.82,0.22,1.63,0.32,2.43l0.43,3.81l0.44,5.2l0.17,2.77
		c0.05,0.69,0.08,1.38,0.1,2.07c0.07,1.68,0.12,3.29,0.14,4.77c0.01,0.78,0.02,1.57,0.02,2.38c0,1.15-0.01,2.3-0.04,3.44l0,0.05
		l0,0.11c-0.02,1.09-0.06,2.18-0.11,3.28c-0.03,0.73-0.07,1.45-0.11,2.13l-0.1,1.65c-0.04,0.67-0.09,1.33-0.14,1.99l-0.09,1.13
		c-0.08,0.9-0.16,1.79-0.26,2.64l-0.06,0.51c-0.03,0.25-0.05,0.51-0.09,0.81l-0.38,3.07l-0.41,2.85l-1.11,6.28l-1.27,5.7l-1.47,5.45
		l-1.87,5.85l-0.97,2.69l-1.04,2.68l-1.05,2.52c-0.28,0.66-0.56,1.31-0.87,1.96l-1.48,3.16l-1.22,2.4l-1.31,2.43l-1.3,2.26
		l-1.31,2.14l-1.5,2.33l-1.2,1.75l-0.83,1.17c-0.38,0.54-0.78,1.08-1.24,1.67c-0.52,0.7-1.06,1.38-1.56,2l-3.12,3.67
		c-0.08,0.09-0.16,0.18-0.24,0.28l-0.26,0.27c-0.48,0.53-0.98,1.06-1.42,1.52l-0.34,0.34c-0.52,0.54-1.05,1.07-1.61,1.61
		c-0.53,0.52-1.07,1.04-1.55,1.48l-2.87,2.51c-0.36,0.3-0.71,0.59-1.07,0.88l-0.5,0.4c-0.51,0.4-1.02,0.8-1.56,1.2l-0.37,0.27
		c-0.41,0.3-0.82,0.61-1.23,0.9l-0.76,0.53c-0.45,0.32-0.9,0.63-1.4,0.94l-0.85,0.55c-0.44,0.29-0.88,0.56-1.35,0.84l-0.96,0.58
		c-0.38,0.23-0.75,0.45-1.15,0.66l-1.66,0.91l-1.32,0.67l-2.3,1.1c-0.35,0.17-0.71,0.33-1.03,0.47l-1.91,0.8l-2.37,0.9l-2.36,0.82
		c-2.08,0.68-4.21,1.26-6.36,1.75c1.19-1.93,2.31-3.86,3.49-5.9c0.99-1.71,2.03-3.51,3.22-5.49l1.44-2.98l0.12-0.27
		c2.68-6.04,4.23-11.02,5.87-16.3c0.67-2.17,1.37-4.42,2.18-6.82l0.11-0.37c1.53-6.49,2.63-12.64,3.46-19.36l0.03-0.5
		c0.01-0.41,0.18-2.08,0.26-2.51l0.06-0.46c0.89-10.7,0.89-20.42,0.01-31.54l-0.06-0.47c-0.09-0.47-0.27-2.31-0.27-2.78l-0.03-0.49
		c-0.39-3.41-0.87-6.88-1.45-10.61l-0.06-0.43c-1.1-6.25-2.36-12.13-3.99-18.51l-0.19-0.7l-0.03-0.05
		c-0.17-0.58-0.37-1.25-0.58-1.94c-0.45-1.48-1.02-3.32-1.2-4.26l-1.22-3.97l-0.13-0.37c-1.51-4.47-3.06-8.71-4.74-12.94l-0.33-0.86
		c-5.86-13.95-12.18-25.65-20.47-37.89l-0.23-0.34c-4.85-6.87-9.63-12.9-15.05-18.98l-2.31-2.49l-2.35-2.45l-2.38-2.39l-0.33-0.32
		l-0.04-0.02c-1.49-1.43-2.98-2.83-4.5-4.24l-0.35-0.29c-1.56-1.16-3.23-2.61-5-4.14c-1.5-1.3-3.04-2.64-4.58-3.84l-2.78-2.09
		l-0.34-0.23c-1.26-0.77-2.71-1.79-4.11-2.78c-1.15-0.81-2.34-1.65-3.5-2.4l-0.12-0.08c-3.66-2.25-7.1-4.21-10.83-6.16l-0.5-0.25
		l-0.06-0.01c-2.63-1.28-5.22-2.47-7.88-3.61l-2.42-0.96l-3.3-1.23l-0.29-0.09c-1.39-0.39-2.7-0.79-3.99-1.17
		c-3.32-0.99-6.46-1.93-10.25-2.74l-2.82-0.51l-0.28-0.05c-2.28-0.35-4.44-0.62-6.66-0.85
		C1796.05,170.22,1797.56,169.03,1799.11,167.92z"/>
	<path d="M1504.65,384.35c9.71,17.33,21.55,32.51,35.22,45.11c13.7,12.62,28.53,22.04,44.09,28c12.21,4.67,24.47,7.03,36.53,7.03
		c0.11,0,0.21,0,0.32-0.01l-0.49,0.6l10.39-1.16c6.65-0.74,13.16-2.24,19.45-4.49l2.44-0.93l2.53-1.06l2.77-1.26
		c0.25-0.12,0.49-0.24,0.73-0.37l1.74-0.86c0.41-0.21,0.8-0.42,1.17-0.63l0.88-0.48c0.49-0.25,0.96-0.53,1.35-0.77l1.08-0.63
		c0.44-0.25,0.88-0.52,1.32-0.82l1.13-0.7c0.55-0.36,1.11-0.73,1.6-1.07l0.55-0.37c0.46-0.31,0.91-0.63,1.32-0.93l1.14-0.83
		c0.22-0.17,0.45-0.33,0.64-0.49l1.38-1.08c0.46-0.35,0.92-0.72,1.35-1.09l1.33-1.11c0.49-0.41,0.97-0.84,1.38-1.21l0.28-0.25
		c0.43-0.39,0.87-0.79,1.25-1.17l3.18-3.11l1.9-2.01l1.73-1.93c0.4-0.45,0.79-0.91,1.1-1.3l2.77-3.45l1.73-2.32l0.06-0.08
		c0.49-0.7,0.98-1.4,1.48-2.12c0.43-0.63,0.85-1.26,1.26-1.9l2.01-3.2l1.56-2.68c0.84-1.49,1.66-3.02,2.44-4.56l0.36-0.71
		c0.44-0.9,0.88-1.81,1.3-2.71c0.42-0.88,0.82-1.78,1.2-2.64l1.21-2.85l0.58-1.48c0.24-0.58,0.47-1.17,0.67-1.7
		c0.39-1,0.75-2.01,1.12-3.05l0.88-2.57l0.08-0.02l1.75-6.05l0.63-2.35l1.45-6.07l0.62-3.05c0.11-0.55,0.22-1.11,0.3-1.61l0.49-2.85
		l0.48-3.12c0.03-0.17,0.06-0.34,0.08-0.51l0.23-1.81c0.07-0.57,0.15-1.14,0.21-1.72l0.17-1.6c0.08-0.64,0.14-1.28,0.19-1.9
		l0.42-5.39c0.03-0.3,0.04-0.61,0.05-0.88l0.15-3.18c0.01-0.24,0.02-0.49,0.02-0.74l0.1-6.42l-0.02-1.95
		c-0.01-0.79-0.03-1.57-0.05-2.39l-0.09-2.74l-0.16-3.1l-0.19-2.67c-0.03-0.51-0.07-1.02-0.12-1.54l-0.68-6.72l-0.56-4.21
		l-0.57-3.72l-0.64-3.71l-0.67-3.49l-0.73-3.44l-0.99-4.26l-0.87-3.47l-1.07-3.91l-1.07-3.65l-1.15-3.65l-2.46-7.1l-1.33-3.5
		l-1.37-3.43l-1.22-2.89c-0.23-0.56-0.47-1.12-0.73-1.68l-2.38-5.25l-1.38-2.86c-0.3-0.63-0.62-1.25-0.93-1.87l-2.35-4.5
		c-0.43-0.8-0.87-1.6-1.3-2.37l-0.45-0.82c-0.46-0.84-0.94-1.67-1.41-2.46l-0.43-0.73c-0.25-0.45-0.52-0.89-0.8-1.35l-1.2-2
		c-0.38-0.62-0.76-1.24-1.13-1.8l-0.7-1.1c-0.37-0.62-0.76-1.21-1.14-1.78l-1.24-1.88l-3.64-5.24c-0.38-0.55-0.77-1.1-1.13-1.56
		l-3.39-4.48l-4.48-5.52l-2.24-2.6l-2.28-2.54l-2.33-2.5l-2.35-2.43l-2.31-2.3c-0.78-0.76-1.55-1.51-2.34-2.24l-2.47-2.27
		l-2.06-1.83l-3.12-2.64l-2.56-2.07l-1.89-1.46l-3.22-2.4l-2.51-1.76l-1.5-1.03c-0.56-0.39-1.13-0.76-1.71-1.14l-2.17-1.38
		l-2.57-1.57c-0.29-0.17-0.58-0.35-0.86-0.51l-1.37-0.8c-0.24-0.14-0.48-0.27-0.72-0.41l-2.94-1.6l-5.41-2.69l-3-1.35l-2.18-0.93
		l-3.44-1.36l-2.92-1.05l-2.64-0.87l-2.72-0.83l-2.69-0.74l-3.58-0.87l-2.78-0.59l-3.03-0.53l-2.91-0.44l-2.94-0.34l-2.98-0.26
		l-2.91-0.16l-2.41-0.06c-0.32-0.01-0.66-0.01-1.02-0.01l-2.48,0.03l-3.02,0.13l-2.99,0.23l-2.9,0.31l-2.91,0.42l-2.9,0.51
		l-2.67,0.56l-2.66,0.66c-0.3,0.07-0.61,0.16-0.95,0.25l-2.13,0.62l-2.57,0.82l-2.42,0.87c-0.81,0.3-1.62,0.62-2.43,0.95l-0.21,0.09
		c-0.54,0.22-1.09,0.46-1.58,0.68l-1.14,0.5c-0.69,0.31-1.37,0.62-2.04,0.96l-0.33,0.16c-0.44,0.21-0.88,0.43-1.32,0.67l-1.68,0.88
		c-0.31,0.17-0.62,0.34-0.91,0.51l-1.14,0.65c-2.22,1.28-4.47,2.74-6.69,4.32c-4.6,3.28-8.94,7.05-12.9,11.21l-6.81,7.15l0.62,0
		c-4.14,5.26-7.86,11.05-11.09,17.31c-7.64,14.82-12.42,31.71-14.19,50.21c-1.75,18.41-0.45,37.59,3.86,57.02
		C1487.89,348.51,1494.98,367.11,1504.65,384.35z M1529.03,193.1c2-1.42,4.02-2.73,5.99-3.87l1.14-0.65
		c0.25-0.15,0.51-0.29,0.77-0.43l1.54-0.81c0.33-0.17,0.66-0.35,1-0.51l0.49-0.24c0.56-0.28,1.13-0.54,1.69-0.79l1.18-0.52
		c0.43-0.19,0.86-0.38,1.33-0.57l0.23-0.1c0.7-0.29,1.41-0.57,2.08-0.82l2.16-0.78l2.35-0.76l2.04-0.59
		c0.2-0.06,0.39-0.11,0.65-0.17l2.14-0.54l2.69-0.57l2.64-0.47l2.62-0.38l2.63-0.28l2.74-0.21l2.55-0.12l2.54-0.03
		c0.22,0,0.45,0,0.71,0.01l2.21,0.06l2.71,0.14l2.75,0.24l2.67,0.31l2.69,0.4l2.68,0.47l2.68,0.56l2.35,0.56l2.81,0.75l2.69,0.8
		l2.53,0.83l3.01,1.07l2.17,0.84l5.73,2.49l2.61,1.26l2.56,1.31l2.76,1.51c0.2,0.11,0.39,0.22,0.59,0.33l1.39,0.81
		c0.26,0.15,0.52,0.3,0.78,0.46l4.47,2.79c0.51,0.33,1.01,0.67,1.53,1.02l3.78,2.63l2.4,1.77l2.44,1.88l2.42,1.96l2.41,2.02
		l4.83,4.35c0.75,0.69,1.48,1.41,2.22,2.12l4,4.04l2.67,2.85l2.17,2.42l2.13,2.47l2.13,2.58l1.97,2.46l3.49,4.6
		c0.33,0.42,0.63,0.86,0.96,1.33l1.62,2.28l3.14,4.66c0.33,0.49,0.65,0.98,1,1.56l0.78,1.23c0.35,0.54,0.68,1.08,1.01,1.62l1.21,2
		c0.22,0.36,0.44,0.72,0.67,1.14l0.47,0.81c0.44,0.74,0.88,1.49,1.3,2.27l0.47,0.85c0.42,0.75,0.84,1.51,1.23,2.25l2.27,4.34
		c0.29,0.56,0.57,1.14,0.86,1.72l1.19,2.45l2.5,5.52c0.21,0.45,0.4,0.89,0.6,1.37l1.2,2.85l1.31,3.29l1.27,3.35l1.22,3.42l2.24,6.88
		l1.03,3.5l0.98,3.57l1.69,6.91l0.79,3.74l0.69,3.55l0.62,3.55l0.55,3.56l0.43,3.16l0.41,3.54l0.35,3.74
		c0.04,0.45,0.08,0.9,0.11,1.4l0.32,5.13l0.11,3.05c0.02,0.75,0.04,1.49,0.05,2.23l-0.08,8.21c0,0.15-0.01,0.29-0.02,0.48
		l-0.15,3.13c-0.01,0.18-0.01,0.35-0.03,0.59l-0.42,5.31c-0.04,0.54-0.1,1.08-0.17,1.66l-0.18,1.64c-0.06,0.52-0.12,1.03-0.19,1.52
		l-0.76,5.19l-0.49,2.82c-0.07,0.44-0.16,0.88-0.26,1.38l-1.04,4.89l-1.46,5.76l-1.63,5.44l-0.97,2.86
		c-0.33,0.94-0.66,1.85-1.03,2.82c-0.18,0.5-0.39,1.01-0.61,1.55l-1.63,3.94l-0.05,0.12c-0.35,0.81-0.71,1.61-1.11,2.44
		c-0.32,0.68-0.64,1.35-0.96,2.02l-0.28,0.56c-0.79,1.6-1.63,3.18-2.5,4.72l-1.48,2.55l-1.41,2.27l-0.48,0.74
		c-0.38,0.59-0.76,1.16-1.14,1.72c-0.46,0.67-0.92,1.33-1.38,1.98l-1.59,2.14l-1.55,1.97l-1.08,1.3c-0.27,0.34-0.56,0.68-0.87,1.02
		l-1.49,1.68l-1.84,1.96l-1.64,1.64l-1.38,1.31c-0.35,0.34-0.69,0.66-1,0.93l-0.3,0.27c-0.4,0.37-0.8,0.72-1.16,1.02l-1.37,1.14
		c-0.33,0.28-0.65,0.54-1.04,0.84l-1.47,1.14c-0.15,0.12-0.29,0.22-0.44,0.33l-1.14,0.83c-0.34,0.25-0.68,0.49-1.04,0.73l-0.61,0.42
		c-0.42,0.29-0.84,0.58-1.27,0.86l-1.32,0.82c-0.28,0.19-0.55,0.36-0.87,0.54l-1.21,0.71c-0.31,0.19-0.61,0.37-0.99,0.57l-0.97,0.53
		c-0.32,0.18-0.63,0.35-0.91,0.49l-1.75,0.87l-0.16,0.08c-0.12,0.07-0.25,0.13-0.34,0.17l-2.29,1.05l-2.17,0.9l-2.62,1.01
		c-2.45,0.88-4.96,1.63-7.51,2.26c3.67-5.61,6.55-10.41,9.84-17.68l0.88-2.1l0.39-0.9c1.55-3.92,2.88-7.68,4.19-11.81l0.97-3.31
		l0.83-3.13l0.63-2.61l0.16-0.61c0.97-4.4,1.74-8.55,2.42-13.07l0.05-0.39c0.33-2.54,0.57-4.53,0.78-6.5l0.3-3.37l0.02-0.26
		c0.65-9.63,0.61-18.39-0.12-28.4l-0.07-0.5c-0.08-0.47-0.26-2.35-0.26-2.83l-0.03-0.48c-0.27-2.37-0.56-4.69-0.87-7.04l-0.05-0.4
		c-1.18-7.7-2.64-14.87-4.59-22.55l-0.12-0.44l-0.02-0.04c-2.32-8.42-4.89-16.11-8.06-24.11l-0.33-0.86
		c-2.44-5.81-4.92-11.17-7.82-16.86l-0.34-0.64l-0.04-0.04c-1.25-2.29-2.69-4.65-4.08-6.93c-1.72-2.82-3.34-5.48-4.54-7.88
		l-0.25-0.43c-4.68-7.13-9.36-13.49-14.75-20l-0.27-0.3c-1.97-1.97-3.82-3.84-5.6-5.64c-15.34-15.49-25.47-25.73-49.04-36.38
		l-0.44-0.17c-0.45-0.15-1.64-0.65-2.27-0.96l-3.11-1.23l-2.96-1.07l-0.15-0.05c-2.96-0.97-5.74-1.81-8.76-2.63l-3.05-0.72
		l-3.02-0.64l-0.13-0.02c-3.77-0.67-7.22-1.14-11.07-1.5C1526.29,195.12,1527.65,194.08,1529.03,193.1z"/>
	<path d="M1199.09,323.32l0.14,3.1l0.29,4.24l0.16,1.84c0.08,1.01,0.18,2.02,0.29,3.05l0.74,6.12c0.07,0.54,0.15,1.07,0.23,1.57
		l0.74,4.69c0.19,1.12,0.38,2.24,0.6,3.37l0.23,1.18c0.1,0.55,0.21,1.1,0.32,1.62l0.67,3.18l0.88,3.85l0.96,3.82l1.03,3.79
		l2.25,7.45l1.21,3.64l1.3,3.67l2.51,6.49c0.08,0.21,0.17,0.43,0.26,0.64l1.48,3.54l2.97,6.56l3.22,6.49
		c0.29,0.57,0.59,1.13,0.87,1.65l0.93,1.75c0.31,0.57,0.61,1.13,0.89,1.6l0.82,1.48c0.33,0.6,0.68,1.21,1.01,1.76l1.04,1.77
		l2.05,3.39c0.24,0.38,0.48,0.77,0.71,1.13l3.15,4.84l1.89,2.77l0.06,0.08c0.33,0.47,0.66,0.94,0.99,1.4l3.51,4.78l2.23,2.87
		l2.32,2.87l2.24,2.67l2.3,2.63l2.45,2.69l5.34,5.64l0.08-0.08l1.92,1.87l2.5,2.35l2.4,2.15l2.77,2.38l2.6,2.14l2.67,2.1l5.62,4.23
		l0.07-0.07l2.37,1.63l1.38,0.9c0.58,0.39,1.17,0.76,1.72,1.11l2.27,1.39l2.85,1.69l2.91,1.62l5.94,3.02l2.63,1.21l3.23,1.4
		l2.18,0.89l3.63,1.36l2.53,0.85c0.52,0.19,1.05,0.36,1.58,0.51l1.4,0.44c0.4,0.13,0.79,0.24,1.19,0.35l5.01,1.32l2.94,0.66
		l2.98,0.58l3.1,0.51c0.76,0.12,1.52,0.22,2.22,0.3l0.62,0.08c0.49,0.06,0.97,0.12,1.46,0.16l1.44,0.15
		c0.48,0.04,0.97,0.08,1.43,0.11l1.24,0.09c0.47,0.03,0.94,0.06,1.46,0.09l2.71,0.09l2.37,0.02c0.47,0,0.96-0.01,1.47-0.02
		l-0.51,0.6l7.14-0.91v0.15l7.18-1.13c0.41-0.07,0.82-0.14,1.22-0.22l5.17-1.09l2.63-0.69l2.76-0.81l3.18-1.07
		c0.21-0.07,0.41-0.14,0.6-0.22l1.61-0.6c0.79-0.3,1.57-0.62,2.33-0.94l0.41-0.17c0.57-0.24,1.15-0.5,1.66-0.74l1.06-0.48
		c0.61-0.28,1.2-0.56,1.75-0.84l0.73-0.36c0.8-0.4,1.59-0.82,2.36-1.24c0.68-0.37,1.36-0.75,2.04-1.15l0.58-0.35
		c0.39-0.22,0.78-0.46,1.19-0.71l3.61-2.33l2.39-1.7c0.57-0.4,1.12-0.82,1.63-1.21l0.49-0.37c0.61-0.46,1.21-0.94,1.81-1.45
		l0.58-0.47c0.18-0.14,0.35-0.29,0.53-0.45l2.08-1.8c0.43-0.38,0.85-0.77,1.28-1.17l0.46-0.43c0.53-0.49,1.04-0.99,1.56-1.52
		l0.64-0.62c0.34-0.35,0.68-0.69,1.05-1.07l2.92-3.16c0.41-0.45,0.8-0.9,1.16-1.33l2.87-3.51l1.82-2.4l1.7-2.37l3.29-5.02l1.56-2.61
		l1.52-2.68l1.45-2.71l1.37-2.74l1.31-2.8l1.12-2.55l1.33-3.23l1.17-3.07l2.03-5.94l0.97-3.23l0.4-1.45
		c0.19-0.65,0.38-1.33,0.56-2.04l0.19-0.76c0.23-0.86,0.45-1.73,0.65-2.62l0.6-2.66l0.4-1.96c0.13-0.58,0.25-1.17,0.36-1.76
		l0.28-1.58c0.12-0.6,0.22-1.2,0.32-1.8l0.14-0.81c0.14-0.9,0.29-1.81,0.42-2.75l0.06-0.48c0.14-0.94,0.26-1.88,0.37-2.81l0.32-2.77
		l0.56-6.71l0.16-3.13l0.13-3.41l0.05-4.28l-0.12-6.33l-0.22-4.57l-0.26-3.66l-0.3-3.45l-0.88-7.34l-0.01-1.49l-0.26-0.26l-1-6.14
		l-0.51-2.73l-1.89-8.64l-0.92-3.68l-1.04-3.79c-0.53-1.92-1.12-3.89-1.8-6l-0.43-1.38c-0.78-2.4-1.53-4.61-2.31-6.74
		c-0.43-1.18-0.86-2.35-1.31-3.5l-0.17-0.44c-0.18-0.46-0.35-0.92-0.53-1.35l-1.18-2.92c-0.1-0.24-0.2-0.48-0.28-0.67l-2.44-5.63
		l-2.84-6c-0.32-0.65-0.65-1.29-0.98-1.96l-1.05-2.05c-0.26-0.49-0.51-0.97-0.77-1.46l-2.3-4.19c-0.59-1.05-1.18-2.08-1.77-3.08
		c-0.49-0.84-0.98-1.68-1.49-2.51l-0.44-0.71c-0.46-0.76-0.93-1.51-1.41-2.26l-0.59-0.94c-0.66-1.03-1.33-2.05-1.99-3.04
		c-0.62-0.92-1.24-1.85-1.86-2.73l-0.31-0.45c-0.46-0.65-0.91-1.29-1.35-1.9l-2.86-3.91c-0.61-0.82-1.24-1.64-1.84-2.39l-2.92-3.65
		l-2.21-2.64l-2.3-2.64l-0.1-0.12c-0.5-0.57-1.01-1.14-1.48-1.63l-3.22-3.46l-2.29-2.33c-0.83-0.83-1.66-1.65-2.48-2.44l-2.59-2.43
		c-0.84-0.77-1.69-1.53-2.54-2.29l-1.21-1.08h-0.03c-0.43-0.38-0.87-0.75-1.3-1.12l-0.17-0.14c-0.86-0.73-1.72-1.44-2.61-2.16
		l-2.48-1.97l-1.2-0.92c-0.57-0.44-1.12-0.86-1.71-1.3l-2.41-1.76l-2.74-1.9l-2.07-1.37c-0.25-0.17-0.5-0.33-0.75-0.49l-4.69-2.9
		c-0.45-0.27-0.91-0.54-1.37-0.8l-4.17-2.31c-0.31-0.18-0.62-0.34-0.94-0.5l-5.55-2.73l-2.9-1.29l-2.93-1.22l-2.12-0.82
		c-0.29-0.12-0.58-0.23-0.88-0.34l-5.63-1.93l-2.75-0.82l-3-0.81l-3.42-0.81l-2.46-0.51c-0.5-0.11-0.99-0.2-1.39-0.26l-4.74-0.76
		l-3.45-0.4l-2.66-0.23c-0.42-0.04-0.83-0.06-1.17-0.07l-1.72-0.08c-0.32-0.02-0.63-0.04-0.95-0.05l-2.74-0.05l-2.82,0.03
		c-0.43,0.01-0.86,0.02-1.27,0.04l-0.99,0.05c-0.52,0.02-1.04,0.05-1.64,0.09l-5,0.47l-3.36,0.47l-3.02,0.53l-2.88,0.61l-2.7,0.66
		l-2.81,0.78l-2.53,0.79l-0.22,0.08c-0.29,0.09-0.57,0.19-0.8,0.27l-2.24,0.8l-2.33,0.91l-3,1.29l-2.62,1.23l-2.63,1.35l-2.39,1.33
		l-2.51,1.5l-2.53,1.63l-1.97,1.36c-0.5,0.34-0.99,0.71-1.48,1.07l-0.9,0.67c-0.71,0.53-1.41,1.08-2.05,1.6
		c-0.72,0.57-1.41,1.15-2.11,1.75l-0.27,0.23c-0.56,0.47-1.11,0.95-1.65,1.45l-0.62,0.55c-0.5,0.46-1.01,0.93-1.47,1.39l-0.79,0.75
		c-0.42,0.41-0.85,0.83-1.27,1.27l-6.83,7.16l0.41,0c-0.01,0.01-0.01,0.02-0.02,0.02l-0.16,0.18c-0.57,0.7-1.13,1.41-1.61,2.05
		l-2.19,2.93l-1.7,2.45l-1.66,2.54l-1.61,2.61l-1.54,2.64l-1.51,2.79l-1.36,2.65l-1.34,2.81l-1.28,2.87l-1.27,3.03l-0.72,1.83
		l-1.5,4.08l-1.04,3.13l-0.93,3.01l-0.68,2.41l-0.67,2.48c-0.15,0.52-0.27,1.04-0.4,1.57l-0.55,2.34c-0.11,0.45-0.21,0.91-0.31,1.36
		l-0.21,0.96c-0.17,0.77-0.33,1.54-0.48,2.34l-0.24,1.29c-0.13,0.64-0.25,1.29-0.36,1.96l-0.48,2.98l-0.36,2.54
		c-0.07,0.46-0.13,0.92-0.17,1.31l-0.35,2.96c-0.03,0.27-0.07,0.54-0.09,0.78l-0.25,2.71l-0.27,3.56l-0.19,3.55l-0.12,3.56
		l-0.05,3.34l0.03,3.84L1199.09,323.32z M1248.34,220.84l0.91-0.68c0.4-0.3,0.8-0.59,1.21-0.87l1.82-1.25l2.21-1.43l2.28-1.36
		l2.22-1.24l2.37-1.22l2.4-1.14l2.14-0.93l2.63-1.04l2.24-0.8c0.18-0.07,0.35-0.12,0.54-0.18l2.23-0.71l2.54-0.72l2.65-0.65
		l2.62-0.55l2.73-0.48l2.23-0.32l3.03-0.35l2.44-0.2c0.46-0.03,0.92-0.06,1.42-0.08l1.02-0.05c0.35-0.02,0.7-0.03,1.06-0.04
		l2.54-0.03l2.5,0.05c0.22,0.01,0.44,0.02,0.75,0.04l1.9,0.09c0.25,0.01,0.5,0.02,0.76,0.05l2.51,0.22l2.7,0.3l2.79,0.4l2.23,0.39
		c0.3,0.04,0.59,0.1,0.96,0.18l2.38,0.49l2.69,0.62l2.59,0.68l2.73,0.81l2.97,0.95l2.75,0.98c0.21,0.08,0.42,0.15,0.62,0.24
		l2.12,0.82l2.74,1.14l2.56,1.14l2.78,1.33l2.6,1.32c0.05,0.02,0.1,0.05,0.15,0.08l4.73,2.61c0.39,0.22,0.78,0.45,1.16,0.68
		l4.43,2.74c0.18,0.12,0.36,0.23,0.61,0.4l2.05,1.36l2.58,1.79l2.31,1.68c0.51,0.38,1.02,0.76,1.56,1.18l3.54,2.78
		c0.84,0.68,1.67,1.37,2.51,2.08l0.15,0.12c0.74,0.64,1.48,1.27,2.21,1.92l1.18,1.17h0.13c0.41,0.37,0.82,0.74,1.22,1.11l2.45,2.3
		c0.8,0.77,1.59,1.55,2.36,2.32l2.19,2.23l2.29,2.43l0.83,0.91c0.48,0.51,0.95,1.03,1.4,1.55l2.05,2.36l2.32,2.75l2.11,2.62
		l0.68,0.88c0.58,0.74,1.16,1.49,1.72,2.23l1.71,2.31l1.07,1.5c0.43,0.6,0.86,1.2,1.26,1.77l0.3,0.44c0.6,0.87,1.2,1.74,1.79,2.63
		c0.64,0.95,1.27,1.91,1.88,2.86l0.58,0.92c0.45,0.71,0.9,1.42,1.34,2.15l0.44,0.72c0.47,0.77,0.93,1.55,1.4,2.36
		c0.57,0.97,1.14,1.94,1.69,2.93l2.22,4.05c0.24,0.46,0.49,0.92,0.71,1.33l1.05,2.04c0.31,0.61,0.62,1.23,0.91,1.81l1.29,2.67
		l2.92,6.44l1.15,2.74c0.09,0.22,0.18,0.44,0.28,0.66l0.86,2.16c0.17,0.42,0.33,0.83,0.49,1.25l0.18,0.46
		c0.43,1.1,0.84,2.21,1.25,3.33c0.74,2.03,1.46,4.14,2.2,6.41l0.43,1.36c0.65,2.03,1.21,3.9,1.71,5.7l0.81,2.98l1.07,4.22l0.85,3.65
		l0.54,2.5l1.53,8.33l0.56,3.7l0.46,3.48l0.38,3.38l0.59,7.22l0.18,3.37l0.14,6.84l-0.01,1.86l-0.29,8.25l-0.25,3.51l-0.2,2.32
		l-0.41,3.57c-0.09,0.85-0.21,1.69-0.34,2.61l-0.07,0.51c-0.12,0.85-0.25,1.68-0.38,2.51l-0.13,0.78c-0.08,0.52-0.17,1.05-0.29,1.64
		l-0.27,1.54c-0.1,0.5-0.19,1.01-0.3,1.5l-0.99,4.57c-0.18,0.77-0.37,1.54-0.6,2.39l-0.2,0.81c-0.15,0.57-0.3,1.16-0.49,1.79
		l-1.29,4.42l-0.92,2.8l-2.07,5.65l-1.1,2.69l-1.19,2.7l-1.23,2.62l-1.26,2.53l-1.35,2.52l-1.42,2.5l-1.36,2.27l-1.4,2.22
		l-1.72,2.54l-1.32,1.85l-1.93,2.56l-1.42,1.78l-1.28,1.52c-0.32,0.38-0.64,0.75-0.98,1.12l-1.52,1.69l-1.22,1.28
		c-0.31,0.31-0.61,0.63-0.88,0.9l-0.71,0.69c-0.42,0.44-0.84,0.84-1.28,1.25l-0.6,0.55c-0.32,0.32-0.65,0.61-0.96,0.88l-2.22,1.93
		c-0.03,0.03-0.06,0.06-0.1,0.08l-0.72,0.59c-0.5,0.42-1.01,0.83-1.55,1.24l-0.56,0.43c-0.42,0.33-0.84,0.65-1.32,0.98l-1.27,0.92
		l-4.3,2.84c-0.3,0.19-0.61,0.37-0.98,0.58l-0.63,0.37c-0.59,0.35-1.19,0.69-1.82,1.03c-0.69,0.38-1.4,0.75-2.06,1.08l-0.74,0.36
		c-0.5,0.26-1.01,0.49-1.48,0.71l-1.08,0.49c-0.45,0.21-0.89,0.41-1.36,0.6l-0.45,0.19c-0.68,0.29-1.35,0.57-2.02,0.82l-1.61,0.6
		c-0.14,0.05-0.28,0.1-0.42,0.15l-2.2,0.75l-2.73,0.83l-1.09,0.29c0.37-0.54,0.73-1.07,1.09-1.61l0.21-0.33
		c3.95-6.22,7.08-12.11,10.13-19.06l1.27-3.1c2.38-6.25,4.19-12.02,5.88-18.73l0.07-0.36c0.4-2.5,0.87-4.93,1.32-7.28
		c0.76-3.99,1.55-8.11,2.07-12.67l0.34-3.53l0.01-0.11c0.7-9.84,0.7-18.75-0.02-28.86l-0.36-4.02c-0.31-2.71-0.58-5-0.87-7.17
		l-0.05-0.38c-1.38-9.11-3.17-17.58-5.63-26.67l-1.14-3.85c-1.87-5.96-3.82-11.5-6.12-17.35l-0.33-0.86
		c-2.5-5.95-5.02-11.39-7.92-17.07l-0.07-0.14c-1.76-3.3-3.53-6.46-5.4-9.69l-0.26-0.4c-0.98-1.31-2.15-3.26-3.29-5.14
		c-0.74-1.22-1.5-2.48-2.22-3.58l-0.21-0.32c-4.94-7.2-9.84-13.52-15.4-19.91l-2.46-2.7c-3.19-3.39-6.4-6.6-9.83-9.84l-0.38-0.32
		c-1.28-0.95-5.91-4.97-7.19-6.23l-0.35-0.31c-1.76-1.39-3.49-2.74-5.26-4.1l-2.73-1.99l-0.16-0.11c-4.54-3.16-8.55-5.43-12.79-7.82
		c-2.15-1.22-4.38-2.48-6.69-3.87l-3.17-1.54l-0.41-0.19l-0.05-0.01c-8.2-3.64-15.31-6.05-23.7-8.02l-3.01-0.62l-0.24-0.05
		c-4.26-0.74-8.05-1.23-12.29-1.58l-0.35-0.01c-0.02,0-0.05,0-0.07,0C1247.55,221.44,1247.94,221.14,1248.34,220.84z"/>
	<path d="M909.25,346.59l0.06,2.57c0.02,0.68,0.04,1.35,0.07,2.03l0.04,1.05c0.05,1.13,0.12,2.26,0.19,3.4l0.37,4.72
		c0.03,0.42,0.07,0.84,0.12,1.33l0.31,2.98c0.06,0.51,0.12,1.02,0.19,1.54l0.15,1.2c0.19,1.5,0.4,3.02,0.63,4.52
		c0.13,0.87,0.27,1.73,0.41,2.6c0.27,1.65,0.58,3.35,0.94,5.21c0.17,0.88,0.34,1.75,0.53,2.61c0.14,0.69,0.29,1.39,0.44,2.08
		l0.12,0.53c0.27,1.23,0.56,2.47,0.87,3.78l0.99,3.93c0.18,0.69,0.37,1.39,0.56,2.05l0.49,1.77c0.7,2.48,1.48,5.01,2.3,7.51
		c0.4,1.24,0.82,2.47,1.25,3.71c0.28,0.79,0.55,1.58,0.83,2.32l0.69,1.88c0.27,0.73,0.55,1.46,0.82,2.17l1.8,4.53
		c0.5,1.19,0.99,2.37,1.5,3.52c0.34,0.79,0.69,1.58,1.03,2.31l2.57,5.52c0.31,0.66,0.64,1.32,0.95,1.92l0.46,0.93
		c1.22,2.41,2.56,4.92,3.99,7.48l1.55,2.71c0.44,0.76,0.88,1.51,1.31,2.21l0.48,0.82c0.35,0.59,0.71,1.17,1.07,1.74l1.13,1.81
		c0.62,1,1.27,2,1.91,2.96c0.71,1.09,1.43,2.17,2.16,3.22c0.51,0.75,1.04,1.51,1.56,2.24l0.93,1.31l4.38,5.85
		c0.62,0.8,1.24,1.58,1.88,2.37l0.49,0.61c0.23,0.29,0.47,0.59,0.72,0.88l1.62,1.95c0.81,0.97,1.63,1.92,2.45,2.85
		c0.83,0.95,1.66,1.88,2.49,2.78l0.34,0.38c0.72,0.77,1.43,1.54,2.15,2.29l2.86,2.94l2.57,2.53l2.64,2.49l2.64,2.4l2.67,2.32
		l2.79,2.32l2.6,2.07l2.97,2.27l1.77,1.29l3.88,2.73l2.33,1.55l2.57,1.64l3.89,2.35l2.98,1.69l1.99,1.07l4.03,2.06l3.03,1.45
		l3.1,1.38l2.93,1.22l5.9,2.2l2.03,0.69l3.97,1.23c0.48,0.15,0.98,0.3,1.39,0.39l2.43,0.66l2.97,0.72l2.84,0.6
		c0.56,0.12,1.11,0.23,1.65,0.32l0.85,0.15c0.63,0.13,1.28,0.23,1.98,0.35l2.59,0.4l5.99,0.65l3.29,0.22l3.01,0.12
		c0.65,0.02,1.29,0.03,1.88,0.02l-0.28,0.32l2.52-0.32c0.15,0,0.31,0,0.47-0.01l1.59-0.05c0.5-0.01,1-0.03,1.46-0.06l1.01-0.06
		c0.67-0.02,1.34-0.08,2.03-0.13l2.1-0.19l0.67-0.71l2.17-0.33l0.8-0.14c0.14-0.03,0.28-0.05,0.35-0.07l1.79-0.35l2.81-0.61
		c0.5-0.11,0.99-0.23,1.53-0.36l1.93-0.51l2.85-0.83l2.81-0.92l2.78-1.01c0.37-0.14,0.75-0.29,1.12-0.45l6.71-3.34l2.64-1.4
		l2.51-1.42l2.57-1.58l2.42-1.59l2.46-1.73l2.33-1.75l2.33-1.87l2.24-1.92l2.22-2.02l2.14-2.06l2.07-2.11l2.07-2.25l1.97-2.26
		l1.89-2.31l1.88-2.43l1.78-2.43l1.76-2.54l1.67-2.57l1.64-2.67l1.59-2.76l0.12-0.22l0.18,0.19l2-4.2l0.67-1.23l-0.05-0.05
		l1.34-2.82l1.3-2.91l1.28-3.06l1.15-2.92l1.12-3.08l1.06-3.17l0.95-3.05l0.03-0.11l0.09-0.05l1.64-6.29l0.8-3.4l0.69-3.23
		l0.64-3.41l0.56-3.32l0.51-3.52l0.43-3.51l0.35-3.48l0.28-3.54l0.21-3.58l0.13-3.6l0.06-3.64l-0.02-3.63l-0.09-3.67l-0.16-3.62
		l-0.26-3.82l-0.33-3.78l-0.4-3.78l-0.48-3.77l-0.57-3.83l-0.62-3.75l-0.74-3.92l-0.81-3.84l-0.88-3.86l-0.96-3.83l-1.03-3.81
		l-1.09-3.73l-1.18-3.75l-1.23-3.66l-1.31-3.66l-1.36-3.6l-1.41-3.54l-2.55-6.07H1142l-2.04-4.42l-1.66-3.39l-1.72-3.35l-1.78-3.31
		l-1.85-3.28l-1.88-3.2l-1.95-3.18l-1.98-3.1l-2.06-3.09l-2.09-3.02l-2.14-2.97l-2.17-2.88l-2.23-2.85l-2.28-2.81l-2.32-2.74
		l-2.38-2.7l-2.39-2.61l-2.46-2.58l-2.47-2.49l-2.51-2.42l-2.57-2.4l-2.51-2.25l-2.72-2.32l-9.53-7.85v0.44l-4.08-2.84l-2.82-1.85
		l-2.75-1.72l-2.85-1.69l-3-1.68l-2.88-1.52l-2.87-1.44l-2.91-1.38l-3.1-1.35l-8.73-3.59v0.27l-3.26-1.05l-3.01-0.88l-3.07-0.8
		l-3.13-0.72l-3.05-0.61l-3.13-0.54l-3.09-0.43l-3.12-0.35l-3.17-0.26l-3.13-0.16l-3.19-0.06l-1.81,0.02
		c-2.23,0.05-4.54,0.18-6.89,0.4c-16.14,1.5-31,6.87-44.16,15.98c-3.44,2.38-6.79,5.05-10.02,7.98l-1.82,1.71
		c-0.12,0.11-0.23,0.22-0.35,0.33l-3.01,0.22l-0.98,1.03c-0.13,0.13-0.25,0.26-0.37,0.39l-1.84,2.02c-0.68,0.76-1.35,1.53-1.95,2.26
		c-0.54,0.64-1.08,1.3-1.59,1.94l-2.5,3.24l-1.85,2.56l-1.73,2.56c-0.54,0.83-1.08,1.67-1.6,2.51c-0.55,0.88-1.09,1.77-1.62,2.68
		l-0.11,0.17c-0.51,0.89-1.03,1.8-1.53,2.74l-1.53,2.86l-1.41,2.84c-0.47,0.95-0.92,1.93-1.38,2.95l-1.33,3.04l-1.22,3l-0.14,0.38
		c-0.35,0.89-0.68,1.79-1.03,2.73l-1.08,3.08c-0.07,0.2-0.14,0.4-0.18,0.53l-0.73,2.27c-0.09,0.26-0.17,0.51-0.23,0.73l-0.36,1.22
		c-0.23,0.73-0.44,1.46-0.63,2.19l-0.78,2.87l-0.54,2.19l-0.84,3.66l-0.57,2.81c-0.13,0.6-0.25,1.21-0.37,1.84l-0.41,2.35
		l-0.44,2.81c-0.12,0.73-0.23,1.47-0.31,2.15l-0.13,0.91c-0.12,0.89-0.22,1.78-0.31,2.6l-0.57,5.95l-0.38,6.79l-0.1,3.95
		c-0.01,0.64-0.02,1.27-0.02,1.94l0.01,1.02C909.23,345.36,909.24,345.94,909.25,346.59z M963.96,245.8
		c11.95-8.26,25.45-13.14,40.11-14.5c2.17-0.2,4.23-0.32,6.25-0.36l1.64-0.02l2.86,0.05l2.86,0.14l2.92,0.24l2.88,0.32l2.82,0.39
		l2.9,0.5l2.83,0.57l2.89,0.66l2.83,0.74l2.8,0.82l2.84,0.91l2.8,0.98l2.89,1.1l2.67,1.09l2.85,1.25l2.72,1.28l2.74,1.37l2.71,1.44
		l2.79,1.56l2.67,1.58l2.63,1.64l2.67,1.75l2.63,1.8l2.57,1.85l2.58,1.94l2.65,2.09l4.99,4.18l2.41,2.16l2.45,2.29l2.39,2.31
		l2.35,2.37l2.34,2.46l2.28,2.49l2.27,2.58l2.21,2.61l2.17,2.68l2.13,2.73l2.07,2.75l2.04,2.83l2,2.89l1.97,2.96l1.89,2.97
		l1.87,3.05l1.79,3.07l1.77,3.15l1.7,3.17l1.64,3.21l1.58,3.25l1.55,3.33l1.51,3.41l1.4,3.31l1.35,3.4l1.3,3.46l1.25,3.51l1.17,3.5
		l1.12,3.59l1.04,3.57l0.99,3.65l0.92,3.66l0.84,3.7l0.77,3.69l0.7,3.69l0.6,3.63l0.55,3.67l0.46,3.59l0.38,3.61l0.31,3.62
		l0.25,3.59l0.15,3.49l0.09,3.51l0.02,3.45l-0.06,3.45l-0.12,3.41l-0.21,3.41l-0.26,3.38l-0.33,3.29l-0.41,3.32l-0.47,3.28
		l-0.54,3.19l-0.6,3.18l-0.66,3.09l-0.75,3.17l-0.67,2.59l-0.98,3.48l-0.91,2.91l-0.98,2.93l-1.04,2.87l-1.1,2.78l-1.19,2.84
		l-1.22,2.73l-1.05,2.2l-1.59,3.11l-1.34,2.47l-1.46,2.53l-1.52,2.49l-1.54,2.37l-1.62,2.35l-1.64,2.25l-1.74,2.25l-1.73,2.11
		l-1.82,2.09l-1.88,2.06l-1.9,1.94l-1.95,1.88l-2.05,1.86l-2.03,1.75l-2.12,1.7l-2.11,1.59l-2.23,1.57l-2.21,1.45l-2.32,1.43
		l-2.31,1.31l-2.43,1.3l-6.34,3.16c-0.19,0.08-0.39,0.16-0.62,0.25l-2.02,0.74l-2.48,0.83l-2.77,0.83l-0.48,0.13
		c1.62-2.31,3.22-4.76,4.87-7.46l0.2-0.37c0.19-0.39,0.43-0.83,0.69-1.3l1.2-2.04l1.53-2.77l1.49-2.86l1.39-2.85l1.34-2.93
		l1.28-3.01l1.22-3.06l1.13-3.07l1.07-3.11l1.01-3.19l0.94-3.25l0.86-3.24l0.8-3.34l0.73-3.35l0.66-3.37l0.58-3.43l0.52-3.48
		l0.12-0.99h0.06l0.62-6.06l0.28-3.6l0.22-3.61l0.14-3.65l0.06-3.66l-0.02-3.68l-0.1-3.73l-0.18-3.75l-0.25-3.77l-0.34-3.82
		l-0.41-3.82l-0.5-3.82l-0.59-3.88l-0.67-3.88l-0.74-3.87l-0.83-3.9l-0.92-3.91l-0.99-3.88l-0.06-0.21h0.1l-2.22-7.41l-1.21-3.79
		l-1.26-3.71l-1.35-3.72l-1.4-3.65l-1.46-3.59l-1.54-3.57l-1.33-2.94h0.11l-3.75-7.54l-1.77-3.39l-1.84-3.34l-1.9-3.33l-1.94-3.25
		l-2.02-3.21l-1.77-2.74c-0.01-0.02-0.02-0.03-0.03-0.05l-0.26-0.45c-5.61-8.43-11.28-15.84-17.84-23.3l-2.52-2.76
		c-5.84-6.13-11.55-11.44-17.94-16.71l-0.25-0.21c-1.8-1.42-3.58-2.79-5.42-4.18l-0.36-0.24c-0.76-0.46-4.25-2.92-5.05-3.56
		l-0.33-0.24c-5.97-3.91-11.36-7.01-17.47-10.06l-0.33-0.15c-1.94-0.91-3.81-1.76-5.72-2.6l-3.06-1.25l-0.19-0.07
		c-6.36-2.41-12.08-4.15-18.53-5.64l-3.1-0.62l-0.24-0.05c-4.35-0.75-8.26-1.24-12.65-1.59l-0.34-0.01c-0.25,0-0.5,0-0.75,0
		C961.81,247.33,962.88,246.55,963.96,245.8z"/>
</g>
<g>
	<polygon class="fillpulse" points="1224.06,2178.54 1287.26,2436.33 1338.45,2423.53 1275.26,2165.74 	"/>
	<polygon class="fillpulse" points="1746.04,2345.16 1685.22,2093.44 1280.81,2164.57 1343.99,2422.31 	"/>
</g>
</svg>