<svg height="960" viewBox="0 0 960 960" width="960" xmlns="http://www.w3.org/2000/svg"><g fill="none" fill-rule="evenodd" stroke="#000" stroke-linecap="round" stroke-linejoin="round"><path d="m480 135c252.946415 0 458 85.065898 458 190 0 72.024809-96.604709 134.689323-238.993444 166.910725l-.00618 26.93936c68.265886 27.166131 117.87827 73.575131 144.538633 111.329229 5.701524 8.074004 8.696713 20.309595 10.83572 31.51266l.01031-.002019c3.376484 7.919622 5.184893 16.049792 5.294621 24.338875l.000487.21817.091256.191764c.066531.136484.133901.267442.202163.392729.078662.144374-.018237.303375-.290696.477001-.651419 82.716844-170.456299 149.691506-379.82729 149.691506-209.773981 0-379.829392-67.23273-379.829392-150.168507l.050887-2.48331c.333265-8.126517 2.299295-16.096112 5.774045-23.859744 2.130013-10.867043 5.111456-22.523094 10.609626-30.309125 26.660363-37.754098 76.272747-84.163098 144.538632-111.329229l-.006573-26.939504c-142.388385-32.221445-238.992805-94.885879-238.992805-166.910581 0-104.934102 205.053585-190 458-190z" stroke-width="40"/><g stroke-width="20"><path d="m687.003057 486.21201-.003057 69.638289c0 35.981186-92.229342 65.149701-206 65.149701-112.632952 0-204.153259-28.588061-205.972402-64.072331l-.027598-1.07737-.001016-68.429648c60.567619 14.404624 129.870601 22.579349 203.501016 22.579349 75.665513 0 146.761074-8.632859 208.503057-23.78799z"/><ellipse cx="480" cy="320.529326" rx="458.049853" ry="184.5"/></g></g></svg>