<svg id="Layer_1" data-name="Layer 1" xmlns="http://www.w3.org/2000/svg"
     viewBox="0 0 1417.32 1104.97">
  <title>Fibaro Button</title>
  <path
    d="M1401.69,247.76c-9.87-20.81-24.48-41.15-43.41-60.46-36.35-37.08-88-70.21-153.55-98.48C1140,60.9,1064.78,39,981.12,23.74,894.79,8,803.12,0,708.66,0S522.54,8,436.21,23.74C352.54,39,277.31,60.9,212.59,88.82,147.05,117.09,95.39,150.22,59,187.3,40.1,206.61,25.5,227,15.63,247.76,5.26,269.63,0,292.21,0,314.89c0,30.34,9.33,60.22,27.73,88.82,17.27,26.84,42.52,52.47,75,76.17,60.3,43.95,145,80.79,245.62,106.88V607c-6.83,3.51-13.17,7.12-19,10.82h-1.75l-3.5,1.82C288.84,638,245.51,667.73,205.3,701.29c-19,15.83-64.56,55.58-78.35,82.78-13.36,26.34-16.59,60.12-17.32,77.9l0,.65,0,.65.37,9.49,0,.54.06.54c3.6,33.78,23.09,65.85,57.93,95.32,32,27.07,76,51.18,130.87,71.64C409.77,1082.18,555.3,1105,708.66,1105s298.89-22.79,409.78-64.17c54.83-20.46,98.87-44.56,130.87-71.64,34.85-29.47,54.34-61.54,57.93-95.32l.06-.54,0-.55.36-9.49,0-.64,0-.64c-.73-17.79-4-51.56-17.32-77.9-13.8-27.2-59.39-66.95-78.35-82.78-40.18-33.54-83.46-63.28-118.78-81.62-1.37-.74-13.54-7.25-24.3-12.69V586.76c100.6-26.08,185.32-62.93,245.62-106.88,32.52-23.7,57.76-49.33,75-76.17,18.4-28.6,27.72-58.48,27.72-88.82C1417.32,292.21,1412.06,269.63,1401.69,247.76ZM369.1,578.33c96.14,23.3,204.18,36.39,316.81,37.94H687l9,.09,2.27,0q5.16,0,10.34,0t10.34,0l2.27,0,9-.09h1.11c112.64-1.55,220.67-14.64,316.81-37.94V617.2l-.37.82.37.17v50.69c0,25.87-35.57,51.69-97.58,70.86-64.57,20-150.51,30.95-242,30.95s-177.41-11-242-30.95c-62-19.17-97.58-45-97.58-70.86ZM1051.67,568c-97.3,24.08-207.52,37.53-320.12,39.14h-.88l-9.31.1-2.28,0q-5.21,0-10.42,0t-10.42,0l-2.28,0-9.31-.1h-.88C573.17,605.57,463,592.12,365.65,568L360,566.64v.07c-50.21-12.72-97-28.28-139.23-46.51-63.05-27.2-112.5-58.82-147-94-35.25-36-53.12-74-53.12-113.1S38.57,236,73.82,200c34.47-35.15,83.91-66.77,147-94C351,49.89,524.29,19,708.66,19s357.63,30.94,487.87,87.13c63.05,27.2,112.5,58.82,147,94,35.25,36,53.12,74,53.12,113.1s-17.87,77.15-53.12,113.1c-34.46,35.15-83.91,66.77-147,94-42.24,18.22-89,33.79-139.23,46.51v-.07ZM360,622.54v46.34c0,30.57,36.93,58.82,104,79.54,65.42,20.22,152.3,31.35,244.66,31.35s179.24-11.13,244.66-31.35c67.06-20.72,104-49,104-79.54V622.55c38.26,19.16,58.42,40.68,58.42,62.57,0,31.36-42.77,62.56-117.36,85.61-77.32,23.9-180.21,37.06-289.71,37.06S496.27,794.63,419,770.73c-74.58-23-117.35-54.25-117.35-85.61C301.6,663.25,321.75,641.71,360,622.54Zm931.17,249.59c-12.83,120.51-268.7,216.68-582.52,216.68S139,992.64,126.14,872.13l-.37-9.49a247.59,247.59,0,0,1,3.32-31.51C151.63,884.59,222,933.34,327.3,968.46c106,35.36,241.47,54.83,381.36,54.83,140.7,0,276.72-19.67,383-55.39,104.46-35.1,174.09-83.58,196.55-136.75a247.62,247.62,0,0,1,3.31,31.49ZM1276,791.38a120.67,120.67,0,0,1,8.44,22.44l-3.67,11.69c-20.4,51.54-88.55,99-191.94,133.79-105.39,35.41-240.39,54.92-380.13,54.92-138.94,0-273.36-19.31-378.48-54.37-103.08-34.38-171.58-81.48-192.9-132.65l-4.37-13.36a120.7,120.7,0,0,1,8.44-22.46c16.34-32.22,99.54-104.49,169.79-146-12.3,12.68-18.63,26-18.63,39.76,0,36.14,44,69.63,123.76,94.29,78.17,24.16,182,37.46,292.39,37.46s214.23-13.3,292.39-37.46c79.81-24.66,123.76-58.15,123.76-94.29,0-13.7-6.31-27.06-18.59-39.73C1176.46,686.92,1259.62,759.17,1276,791.38Z"/>
</svg>
