<svg height="960" viewBox="0 0 960 960" width="960" xmlns="http://www.w3.org/2000/svg"><g fill="none" fill-rule="evenodd" stroke="#000" stroke-linejoin="round"><path d="m480.5 818.590909c186.119961 0 337-150.880039 337-337s-150.880039-337-337-337-337 150.880039-337 337 150.880039 337 337 337z" stroke-linecap="round" stroke-width="40"/><path d="m479.454545 749.590909c148.012314 0 268-119.987687 268-268s-119.987686-268-268-268c-148.012313 0-268 119.987687-268 268s119.987687 268 268 268z" stroke-linecap="round" stroke-width="20"/><path d="m899.007795 22.5c10.629329 0 20.25238 4.3083868 27.218099 11.2741058s11.274106 16.5887702 11.274106 27.2180991v837.0155901c0 10.629329-4.308387 20.25238-11.274106 27.218099s-16.58877 11.274106-27.218099 11.274106h-837.0155901c-10.6293289 0-20.2523801-4.308387-27.2180991-11.274106s-11.2741058-16.58877-11.2741058-27.218099v-837.0155901c0-10.6293289 4.3083868-20.2523801 11.2741058-27.2180991s16.5887702-11.2741058 27.2180991-11.2741058z" stroke-width="40"/></g></svg>