<svg height="960" viewBox="0 0 960 960" width="960" xmlns="http://www.w3.org/2000/svg"><g fill="none" fill-rule="evenodd" stroke="#000" stroke-linejoin="round"><path d="m49.1692462 141.143272c8.0977312-5.653445 17.3901998-8.414185 27.5245214-7.671887l98.6400754 7.270906c81.270589 5.992258 162.575758 11.986338 243.799793 17.918451 7.583974.553486 15.160379 1.104012 22.73495 1.652081l6.495079.469395 3.245733.234143 9.747686.701515c2.166244.155622 4.333003.311097 6.498799.466323l6.506277.465773c.9187.065692 1.837554.131363 2.756576.197015l5.516254.393677c87.375946 6.229731 176.50618 12.300118 278.731131 19.165692 12.349662.828837 25.230373 6.45688 35.809249 15.540375 10.124796 8.693601 17.973191 20.387053 21.478248 32.786591 20.247126 71.588813 40.441459 146.059098 60.013786 221.337026 17.002026 65.388075 34.03142 131.996266 50.497952 196.41133l6.263309 24.498408c3.743602 14.643135 1.118422 29.029558-6.865956 40.627658-7.921256 11.497727-20.24125 18.957909-34.917316 20.637699-56.952872 6.526927-115.905187 13.42089-177.734664 20.786375l-1.560729.185182-.093348.232439c-.426802 1.0489-.760913 1.732366-1.104254 2.39931l-.093944.181747c-.996208 1.861048-1.803762 3.148845-2.783387 4.490358-1.381763 1.818607-2.305722 2.876139-3.352581 3.942195-4.781427 4.723064-11.169174 9.015509-21.206278 11.086393-2.146492.420774-3.483214.629048-4.902853.78678l-160.234422 18.794904c-8.833208 1.396804-20.558233 2.308763-29.93247 2.307392l-.607717-.001238c-9.93809-.039082-16.891742-1.32799-21.00437-2.819442-.580714-.200441-1.128493-.401132-1.643735-.603681l-6.86875-2.306533-3.221025-.899556c-109.545761 14.71788-209.944478 26.595387-306.979515 36.317261-1.526431.153487-3.075129.230675-4.611067.230675-13.850598 0-27.381322-6.250924-37.79598-17.517634-8.9646837-9.69811-15.5312575-23.123797-17.4404701-38.269152-12.734731-100.976326-24.1966472-192.134001-35.474743-285.203775-10.5608296-87.154081-21.7333593-180.44931-34.1547513-285.220215-2.2875872-19.294601 3.1580656-36.13921 12.5362006-46.954711l.4816617-.549481c1.4991142-1.674564 3.0992706-3.214152 4.7926695-4.617488l3.3103715-3.110903c1.9754278-2.224568 3.9474795-4.075351 5.9925724-5.682962l.3161847-.245683z" stroke-width="40"/><g stroke-linecap="round"><path d="m578.879036 691.949869c-128.930586 12.399873-262.235216 25.22042-386.64438 38.559981-9.585051-70.522115-19.508527-140.428698-30.010599-214.403619-13.682533-96.389025-27.829036-196.035999-42.008289-302.82715l79.511531 4.448948c102.071336 6.739893 157.727588 9.611768 334.388746 18.724555 1.049844.054633 2.114243.109266 3.173184.163899l221.660681 12.403515 109.778678 414.509778c-95.672204 9.746529-194.368394 19.236284-289.849552 28.420093z" stroke-width="20"/><path d="m452.106794 809.356004c-15.470368-32.621506-1.348573-51.544583 42.365384-56.769231 65.570936-7.836973 182.701205-20.537512 199.260363-22.076923 16.559158-1.539412 29.163531 23.513773 8.583362 51.179963-13.720113 18.444127-97.123149 27.666191-250.209109 27.666191z" fill="#000" stroke-width="30"/></g></g></svg>