<?xml version="1.0" encoding="utf-8"?>
<!-- Generator: Adobe Illustrator 17.0.0, SVG Export Plug-In . SVG Version: 6.00 Build 0)  -->
<!DOCTYPE svg PUBLIC "-//W3C//DTD SVG 1.1//EN" "http://www.w3.org/Graphics/SVG/1.1/DTD/svg11.dtd">
<svg version="1.1" id="Layer_1" xmlns="http://www.w3.org/2000/svg" xmlns:xlink="http://www.w3.org/1999/xlink" x="0px" y="0px"
	 width="483.685px" height="362.362px" viewBox="0 0 483.685 362.362" enable-background="new 0 0 483.685 362.362"
	 xml:space="preserve">
<g>
	<path d="M424.357,155.115c-8.83-33.568-17.961-68.278-26.778-102.396l-0.195-0.755l-0.778-0.041
		c-51.884-2.707-92.491-4.799-125.46-6.499c-9.736-0.502-18.793-0.969-27.285-1.407l-143.005-7.995
		c-16.708-1.078-35.223-2.324-58.523-3.918l-1.297-0.089l0.171,1.289c7.875,59.333,15.731,114.629,23.33,168.106
		c5.822,40.975,11.321,79.678,16.631,118.744l0.139,1.023l1.027-0.11c68.659-7.363,142.295-14.438,213.506-21.281
		c52.989-5.091,107.782-10.355,160.847-15.765l1.229-0.125l-0.306-1.196C446.825,240.518,435.403,197.102,424.357,155.115z
		 M295.638,297.672c-70.861,6.809-144.126,13.849-212.502,21.174c-5.268-38.725-10.722-77.112-16.494-117.733
		c-7.52-52.929-15.295-107.647-23.088-166.288l43.7,2.443c56.099,3.701,86.688,5.278,183.782,10.282
		c0.577,0.03,1.162,0.06,1.744,0.09l121.826,6.811l60.335,227.615C402.359,287.418,348.115,292.629,295.638,297.672z"/>
	<path d="M269.245,164.451c-0.12,5.105-0.264,10.23-0.408,15.37c-0.029,0.002-0.057,0.004-0.057,0.004
		c-2.084-5.017-4.156-10.043-6.222-15.064c-2.071-5.034-4.135-10.064-6.215-15.105c-1.144,0.036-2.288,0.072-3.403,0.107
		c-0.263,5.143-0.512,10.301-0.756,15.479c-0.245,5.195-0.486,10.412-0.712,15.646c-0.029,0.002-0.057,0.004-0.057,0.004
		c-2.059-5.106-4.078-10.22-6.09-15.33c-2.017-5.122-4.056-10.238-6.083-15.366c-1.029,0.032-2.03,0.064-3.003,0.095
		c2.386,5.872,4.813,11.734,7.22,17.594c2.399,5.843,4.808,11.695,7.227,17.53c0.999-0.065,1.97-0.131,2.998-0.198
		c0.262-5.351,0.539-10.688,0.791-16.004c0.251-5.294,0.507-10.572,0.778-15.833c0.029-0.001,0.057-0.002,0.086-0.003
		c2.131,5.165,4.262,10.32,6.395,15.471c2.131,5.147,4.294,10.286,6.429,15.419c0.942-0.061,1.885-0.122,2.798-0.183
		c0.214-5.877,0.456-11.737,0.675-17.567c0.218-5.804,0.441-11.598,0.665-17.363c-0.887,0.028-1.745,0.055-2.602,0.082
		C269.545,154.291,269.365,159.363,269.245,164.451z"/>
	<path d="M239.393,176.556c-0.28-1.464-0.68-2.708-1.261-3.721c-0.583-1.015-1.291-1.851-2.148-2.547
		c-0.824-0.669-1.749-1.238-2.774-1.683c-1.002-0.434-2.096-0.821-3.216-1.092c-2.58-0.625-5.138-1.222-7.753-1.828
		c-0.627-0.145-1.265-0.34-1.858-0.581c-0.616-0.25-1.163-0.585-1.671-0.996c-0.53-0.428-0.912-0.944-1.278-1.561
		c-0.366-0.618-0.608-1.347-0.756-2.198c-0.235-1.355-0.231-2.495,0.039-3.423c0.27-0.931,0.699-1.703,1.275-2.271
		c0.603-0.595,1.347-1.018,2.22-1.295c0.899-0.286,1.822-0.443,2.851-0.478c1.058-0.035,2.091,0.104,3.123,0.422
		c1.035,0.319,1.983,0.813,2.846,1.472c0.864,0.66,1.622,1.48,2.277,2.488c0.646,0.994,1.075,2.185,1.371,3.551
		c0.943-0.039,1.886-0.078,2.858-0.117c-0.322-1.83-0.909-3.431-1.733-4.785c-0.834-1.369-1.877-2.493-3.04-3.392
		c-1.164-0.899-2.49-1.554-3.914-1.986c-1.399-0.424-2.869-0.623-4.384-0.576c-2.116,0.065-3.827,0.484-5.044,1.253
		c-1.219,0.771-2.142,1.696-2.741,2.765c-0.609,1.087-0.982,2.223-1.048,3.417c-0.066,1.202-0.044,2.241,0.109,3.125
		c0.247,1.427,0.656,2.626,1.227,3.595c0.571,0.969,1.206,1.772,1.977,2.429c0.751,0.64,1.583,1.158,2.483,1.525
		c0.898,0.366,1.842,0.671,2.777,0.891c2.37,0.557,4.741,1.112,7.06,1.645c0.774,0.178,1.507,0.393,2.279,0.669
		c0.797,0.285,1.533,0.649,2.245,1.129c0.693,0.468,1.282,1.07,1.783,1.784c0.5,0.713,0.854,1.578,1.03,2.58
		c0.23,1.307,0.178,2.442-0.184,3.389c-0.37,0.965-0.927,1.759-1.601,2.391c-0.69,0.647-1.476,1.128-2.345,1.451
		c-0.893,0.332-1.701,0.514-2.5,0.565c-1.371,0.087-2.714,0.019-3.996-0.23c-1.257-0.245-2.43-0.723-3.449-1.409
		c-1.04-0.7-1.911-1.666-2.637-2.884c-0.74-1.243-1.262-2.785-1.587-4.662c-1,0.055-1.971,0.107-2.943,0.16
		c0.304,2.258,0.896,4.174,1.773,5.745c0.878,1.573,1.963,2.832,3.225,3.788c1.263,0.956,2.735,1.634,4.336,2.023
		c1.626,0.395,3.327,0.524,5.126,0.405c1.742-0.116,3.225-0.399,4.439-0.877c1.163-0.458,2.135-1.037,2.876-1.721
		c0.725-0.67,1.257-1.423,1.603-2.216c0.354-0.812,0.616-1.582,0.741-2.353c0.124-0.77,0.114-1.484,0.082-2.161
		C239.53,177.499,239.471,176.962,239.393,176.556z"/>
	<path d="M109.426,172.006c0.139,0.863,0.278,1.722,0.416,2.581c26.747-1.301,52.38-2.549,76.927-3.745
		c-0.136-0.803-0.272-1.606-0.409-2.412C161.811,169.573,136.176,170.765,109.426,172.006z"/>
	<path d="M303.716,153.695c-0.578-1.174-1.319-2.155-2.158-2.955c-0.838-0.799-1.781-1.402-2.776-1.787
		c-1.019-0.395-2.148-0.567-3.32-0.531c-3.918,0.123-7.836,0.247-11.811,0.372c1.031,5.654,2.081,11.324,3.128,16.986
		c1.051,5.681,2.102,11.364,3.169,17.056c0.828-0.055,1.685-0.111,2.57-0.168c-0.473-2.434-0.918-4.865-1.363-7.296
		c-0.444-2.43-0.888-4.862-1.361-7.292c3.086-0.156,6.172-0.313,9.258-0.471c1.143-0.058,2.195-0.317,3.083-0.798
		c0.843-0.457,1.539-1.142,2.054-1.995c0.523-0.867,0.904-1.889,1.042-3.089c0.138-1.198,0.047-2.546-0.23-4.039
		C304.725,156.191,304.29,154.858,303.716,153.695z M301.867,163.011c-0.86,1.169-2.146,1.806-3.889,1.89
		c-2.886,0.139-5.801,0.28-8.687,0.418c-0.423-2.314-0.832-4.628-1.268-6.936c-0.437-2.31-0.872-4.614-1.294-6.925
		c2.888-0.099,5.776-0.198,8.692-0.298c1.744-0.06,3.243,0.466,4.515,1.544c1.287,1.091,2.153,2.776,2.58,5.085
		C302.942,160.098,302.735,161.831,301.867,163.011z"/>
	<path d="M315.031,178.45c-0.408-2.188-0.802-4.383-1.222-6.565c-0.421-2.187-0.842-4.373-1.249-6.558
		c4.715-0.232,9.43-0.464,14.059-0.693c-0.167-0.884-0.333-1.769-0.5-2.657c-4.629,0.216-9.345,0.435-14.061,0.651
		c-0.371-1.992-0.757-3.984-1.142-5.978c-0.384-1.988-0.742-3.986-1.113-5.978c5.032-0.173,10.065-0.345,14.983-0.514
		c-0.166-0.88-0.331-1.761-0.498-2.644c-5.748,0.182-11.553,0.364-17.444,0.55c1.055,5.523,2.097,11.056,3.14,16.592
		c1.044,5.544,2.09,11.101,3.123,16.661c5.911-0.389,11.794-0.774,17.59-1.154c-0.167-0.887-0.334-1.774-0.502-2.664
		C325.198,177.813,320.143,178.13,315.031,178.45z"/>
	<path d="M278.019,148.972c-0.886,0.028-1.744,0.055-2.631,0.082c1.062,5.7,2.112,11.412,3.162,17.125
		c1.052,5.722,2.106,11.457,3.147,17.197c0.857-0.057,1.742-0.113,2.627-0.171c-1.069-5.725-2.121-11.44-3.173-17.152
		C280.102,160.36,279.052,154.658,278.019,148.972z"/>
	<path d="M395.215,158.726c-16.147,0.746-32.809,1.521-50.07,2.324c0.132,0.69,0.263,1.377,0.395,2.064
		c17.26-0.841,33.92-1.653,50.065-2.434C395.475,160.03,395.345,159.38,395.215,158.726z"/>
	<path d="M481.121,290.174l-3.441-13.458c-9.043-35.372-18.395-71.948-27.732-107.854c-10.733-41.277-21.807-82.111-32.91-121.365
		c-2.721-9.625-12.427-17.958-21.636-18.576c-69.823-4.689-128.529-8.703-188.084-13.049C162.691,12.613,118.02,9.32,73.368,6.028
		L19.179,2.034c-2.723-0.199-5.233,0.483-7.408,1.937l-0.046-0.052l-0.28,0.263c-0.789,0.565-1.533,1.231-2.221,2.005
		C9.12,6.304,9.025,6.43,8.925,6.55L6.323,8.995C5.736,9.46,5.185,9.978,4.672,10.547l-0.219,0.206l0.02,0.021
		C1.02,14.771-0.618,21.058,0.212,28.058c6.823,57.545,12.96,108.787,18.761,156.656c6.194,51.11,12.489,101.17,19.483,156.622
		c1.487,11.795,10.029,21.034,19.445,21.034c0.479,0,0.962-0.024,1.438-0.072c53.194-5.329,108.232-11.84,168.258-19.904
		l2.266-0.305l4.222,1.179l4.147,1.419l0.13,0.035c0.033,0.007,0.065,0.009,0.098,0.015c0.225,0.1,0.483,0.191,0.77,0.288
		c1.459,0.604,4.213,0.91,8.187,0.91c0,0,0,0,0.001,0c4.685,0,10.562-0.46,14.925-1.166l88.297-10.356
		c0.521-0.057,1.005-0.137,1.473-0.227c0.082-0.016,0.162-0.033,0.243-0.049c2.855-0.589,4.724-1.738,5.937-2.938
		c0.031-0.03,0.063-0.059,0.094-0.09c0.274-0.279,0.512-0.559,0.721-0.834c0.029-0.038,0.059-0.075,0.087-0.113
		c0.241-0.33,0.436-0.649,0.599-0.95c0.008-0.015,0.019-0.027,0.026-0.042c0.009-0.018,0.015-0.037,0.024-0.054
		c0.097-0.187,0.186-0.369,0.258-0.537c0.024-0.057,0.037-0.117,0.06-0.174c0.074-0.186,0.136-0.375,0.196-0.565
		c0.05-0.157,0.102-0.313,0.142-0.472c0.045-0.182,0.076-0.367,0.109-0.553c0.03-0.171,0.067-0.34,0.087-0.512
		c0.019-0.172,0.021-0.346,0.03-0.52c0.009-0.186,0.028-0.372,0.025-0.559c-0.001-0.069-0.013-0.138-0.016-0.207
		c-0.019-0.489-0.086-0.977-0.189-1.46c-0.03-0.142-0.051-0.284-0.088-0.425c-0.034-0.127-0.079-0.252-0.118-0.378
		c37.473-4.478,73.003-8.64,107.22-12.561c4.762-0.545,8.805-2.909,11.386-6.655C481.576,299.718,482.348,294.973,481.121,290.174z
		 M358.59,326.029c-0.015,0.135-0.043,0.268-0.066,0.402c-0.024,0.134-0.045,0.268-0.077,0.399c-0.03,0.121-0.07,0.239-0.107,0.358
		c-0.044,0.14-0.089,0.281-0.144,0.418c-0.04,0.099-0.086,0.196-0.131,0.293c-0.113,0.243-0.233,0.481-0.377,0.706
		c-0.013,0.021-0.027,0.042-0.041,0.063c-1.113,1.688-3.113,2.864-5.8,3.406c-0.028,0.006-0.058,0.01-0.086,0.016
		c-0.436,0.085-0.888,0.156-1.358,0.208l-94.083,11.035l0.004,0.033c-3.014,0.278-6.164,0.441-8.902,0.441h-0.001
		c-0.619,0-1.189-0.008-1.714-0.021c0.23-0.132,0.455-0.276,0.676-0.43c0.007-0.005,0.015-0.01,0.022-0.016
		c0.351-0.247,0.687-0.529,1.013-0.83c0.051-0.047,0.104-0.092,0.154-0.14c0.31-0.298,0.606-0.624,0.892-0.972
		c0.056-0.069,0.112-0.138,0.168-0.209c0.282-0.358,0.553-0.738,0.811-1.146c0.042-0.066,0.081-0.135,0.122-0.202
		c0.267-0.438,0.525-0.896,0.766-1.388c0.111-0.203,0.196-0.421,0.288-0.635c0.052-0.12,0.115-0.232,0.162-0.356
		c0.098-0.264,0.169-0.539,0.24-0.815c0.025-0.096,0.062-0.185,0.083-0.282c0.066-0.305,0.106-0.607,0.135-0.908
		c0.006-0.065,0.012-0.13,0.017-0.195c0.021-0.292,0.03-0.582,0.018-0.867c-0.001-0.016,0.002-0.032,0.001-0.047
		c-0.002-0.048-0.013-0.092-0.016-0.139c-0.016-0.23-0.042-0.457-0.078-0.679c-0.013-0.081-0.02-0.164-0.035-0.244
		c-0.012-0.062-0.03-0.119-0.044-0.18c-0.042-0.185-0.09-0.368-0.146-0.546c-0.027-0.087-0.052-0.175-0.082-0.261
		c-0.027-0.075-0.058-0.146-0.088-0.219c-0.032-0.08-0.07-0.156-0.105-0.234c-0.067-0.149-0.132-0.299-0.209-0.44
		c-0.054-0.098-0.113-0.189-0.171-0.283c-0.035-0.056-0.07-0.111-0.107-0.165c-0.078-0.116-0.157-0.23-0.242-0.338
		c-0.003-0.003-0.005-0.007-0.008-0.011c-0.03-0.038-0.052-0.083-0.083-0.119l100.835-11.841v0l0.024-0.003
		c0.357-0.05,0.711-0.071,1.059-0.071c0.07,0,0.137,0.008,0.207,0.009c0.287,0.008,0.572,0.027,0.85,0.069
		c0.055,0.008,0.109,0.02,0.164,0.029c0.293,0.051,0.581,0.116,0.861,0.203c0.038,0.012,0.075,0.024,0.113,0.036
		c0.292,0.096,0.576,0.211,0.849,0.344c0.028,0.013,0.056,0.026,0.083,0.04c0.275,0.139,0.539,0.299,0.793,0.475
		c0.025,0.018,0.053,0.033,0.078,0.051c0.256,0.183,0.497,0.387,0.726,0.606c0.017,0.017,0.037,0.03,0.054,0.047
		c0.236,0.231,0.456,0.483,0.659,0.752c0.048,0.063,0.085,0.131,0.131,0.195c0.15,0.213,0.294,0.432,0.423,0.666
		c0.061,0.11,0.113,0.223,0.168,0.335c0.069,0.144,0.141,0.287,0.2,0.433c0.038,0.093,0.066,0.189,0.099,0.283
		c0.06,0.171,0.122,0.341,0.168,0.514c0.015,0.057,0.023,0.114,0.036,0.171c0.148,0.62,0.202,1.247,0.169,1.865
		C358.601,325.809,358.601,325.92,358.59,326.029z M477.195,302.33c-2.227,3.232-5.734,5.274-9.877,5.75
		c-34.422,3.944-70.176,8.133-107.898,12.642c-0.044-0.072-0.095-0.14-0.141-0.211c-0.111-0.172-0.219-0.347-0.34-0.509
		c-0.021-0.028-0.036-0.058-0.057-0.086c-0.074-0.097-0.16-0.178-0.237-0.271c-0.161-0.195-0.322-0.39-0.497-0.569
		c-0.121-0.124-0.251-0.233-0.377-0.348c-0.159-0.144-0.315-0.292-0.484-0.424c-0.183-0.144-0.376-0.269-0.569-0.397
		c-0.125-0.083-0.246-0.172-0.375-0.248c-0.241-0.143-0.492-0.263-0.746-0.381c-0.097-0.045-0.19-0.097-0.289-0.139
		c-0.27-0.113-0.548-0.204-0.83-0.29c-0.099-0.03-0.195-0.068-0.295-0.095c-0.264-0.07-0.535-0.118-0.807-0.164
		c-0.131-0.022-0.258-0.053-0.39-0.07c-0.241-0.03-0.487-0.037-0.734-0.049c-0.146-0.007-0.288-0.029-0.436-0.029
		c-0.023,0-0.046,0.005-0.069,0.005c-0.389,0.003-0.783,0.033-1.182,0.082c-0.04,0.005-0.083,0.003-0.122,0.009L247.09,328.675
		c-0.261,0.031-0.452,0.039-0.559,0.044c-0.122,0.005-0.228,0.024-0.325,0.049c-2.596,0.034-4.95,2.26-5.613,5.326
		c-0.026,0.122-0.05,0.246-0.071,0.369c-3.108,0.394-6.24,0.949-9.277,1.489c-3.308,0.588-6.728,1.195-10.076,1.583
		c-0.003,0-0.006,0.001-0.009,0.001l-5.379,0.622l0.088,0.024c-44.126,5.386-84.586,10.28-122.695,14.839
		c-0.388,0.046-0.778,0.093-1.165,0.139c-2.475,0.296-4.937,0.59-7.392,0.884c-0.863,0.103-1.726,0.206-2.587,0.309
		c-2.375,0.283-4.741,0.566-7.099,0.847c-0.781,0.093-1.561,0.186-2.341,0.279c-2.534,0.302-5.064,0.603-7.579,0.902
		c-0.477,0.057-0.962,0.086-1.442,0.086c-8.157,0-15.605-8.271-16.957-18.829c-3.419-26.703-6.957-53.857-10.377-80.118
		c-3.286-25.22-6.683-51.298-9.971-76.943C20.212,133.367,13.887,81.983,6.928,23.49c-0.091-0.762-0.146-1.518-0.174-2.265
		c-0.005-0.132-0.001-0.261-0.005-0.392c-0.015-0.641-0.014-1.277,0.017-1.901c0.004-0.087,0.011-0.173,0.016-0.26
		c0.04-0.681,0.103-1.352,0.196-2.007c0.004-0.032,0.009-0.063,0.013-0.095c0.526-3.589,1.836-6.736,3.821-8.971
		c2.018-2.272,4.591-3.473,7.44-3.473c0.253,0,0.51,0.009,0.769,0.028l54.189,3.993c44.652,3.292,89.324,6.586,133.95,9.843
		c59.561,4.347,118.27,8.361,188.097,13.05c8.242,0.553,17.278,8.354,19.733,17.034c11.099,39.24,22.168,80.059,32.898,121.322
		c9.336,35.901,18.687,72.476,27.729,107.846l3.44,13.459C480.134,294.896,479.472,299.026,477.195,302.33z"/>
</g>
</svg>