<?xml version="1.0" encoding="UTF-8"?>
<svg width="960px" height="960px" viewBox="0 0 960 960" version="1.1" xmlns="http://www.w3.org/2000/svg" xmlns:xlink="http://www.w3.org/1999/xlink">
  <style>
  .pair {
    animation: fillpulse 3s infinite;
  }

  @keyframes fillpulse {
    0%, 20%, 40%, 60%, 100% {
      fill: rgba(255,255,255,0);
    }
    10%, 30%, 50% {
      fill: #0078CC;
    }
  }
  </style>
    <title>pair_tech_switch</title>
    <g id="pair_tech_switch" stroke="none" stroke-width="1" fill="none" fill-rule="evenodd">
        <path d="M481,895 C709.093602,895 894,710.093602 894,482 C894,253.906398 709.093602,69 481,69 C252.906398,69 68,253.906398 68,482 C68,710.093602 252.906398,895 481,895 Z M481,889 C256.220107,889 74,706.779893 74,482 C74,257.220107 256.220107,75 481,75 C705.779893,75 888,257.220107 888,482 C888,706.779893 705.779893,889 481,889 Z" id="Oval" fill="#000000" fill-rule="nonzero"></path>
        <path d="M479,811 C660.701683,811 808,663.701683 808,482 C808,300.298317 660.701683,153 479,153 C297.298317,153 150,300.298317 150,482 C150,663.701683 297.298317,811 479,811 Z M479.5,798 C304.701877,798 163,656.298123 163,481.5 C163,306.701877 304.701877,165 479.5,165 C654.298123,165 796,306.701877 796,481.5 C796,656.298123 654.298123,798 479.5,798 Z" id="Oval" fill="#000000" fill-rule="nonzero"></path>
        <circle class="pair" fill="#004DFF" cx="480" cy="480" r="280"></circle>
        <path d="M32.2776573,0 L927.722343,0 C945.548801,0 960,14.4511994 960,32.2776573 L960,927.722343 C960,945.548801 945.548801,960 927.722343,960 L32.2776573,960 C14.4511994,960 0,945.548801 0,927.722343 L0,32.2776573 C0,14.4511994 14.4511994,0 32.2776573,0 Z M32.7828508,12 C21.857084,12 13,20.857084 13,31.7828508 L13,927.217149 C13,938.142916 21.857084,947 32.7828508,947 L928.217149,947 C939.142916,947 948,938.142916 948,927.217149 L948,31.7828508 C948,20.857084 939.142916,12 928.217149,12 L32.7828508,12 Z" id="Rectangle" fill="#000000" fill-rule="nonzero"></path>
    </g>
</svg>
