<?xml version="1.0" encoding="utf-8"?>
<!-- Generator: Adobe Illustrator 20.0.0, SVG Export Plug-In . SVG Version: 6.00 Build 0)  -->
<svg version="1.1" id="Layer_1" xmlns="http://www.w3.org/2000/svg" xmlns:xlink="http://www.w3.org/1999/xlink" x="0px" y="0px"
	 viewBox="0 0 317 386.5" style="enable-background:new 0 0 317 386.5;" xml:space="preserve">
<style type="text/css">
.fillpulse {
	animation: fillpulse 3s infinite;
}

@keyframes fillpulse {
	0%, 20%, 40%, 60%, 100% {
		fill: #FFFFFF;
	}
	10%, 30%, 50% {
		fill: #0078CC;
	}
}
</style>
<g>
	<path d="M1.8,113.2l-1.4,0c0-0.3,0-0.6,0-0.9C0.4,50.6,71.3,0.4,158.5,0.4s158.1,50.2,158.1,111.9c0,0.3,0,0.6,0,0.9l-1.4,0
		c0,0,0,0,0,0l0,0c-0.3-24.4-16.7-47.4-46.2-64.6c-29.6-17.3-68.8-26.9-110.5-26.9c-41.7,0-80.9,9.6-110.5,26.9
		C18.5,65.8,2.1,88.8,1.8,113.2z M158.5,20.2c41.9,0,81.4,9.6,111.2,27.1c22.1,13,37,29.1,43.3,46.7c-12.3-52.3-77-92.3-154.6-92.3
		C80.9,1.8,16.2,41.8,3.9,94c6.4-17.6,21.2-33.8,43.3-46.7C77,29.8,116.5,20.2,158.5,20.2z"/>
</g>
<g>
	<path  d="M226.6,332.6c-4.7,0-9.1-0.9-12.6-2.7c-4.3-2.1-6.7-5.3-7-8.8c-0.2-3.5,1.8-7,5.7-9.7c3.8-2.6,9-4.3,14.6-4.7
		c5.6-0.4,10.9,0.5,15.1,2.6c4.3,2.1,6.7,5.3,7,8.8c0.2,3.5-1.8,7-5.7,9.7c-3.8,2.7-9,4.3-14.6,4.7
		C228.2,332.6,227.4,332.6,226.6,332.6z M227.3,308.1c-5.3,0.4-10.2,2-13.8,4.5c-3.5,2.4-5.3,5.4-5.1,8.4c0.2,3,2.4,5.7,6.2,7.6
		c3.9,2,9,2.8,14.3,2.5c5.3-0.4,10.2-2,13.8-4.5c3.5-2.4,5.3-5.4,5.1-8.4c-0.2-3-2.4-5.7-6.2-7.6
		C237.8,308.6,232.7,307.7,227.3,308.1L227.3,308.1z"/>
</g>
<g>
	<path  d="M89.8,343.6l-20.5-8.2l3.1-19.8L94.6,293l20.6,8.4l-23,23L89.8,343.6z M70.8,334.5l18.2,7.3l1.9-18l21.8-21.8
		L95,294.7l-21.3,21.5L70.8,334.5z"/>
</g>
<g>
	<polygon  points="98.5,330 91.1,324.6 92,323.5 98.3,328.1 115.9,310.6 113.3,301.9 115.2,301.4 117.5,311 	"/>
</g>
<g>
	<polygon  points="89.8,343.6 89.2,342.2 97.7,336.1 97.7,329.1 99.1,329.1 99.1,336.8 	"/>
</g>
<g>

		<rect x="81.6" y="309.8" transform="matrix(0.4033 -0.9151 0.9151 0.4033 -243.6948 266.2103)"  width="1.4" height="20.3"/>
</g>
<g>
	<path  d="M156.5,338.7h-35.3l2.5-29.2h33.2L156.5,338.7z M122.7,337.3h32.4l0.3-26.3H125L122.7,337.3z"/>
</g>
<g>
	<path  d="M194.6,338.7h-35.4l0.1-29.2h33.2L194.6,338.7z M160.7,337.3h32.4l-1.8-26.3h-30.5L160.7,337.3z"/>
</g>
<g>
	<path  d="M159,343.2l0.2-3c0.1-0.8,0.1-1.5,0.2-2.3l0-0.7h35.4l-1.4,5.8L159,343.2z M160.7,338.7c0,0.5-0.1,1.1-0.1,1.6
		l-0.1,1.5l31.8-0.1l0.7-3H160.7z"/>
</g>
<g>
	<path  d="M121.9,343.6l-0.7-6.3h35.4l-0.2,3.2c0,0.8-0.1,1.6-0.1,2.4l0,0.7L121.9,343.6z M122.7,338.7l0.4,3.5l31.8-0.1
		c0-0.6,0.1-1.1,0.1-1.7l0.1-1.7H122.7z"/>
</g>
<g>
	<path  d="M139.1,336.6c-3.6,0-6.9-1.3-9.4-3.8c-2.4-2.4-3.6-5.6-3.4-9c0.2-3.3,1.7-6.4,4.3-8.7c2.5-2.2,5.8-3.5,9.3-3.5
		c0,0,0,0,0,0c3.4,0,6.7,1.3,9.1,3.5c2.4,2.3,3.8,5.4,3.7,8.7c0,3.4-1.5,6.5-4,8.9C146.1,335.3,142.7,336.6,139.1,336.6z
		 M139.8,313.1c-3.1,0-6,1.1-8.3,3.1c-2.3,2-3.6,4.8-3.8,7.7c-0.2,3,0.9,5.8,3,7.9c2.2,2.2,5.1,3.4,8.4,3.4c3.2,0,6.3-1.2,8.6-3.4
		c2.3-2.1,3.5-4.9,3.6-7.9c0-2.9-1.1-5.6-3.3-7.7C145.8,314.2,142.9,313.1,139.8,313.1C139.9,313.1,139.8,313.1,139.8,313.1z"/>
</g>
<g>
	<path  d="M177,336.6c-3.6,0-6.9-1.3-9.5-3.7c-2.6-2.4-4-5.6-4-8.9c0-3.3,1.3-6.4,3.7-8.7c2.4-2.3,5.6-3.5,9-3.5
		c0,0,0,0,0,0c3.4,0,6.7,1.3,9.2,3.5c2.6,2.3,4.1,5.4,4.3,8.6c0.2,3.3-1,6.5-3.4,8.9C183.8,335.3,180.5,336.6,177,336.6z
		 M176.2,313.2c-3.1,0-5.9,1.1-8,3.1c-2.1,2-3.3,4.7-3.3,7.6c0,3,1.3,5.8,3.6,7.9c2.3,2.2,5.3,3.4,8.5,3.4c3.2,0,6.1-1.2,8.3-3.3
		c2.1-2.1,3.2-4.9,3-7.8c-0.2-2.9-1.5-5.6-3.8-7.7C182.2,314.3,179.3,313.2,176.2,313.2C176.2,313.2,176.2,313.2,176.2,313.2z"/>
</g>
<g>
	<polygon class="fillpulse" points="98.4,336.4 98.4,329.1 91.6,324.1 89.6,342.8 	"/>
</g>
<g>
	<path  d="M89.3,343.4l2.1-19.8l7.4,5.4v7.7L89.3,343.4z M91.8,324.6l-1.8,17.6l8.2-5.9v-7.1L91.8,324.6z"/>
</g>
<g>
	<polygon class="fillpulse" points="98.4,329.1 116.7,310.8 114,301.6 91.6,324.1 	"/>
</g>
<g>
	<path  d="M98.4,329.4l-7.3-5.3l23-23l2.9,9.8l-0.1,0.1L98.4,329.4z M92,324l6.4,4.7l18-18l-2.3-8.7L92,324z"/>
</g>
<g>
	<polygon class="fillpulse" points="91.6,324.1 114,301.6 94.8,293.8 73,315.9 	"/>
</g>
<g>
	<path  d="M91.6,324.4L72.5,316l22.3-22.4l19.7,8L91.6,324.4z M73.5,315.8l18,7.9l22-22l-18.6-7.6L73.5,315.8z"/>
</g>
<g>
	<polygon class="fillpulse" points="91.6,324.1 73,315.9 70,334.9 89.6,342.8 	"/>
</g>
<g>
	<path  d="M89.8,343.2l-20.1-8.1l3.1-19.6l19.1,8.4L89.8,343.2z M70.3,334.7l19,7.6l1.9-18.1l-18-8L70.3,334.7z"/>
</g>
<g>
	<path d="M60,261.5c1,0.7,2.2,1.1,3.5,1.1c0.3,0,0.6,0,1-0.1c1.6-0.2,3.1-1,4.2-2.3c1.1-1.2,1.6-2.7,1.5-4.2
		c-0.1-1.5-0.9-2.8-2.1-3.7c-1.2-0.9-2.7-1.2-4.3-1c-1.6,0.2-3,0.9-4.1,2.1c-1.1,1.2-1.7,2.7-1.7,4.2
		C58.1,259.2,58.8,260.6,60,261.5z M60.8,254.5c0.9-0.9,2-1.5,3.3-1.7c1.2-0.2,2.4,0.1,3.3,0.8c0.9,0.6,1.4,1.6,1.5,2.6
		c0.1,1.1-0.3,2.2-1.2,3.2c-0.9,1-2.1,1.6-3.4,1.8c-1.3,0.2-2.5-0.1-3.5-0.8c-0.9-0.7-1.4-1.7-1.4-2.8
		C59.5,256.5,59.9,255.4,60.8,254.5z"/>
	<path d="M62.4,249.3c1,0.7,2.1,1,3.4,1c0.3,0,0.6,0,0.9-0.1c1.6-0.2,3-0.9,4-2c1-1.1,1.5-2.5,1.4-3.8c-0.1-1.4-0.8-2.5-2-3.3
		c-1.1-0.8-2.6-1.1-4.1-0.9c-1.5,0.2-2.9,0.8-3.9,1.8c-1.1,1.1-1.6,2.4-1.6,3.8C60.5,247.2,61.2,248.5,62.4,249.3z M63.1,243.1
		c0.8-0.8,1.9-1.3,3.1-1.4c0.2,0,0.4,0,0.6,0c0.9,0,1.8,0.2,2.5,0.7c0.8,0.6,1.3,1.4,1.4,2.3c0.1,1-0.3,1.9-1,2.7
		c-0.8,0.9-1.9,1.4-3.2,1.6c-1.2,0.2-2.4-0.1-3.3-0.7c-0.8-0.6-1.3-1.4-1.3-2.4C61.9,244.8,62.3,243.9,63.1,243.1z"/>
	<path d="M65.2,238.2c0.9,0.6,2.1,0.9,3.3,0.9c0.2,0,0.5,0,0.8,0c1.5-0.2,2.8-0.8,3.8-1.8c1-1,1.5-2.2,1.3-3.5c-0.1-1.2-0.8-2.3-2-3
		c-1.1-0.7-2.5-1-3.9-0.8c-1.4,0.1-2.7,0.7-3.7,1.6c-1,1-1.5,2.2-1.5,3.4C63.4,236.2,64.1,237.4,65.2,238.2z M65.8,232.6
		c0.7-0.7,1.8-1.1,2.9-1.3c1.1-0.1,2.1,0.1,3,0.6c0.8,0.5,1.2,1.2,1.3,2c0.1,0.8-0.2,1.6-0.9,2.3c-0.7,0.7-1.8,1.2-2.9,1.3
		c-1.1,0.1-2.2-0.1-3.1-0.7c-0.8-0.5-1.2-1.3-1.3-2.1C64.7,234.1,65.1,233.3,65.8,232.6z"/>
	<path d="M67.4,228.2c0.9,0.6,2,0.9,3.1,0.9c0.2,0,0.5,0,0.7,0c1.4-0.1,2.6-0.7,3.5-1.6c0.9-0.9,1.4-2,1.2-3.2
		c-0.1-1.1-0.8-2.1-1.9-2.8c-1-0.6-2.3-0.9-3.6-0.8l0,0c-1.3,0.1-2.6,0.6-3.5,1.4c-1,0.9-1.5,2-1.4,3.1
		C65.7,226.5,66.4,227.5,67.4,228.2z M67.9,223.3c0.7-0.6,1.6-1,2.6-1.1c1-0.1,2,0.1,2.8,0.6c0.7,0.4,1.2,1.1,1.2,1.7
		c0.1,0.7-0.2,1.4-0.8,2c-0.7,0.6-1.6,1.1-2.7,1.2c-1.1,0.1-2.1-0.1-2.9-0.6c-0.7-0.5-1.1-1.1-1.2-1.8
		C67,224.5,67.3,223.8,67.9,223.3z"/>
	<path d="M78.3,199.9c-1.1-0.8-2.5-1.1-4-0.9h0c-1.4,0.2-2.8,0.9-3.8,1.9c-1,1.1-1.6,2.4-1.6,3.8c0,1.4,0.7,2.7,1.8,3.6
		c0.9,0.7,2,1.1,3.3,1.1c0.3,0,0.6,0,0.9-0.1c1.5-0.2,2.9-1,3.9-2.1c1-1.1,1.5-2.5,1.4-3.9C80.2,201.9,79.5,200.7,78.3,199.9z
		 M77.8,206.3c-0.8,0.9-1.8,1.5-3,1.6c-1.2,0.2-2.3-0.1-3.1-0.7c-0.8-0.6-1.2-1.5-1.3-2.5c0-1,0.4-2,1.2-2.8c0.8-0.8,1.8-1.4,3-1.5
		c1.1-0.1,2.2,0.1,3,0.7c0.8,0.6,1.3,1.4,1.3,2.4C78.9,204.4,78.6,205.4,77.8,206.3z"/>
	<path d="M80.1,189.7c-1-0.7-2.4-1-3.8-0.8c-1.4,0.2-2.7,0.8-3.6,1.7c-1,1-1.5,2.2-1.5,3.5c0,1.3,0.7,2.5,1.8,3.2c0.9,0.6,2,1,3.1,1
		c0.3,0,0.5,0,0.8-0.1c1.4-0.2,2.7-0.8,3.7-1.8c1-1,1.4-2.3,1.3-3.5C81.8,191.5,81.2,190.4,80.1,189.7z M79.6,195.3
		c-0.7,0.8-1.7,1.3-2.8,1.4c-1.1,0.1-2.1-0.1-2.9-0.7c-0.7-0.5-1.2-1.3-1.2-2.1c0-0.9,0.3-1.7,1.1-2.4c0.7-0.7,1.7-1.2,2.8-1.3
		c0.2,0,0.4,0,0.6,0c0.8,0,1.6,0.2,2.3,0.6c0.7,0.5,1.2,1.2,1.3,2C80.6,193.7,80.3,194.6,79.6,195.3z"/>
	<path d="M81.8,180.3c-1-0.6-2.3-0.9-3.6-0.8c-1.3,0.1-2.5,0.7-3.4,1.5c-0.9,0.9-1.4,2-1.4,3.1c0.1,1.2,0.7,2.2,1.8,2.9
		c0.9,0.6,1.9,0.9,3,0.9c0.2,0,0.5,0,0.7,0c1.3-0.2,2.6-0.7,3.5-1.6c0.9-0.9,1.3-2.1,1.2-3.2C83.5,181.9,82.9,180.9,81.8,180.3z
		 M81.4,185.3c-0.7,0.7-1.6,1.1-2.6,1.2c-1,0.1-2-0.1-2.8-0.6c-0.7-0.5-1.1-1.1-1.1-1.8c0-0.7,0.3-1.4,0.9-2c0.7-0.6,1.6-1,2.6-1.1
		h0c0.2,0,0.3,0,0.5,0c0.8,0,1.5,0.2,2.2,0.6c0.7,0.4,1.1,1.1,1.2,1.8C82.3,183.9,82,184.7,81.4,185.3z"/>
	<path d="M77.3,177.8c0.8,0.5,1.8,0.8,2.9,0.8c0.2,0,0.4,0,0.6,0c1.3-0.1,2.4-0.6,3.2-1.4c0.9-0.8,1.3-1.9,1.1-2.9
		c-0.1-1-0.8-2-1.8-2.6c-0.9-0.6-2.1-0.8-3.4-0.7c-1.2,0.1-2.3,0.6-3.2,1.3c-0.9,0.8-1.4,1.8-1.3,2.9
		C75.7,176.1,76.3,177.1,77.3,177.8z M77.8,173.2c0.6-0.5,1.5-0.9,2.4-1c0.1,0,0.3,0,0.4,0c0.8,0,1.5,0.2,2,0.5
		c0.6,0.4,1,0.9,1.1,1.5c0.1,0.6-0.2,1.2-0.7,1.8c-0.6,0.6-1.5,0.9-2.4,1c-0.9,0.1-1.9-0.1-2.6-0.5c-0.6-0.4-1-1-1-1.6
		C77,174.4,77.3,173.7,77.8,173.2z"/>
	<path d="M317,271.2L317,271.2c-0.1-0.4-0.1-0.7-0.1-1.1c0-31.1-18.6-61-51.1-82c12.4-7.7,22.2-16.6,29.2-26.4
		c11.9-12,19-25.1,21.2-39.1l0.7-9.5c0.3-23.5-9.6-46-28.5-65.2c-29.7-30-78.3-48-130-48c-51.7,0-100.3,17.9-129.9,48
		C9.6,67.1-0.3,89.6,0,113.2l0.7,9.5c2.2,13.9,9.3,27,21.2,39c7,9.8,16.8,18.7,29.2,26.4C18.6,209.1,0,238.9,0,270.1
		c0,1.4,0,2.9,0.1,4.3c0.7,30.1,17.5,58.3,47.4,79.4c29.8,21,69.2,32.6,111,32.6c87.4,0,158.5-51.1,158.5-114L317,271.2z M30,49.4
		C59.3,19.8,107.3,2.1,158.5,2.1c51.1,0,99.2,17.7,128.4,47.3c12.6,12.8,21.1,27.1,25.2,42.1c-6.8-16.7-21.3-31.9-42.4-44.3
		c-29.8-17.5-69.3-27.1-111.2-27.1c-41.9,0-81.4,9.6-111.2,27.1C26.2,59.6,11.7,74.9,4.9,91.5C8.9,76.5,17.4,62.2,30,49.4z
		 M2.8,122.5l-0.7-9.3c0-2.5,0.1-5,0.3-7.5C5.7,84,21.6,64,48,48.5c29.6-17.3,68.8-26.9,110.5-26.9c41.7,0,80.9,9.5,110.5,26.9
		c26.4,15.5,42.3,35.6,45.6,57.2c0.2,2.5,0.3,4.9,0.3,7.4l-0.7,9.3c-1.7,10.7-6.4,21-14.2,30.6c0.3-0.6,0.6-1.2,0.9-1.8
		c0.1-0.2,0.2-0.3,0.2-0.5c0.2-0.5,0.4-0.9,0.6-1.4c0.1-0.2,0.2-0.4,0.3-0.7c0.2-0.4,0.4-0.9,0.5-1.3c0.1-0.2,0.2-0.4,0.2-0.6
		c0.2-0.6,0.4-1.1,0.6-1.7c0-0.1,0.1-0.2,0.1-0.3c0.2-0.7,0.4-1.3,0.6-2c0.1-0.2,0.1-0.4,0.2-0.5c0.1-0.5,0.3-1,0.4-1.4
		c0.1-0.2,0.1-0.4,0.2-0.7c0.1-0.5,0.2-0.9,0.3-1.4c0-0.2,0.1-0.4,0.1-0.6c0.1-0.6,0.2-1.2,0.3-1.8c0-0.1,0-0.1,0-0.2
		c0.1-0.7,0.2-1.3,0.3-2c0-0.2,0-0.4,0.1-0.6c0.1-0.5,0.1-1,0.1-1.4c0-0.2,0-0.5,0.1-0.7c0-0.5,0.1-0.9,0.1-1.4c0-0.2,0-0.4,0-0.6
		c0-0.7,0-1.3,0-2c0-48.4-66.4-87.7-148-87.7c-81.6,0-148,39.3-148,87.7c0,0.7,0,1.4,0,2c0,0.2,0,0.4,0,0.6c0,0.5,0.1,0.9,0.1,1.4
		c0,0.2,0,0.5,0.1,0.7c0,0.5,0.1,1,0.1,1.4c0,0.2,0,0.4,0.1,0.6c0.1,0.7,0.2,1.3,0.3,2c0,0.1,0,0.1,0,0.2c0.1,0.6,0.2,1.2,0.3,1.8
		c0,0.2,0.1,0.4,0.1,0.6c0.1,0.5,0.2,0.9,0.3,1.4c0.1,0.2,0.1,0.4,0.2,0.7c0.1,0.5,0.3,1,0.4,1.4c0.1,0.2,0.1,0.4,0.2,0.5
		c0.2,0.7,0.4,1.3,0.6,2c0,0.1,0.1,0.2,0.1,0.3c0.2,0.6,0.4,1.1,0.6,1.7c0.1,0.2,0.2,0.4,0.2,0.6c0.2,0.5,0.4,0.9,0.6,1.4
		c0.1,0.2,0.2,0.4,0.3,0.6c0.2,0.5,0.4,1,0.7,1.4c0.1,0.2,0.1,0.3,0.2,0.5c0.3,0.6,0.6,1.2,0.9,1.8C9.2,143.4,4.5,133.1,2.8,122.5z
		 M23.3,160.6c-7.5-10.6-11.3-21.8-11.3-33.3C11.9,79.7,77.7,41,158.5,41C239.3,41,305,79.7,305,127.3c0,11.5-3.8,22.8-11.3,33.3
		c-7.1,9.9-17.1,18.9-29.8,26.6c-0.4-0.3-0.8-0.5-1.3-0.8c26.5-15.9,41-36.9,41-59.2c0-46.8-65.1-84.9-145.1-84.9
		S13.3,80.5,13.3,127.3c0,22.3,14.6,43.2,41,59.2c-0.4,0.3-0.8,0.5-1.3,0.8C40.4,179.4,30.3,170.5,23.3,160.6z M34.4,321.7l-0.2-0.3
		C25.5,307.8,21,293.1,21,277.9c0-25.8,11.8-49.1,34.2-67.4l0,18.5c-1.2,5.8-2.7,16.4-2.1,21.9c0.2,1.5,1.1,2.8,2.5,3.7l-2.1,10.1
		l0,0l-0.1,0.6l-0.2,0.8l0,0L50,284.6l0,28.3h24.3l0.1-1.7l0.2,0l8.3-41.9v0l3.3-16.4l0-0.1l7.6-38.2l0-26.4
		c8.7-3.4,17.9-6.2,27.6-8.2c0,0,0,0,0,0c-0.6,16.7-1.3,38.7-1.6,60.2c-1.2,4.4-1.7,9-1.6,13.6l0,0.5c-0.1,0.7-0.3,1.3-0.4,2
		c-0.1,0.3-0.1,0.7-0.2,1.1c-0.1,0.4-0.1,0.8-0.2,1.2c-0.1,0.5-0.1,1-0.2,1.5c0,0.3-0.1,0.5-0.1,0.8c-0.1,0.6-0.2,1.3-0.2,1.9
		c0,0.1,0,0.2,0,0.3c-0.7,6.3-1.1,13.8-1.3,22.3c0,0,0,0.1,0,0.1c0,0.8,0,1.6,0,2.4c0,0.5,0,1,0,1.5c0,0.7,0,1.3,0,2
		c0,0.7,0,1.5,0,2.2c0,0.5,0,1,0,1.5c0,1.3,0,2.6,0.1,4l0,0.7l83.4,0.1l0,0l0.7,0l0-0.1l5.5,0l0-0.7c0-1.4,0-2.7,0.1-4.1
		c0-0.6,0-1.1,0-1.7c0-0.7,0-1.5,0-2.2c0-0.7,0-1.4,0-2.1c0-0.5,0-1.1,0-1.6c0-0.8,0-1.6,0-2.3c0-0.4,0-0.7,0-1.1
		c0-0.9,0-1.7-0.1-2.6c0-0.2,0-0.3,0-0.5c-0.1-4.1-0.3-8-0.6-11.6c0-0.1,0-0.3,0-0.4c-0.1-0.7-0.1-1.5-0.2-2.2c0-0.3,0-0.5-0.1-0.8
		c-0.1-0.6-0.1-1.3-0.2-1.9c0-0.4-0.1-0.7-0.1-1c-0.1-0.5-0.1-1.1-0.2-1.6c-0.1-0.5-0.1-0.9-0.2-1.4c-0.1-0.4-0.1-0.8-0.2-1.1
		c-0.1-0.8-0.2-1.6-0.4-2.4c0-0.1,0-0.1,0-0.2c-0.1-0.7-0.3-1.4-0.4-2.1c0-0.2-0.1-0.4-0.1-0.6c-0.1-0.4-0.1-0.7-0.2-1.1
		c0-3.7-0.5-7.4-1.4-11l-2-59l0-1.5c55.9,12.9,96.7,51.6,96.7,97.2c0,15.7-4.7,30.8-14,44.8c-26.6,27.1-71.8,45-123,45
		C106.6,367.8,60.8,349.4,34.4,321.7z M21,228.6c0.4-0.6,0.7-1.2,1.1-1.8c0.2-0.4,0.5-0.8,0.7-1.2c0.2-0.3,0.4-0.6,0.6-0.9
		c10.4-15.8,26.6-29.4,46.7-39.7l-3.5,15.4c-2.4,1.5-4.3,2.8-6.6,4.5c-0.3,0.2-0.6,0.5-1,0.6c-0.6,0.2-1.2,0.3-1.9,0.8
		c-0.6,0.4-1.3,1-1.7,1.7c-0.3,0.5-0.7,1-1,1.3c-22.8,18.6-34.8,42.4-34.8,68.6c0,13.2,3.3,25.9,9.7,38
		c-12.4-15.1-18.9-32.2-18.9-49.7c0-12.9,3.6-25.5,10.4-37.3C20.9,228.8,20.9,228.7,21,228.6z M93.5,185.1l-1.8-9.3
		c9.8-3.4,20.1-6,31-7.9c-0.7,3.3-1.2,6.9-1.4,10.6c-9.7,2-18.9,4.7-27.6,8.2l0-1.6L93.5,185.1z M91.5,174.4l-0.6-3.3
		c10.5-3.5,21.6-6.2,33.1-8.1c-0.3,1.1-0.7,2.2-0.9,3.4C112,168.3,101.4,171,91.5,174.4z M92.2,185.6L92.2,185.6L85,225.2l-2.8-11.7
		l7.3-40l0.2-1.1L92.2,185.6z M92.3,193.1v21.4l-6.2,31.2l-0.2-17.3L92.3,193.1z M84.2,237.2L84.2,237.2l-1.1-6.5l-1.9-11.5l0.1-0.7
		l-0.2,0l0,0l-15.5-0.8l0-1.7l0-1.9l0.1-0.5L76,214l4.9,0.2l0.6,2.5l2.9,12.1l0.3,24.1l-0.4,2.1v-17.6l0-0.1L84.2,237.2z
		 M56.7,223.3l0-1.4l0-9.3c0.1,0.1,0.3,0.2,0.4,0.3c0.2,0.2,0.5,0.3,0.8,0.4c0.1,0,0.2,0.1,0.3,0.1c0.2,0.1,0.4,0.1,0.6,0.2
		c0.1,0,0.2,0,0.3,0.1c0.2,0,0.4,0.1,0.6,0.1c0.1,0,0.2,0,0.3,0c0.1,0,0.1,0,0.2,0c0.2,0,0.5,0,0.7,0c0.3,0,0.7-0.1,1-0.2
		c0.1,0,0.2-0.1,0.3-0.1c0.2-0.1,0.4-0.1,0.6-0.2c0.1,0,0.2-0.1,0.3-0.2c0.2-0.1,0.3-0.2,0.5-0.3c0.1-0.1,0.2-0.2,0.3-0.2
		c0.1-0.1,0.2-0.1,0.3-0.2l-0.1,5.4l0,0l-0.1,0v0l-0.6,0l-3,14.2c-0.1,0-0.2,0-0.3,0c-0.1,0-0.2,0-0.3,0c-0.1,0-0.3,0-0.4,0
		c-0.1,0-0.2,0-0.3-0.1c-0.1,0-0.3-0.1-0.4-0.1c-0.1,0-0.2,0-0.2-0.1c-0.2-0.1-0.4-0.2-0.6-0.3c-0.7-0.5-1.1-1.1-1.2-1.8
		c0-0.1,0-0.2,0-0.3L56.7,223.3z M64.2,209.7c0,0.1-0.1,0.2-0.1,0.3c0,0.1,0,0.1-0.1,0.2c-0.1,0.1-0.1,0.2-0.2,0.3
		c0,0,0,0.1-0.1,0.1c-0.1,0.1-0.2,0.3-0.4,0.4c-0.7,0.6-1.6,1.1-2.7,1.2c-1.1,0.1-2.1-0.1-2.9-0.6c-0.7-0.5-1.1-1.1-1.2-1.8
		c0-0.7,0.3-1.4,0.9-2c0.7-0.6,1.6-1,2.6-1.1c1-0.1,2,0.1,2.8,0.6c0.7,0.4,1.2,1.1,1.2,1.7c0,0.2,0,0.3,0,0.5
		C64.2,209.6,64.2,209.7,64.2,209.7z M63.7,206.2c-0.6-0.4-1.3-0.6-2-0.7c1.7-1.3,3.3-2.3,5.1-3.5l-1.4,6.2
		C65.2,207.4,64.6,206.7,63.7,206.2z M56.2,231.6c0,0,0.1,0.1,0.1,0.1c0,0,0.1,0.1,0.1,0.1c0.2,0.2,0.4,0.4,0.7,0.5
		c0.2,0.1,0.5,0.3,0.7,0.4c0.1,0,0.1,0.1,0.2,0.1c0.2,0.1,0.4,0.1,0.5,0.2c0.1,0,0.2,0,0.3,0.1c0.2,0,0.3,0.1,0.5,0.1
		c0.1,0,0.2,0,0.3,0c0.2,0,0.3,0,0.5,0l-0.2,1.1L56,253c-0.8-0.6-1.3-1.4-1.4-2.4C54.1,246.1,55.2,237.5,56.2,231.6z M57.9,251
		l4.1-19.4h0l2.6-12.5l0.5,0l0.5,0v0l14.1,0.7l-3.3,18.4l-5,27.3L55,264.7L57.9,251z M71.3,267.1l1.5,8.1l1.6,8.3l-1.5,27.9H51.4
		v-26.7l3.3-18.6L71.3,267.1z M72.6,266.4l4.7-26l3.1-17l1.5,9.1l0.8,4.9l-7.7,42.3L72.6,266.4z M75.8,283.6l7-38.4v16.9l-8,40.2
		L75.8,283.6z M86.7,180.7l-5.8,32.1l-4.2-0.2L66,212.1l9.7-43.7l13.1,0.7L86.7,180.7z M187.1,220.9c0.1,0.1,0.3,0.2,0.4,0.4
		c0.7,0.7,1.4,1.3,2,2c0,0,0,0,0,0c1.8,1.9,3.4,4,4.8,6.2c2.3,3.7,4.1,7.8,5.2,12c0.3,1.1,0.5,2.2,0.7,3.4l-0.6-1.9l-0.9-3.1h0h-6.5
		c-0.1-0.2-0.2-0.4-0.3-0.6c-0.1-0.3-0.2-0.5-0.3-0.8c-0.1-0.3-0.3-0.6-0.4-0.9c-0.1-0.2-0.2-0.5-0.3-0.7c-0.1-0.3-0.3-0.6-0.4-0.9
		c-0.1-0.2-0.2-0.5-0.4-0.7c-0.2-0.3-0.3-0.6-0.5-0.8c-0.1-0.2-0.3-0.5-0.4-0.7c-0.2-0.3-0.4-0.6-0.5-0.8c-0.1-0.2-0.3-0.4-0.4-0.7
		c-0.2-0.3-0.4-0.5-0.6-0.8c-0.1-0.2-0.3-0.4-0.4-0.6c-0.2-0.3-0.5-0.6-0.7-0.9c-0.1-0.2-0.3-0.4-0.4-0.5c-0.4-0.5-0.8-0.9-1.2-1.3
		c-6.6-7.1-15.5-11.1-25-11.1c0,0,0,0,0,0c-9.5,0-18.3,3.9-24.8,11c-0.4,0.4-0.8,0.9-1.2,1.3c-0.1,0.2-0.3,0.3-0.4,0.5
		c-0.2,0.3-0.5,0.6-0.7,0.9c-0.1,0.2-0.3,0.4-0.4,0.6c-0.2,0.3-0.4,0.6-0.6,0.8c-0.1,0.2-0.3,0.4-0.4,0.6c-0.2,0.3-0.4,0.6-0.5,0.8
		c-0.1,0.2-0.3,0.5-0.4,0.7c-0.2,0.3-0.3,0.6-0.5,0.9c-0.1,0.2-0.2,0.5-0.4,0.7c-0.1,0.3-0.3,0.6-0.4,0.9c-0.1,0.2-0.2,0.5-0.3,0.7
		c-0.1,0.3-0.3,0.6-0.4,0.9c-0.1,0.2-0.2,0.5-0.3,0.8c-0.1,0.2-0.2,0.4-0.3,0.7h-4.8l-3.1,7.2l-0.2,0c0.3-2.3,0.7-4.5,1.3-6.7
		c1.8-6.4,5.1-12.4,9.5-17.2c0.4-0.5,0.9-0.9,1.3-1.4c0.2-0.2,0.4-0.4,0.6-0.6c0.2-0.2,0.5-0.5,0.7-0.7c0.3-0.2,0.5-0.5,0.8-0.7
		c0.2-0.1,0.3-0.3,0.5-0.4c0.3-0.3,0.6-0.5,1-0.8c3.1-2.4,6.4-4.4,10-5.8c0,0,0.1,0,0.1,0c0.4-0.2,0.8-0.3,1.2-0.4
		c0.2-0.1,0.4-0.1,0.6-0.2c0.3-0.1,0.7-0.2,1.1-0.3c0.3-0.1,0.5-0.2,0.8-0.2c0.3-0.1,0.6-0.2,0.9-0.3c0.4-0.1,0.8-0.2,1.2-0.3
		c0.3-0.1,0.6-0.1,0.9-0.2c0.5-0.1,0.9-0.2,1.4-0.3c0.2,0,0.5-0.1,0.7-0.1c0.4-0.1,0.8-0.1,1.2-0.2c0.2,0,0.5-0.1,0.7-0.1
		c0.4,0,0.9-0.1,1.3-0.1c0.2,0,0.4,0,0.6,0c0.6,0,1.3,0,1.9,0c0.6,0,1.3,0,1.9,0.1c0.2,0,0.4,0,0.6,0c0.4,0,0.9,0.1,1.3,0.1
		c0.2,0,0.5,0,0.7,0.1c0.4,0,0.8,0.1,1.2,0.2c0.2,0,0.5,0.1,0.7,0.1c0.4,0.1,0.8,0.2,1.3,0.2c0.2,0,0.4,0.1,0.6,0.1
		c0.6,0.1,1.1,0.3,1.7,0.4c0.3,0.1,0.7,0.2,1,0.3c0.3,0.1,0.5,0.1,0.8,0.2c0.4,0.1,0.7,0.2,1.1,0.4c0.2,0.1,0.4,0.1,0.5,0.2
		c0.4,0.2,0.8,0.3,1.2,0.5c0.1,0,0.1,0.1,0.2,0.1c3.6,1.5,6.9,3.4,10.1,5.9h0C185.7,219.6,186.4,220.2,187.1,220.9z M116.9,298.2
		c0-1.3,0-2.6,0-3.9c0-0.5,0-1.1,0-1.6c0-0.7,0-1.3,0-2c0-0.7,0-1.4,0-2.1c0-0.4,0-0.8,0-1.1c0.1-10.5,0.6-19.6,1.6-26.9
		c0,0,0,0,0-0.1c0.1-0.7,0.2-1.4,0.3-2.1c0-0.1,0-0.2,0-0.3c0.2-1.3,0.4-2.6,0.6-3.7c0.1-0.3,0.1-0.6,0.2-0.9c0.1-0.3,0.1-0.7,0.2-1
		c0-0.1,0.1-0.2,0.1-0.4c0-0.2,0.1-0.4,0.1-0.6c0.1-0.4,0.2-0.7,0.3-1.1c0,0,0-0.1,0-0.1c0.2-0.6,0.3-1.2,0.5-1.7l78.9,0
		c0.1,0.2,0.1,0.4,0.2,0.6c0.1,0.2,0.1,0.5,0.2,0.7c0,0.1,0.1,0.2,0.1,0.3c0.1,0.3,0.2,0.6,0.2,1c0.1,0.4,0.2,0.7,0.3,1.1
		c0.1,0.4,0.2,0.9,0.3,1.3c0.1,0.2,0.1,0.5,0.2,0.7c0.1,0.5,0.2,1.1,0.3,1.6c0.1,0.6,0.2,1.3,0.3,1.9c0,0.3,0.1,0.6,0.1,0.9
		c0.1,0.6,0.2,1.2,0.2,1.8c0,0.2,0.1,0.4,0.1,0.6c0.1,0.7,0.2,1.4,0.2,2c0,0.1,0,0.3,0,0.4c0.1,0.8,0.2,1.5,0.2,2.3
		c0,0.1,0,0.1,0,0.2c0.4,4.4,0.7,9.2,0.8,14.5c0,0,0,0,0,0c0,0.9,0,1.9,0.1,2.8c0,0.3,0,0.6,0,0.8c0,0.8,0,1.6,0,2.5
		c0,0.5,0,0.9,0,1.4c0,0.7,0,1.5,0,2.2c0,0.7,0,1.3,0,2c0,0.6,0,1.2,0,1.8c0,1.3,0,2.6,0,4l-12.8,0v0.1l-61.3-0.1v0L116.9,298.2z
		 M167.8,237.9c-0.2-0.1-0.4-0.2-0.6-0.3c-0.2-0.1-0.5-0.2-0.8-0.3c-0.2-0.1-0.4-0.2-0.6-0.3c-0.3-0.1-0.5-0.2-0.8-0.3
		c-0.2-0.1-0.4-0.1-0.6-0.2c-0.3-0.1-0.6-0.1-0.8-0.2c-0.2,0-0.4-0.1-0.6-0.1c-0.3-0.1-0.6-0.1-0.9-0.1c-0.2,0-0.4-0.1-0.5-0.1
		c-0.5,0-1-0.1-1.5-0.1c0,0,0,0,0,0c-0.1,0-0.2,0-0.3,0c-2.9,0-5.6,0.8-8.1,2.2c0,0-0.1,0.1-0.1,0.1c-0.3,0.2-0.6,0.4-0.9,0.6
		c-0.1,0.1-0.3,0.2-0.4,0.3c-0.2,0.2-0.4,0.3-0.6,0.5c-0.2,0.1-0.3,0.2-0.5,0.4h-19.6c1.6-4,3.8-7.7,6.8-10.9
		c6.3-6.8,14.7-10.5,23.8-10.5c0,0,0,0,0,0c9.1,0,17.6,3.8,23.9,10.6c2.9,3.1,5.2,6.8,6.8,10.8h-19.8c-0.2-0.2-0.4-0.3-0.6-0.4
		c-0.2-0.1-0.4-0.3-0.5-0.4c-0.2-0.2-0.5-0.3-0.7-0.5c-0.2-0.1-0.4-0.3-0.6-0.4C168.2,238.1,168,238,167.8,237.9z M168.5,239.9h-2.6
		c-0.3-0.1-0.6-0.2-0.8-0.3c-0.2-0.1-0.4-0.1-0.6-0.2c-0.3-0.1-0.6-0.2-0.9-0.2c-0.2,0-0.4-0.1-0.6-0.1c-0.3-0.1-0.7-0.1-1-0.1
		c-0.2,0-0.3-0.1-0.5-0.1c-0.5,0-1-0.1-1.5-0.1c-0.5,0-1.1,0-1.6,0.1c0,0-0.1,0-0.1,0c-0.5,0-0.9,0.1-1.4,0.2
		c-0.2,0-0.5,0.1-0.7,0.2c-0.3,0.1-0.5,0.1-0.8,0.2c-0.2,0.1-0.5,0.2-0.7,0.2c-0.2,0.1-0.5,0.1-0.7,0.2h-2.6
		c0.1-0.1,0.3-0.2,0.4-0.3c0.1-0.1,0.2-0.2,0.4-0.2c0.3-0.2,0.6-0.3,0.9-0.5c0.1,0,0.2-0.1,0.2-0.1c0.4-0.2,0.8-0.4,1.2-0.5
		c0.1,0,0.2-0.1,0.3-0.1c0.3-0.1,0.6-0.2,0.9-0.3c0.1,0,0.3-0.1,0.4-0.1c0.3-0.1,0.6-0.1,0.8-0.2c0.1,0,0.3-0.1,0.5-0.1
		c0.3,0,0.6-0.1,0.9-0.1c0.1,0,0.3,0,0.4,0c0.4,0,0.9-0.1,1.3-0.1c0,0,0,0,0,0c0.4,0,0.9,0,1.3,0.1c0.1,0,0.3,0,0.4,0
		c0.3,0,0.6,0.1,0.9,0.1c0.2,0,0.3,0.1,0.5,0.1c0.3,0.1,0.5,0.1,0.8,0.2c0.1,0,0.3,0.1,0.4,0.1c0.3,0.1,0.6,0.2,0.9,0.3
		c0.1,0,0.2,0.1,0.3,0.1c0.4,0.2,0.8,0.3,1.2,0.5c0.1,0,0.2,0.1,0.3,0.1c0.3,0.1,0.6,0.3,0.9,0.5c0.1,0.1,0.2,0.2,0.4,0.2
		C168.2,239.7,168.3,239.8,168.5,239.9z M147.4,241.3h2.1h0.8h3.8h15.4h0.8h20.9h1.5h4.9l1.7,5.8l-77.9,0l2.5-5.8h3.3h1.5H147.4z
		 M296.9,278c0-46.4-41.4-85.8-98.2-98.7c-0.2-3.8-0.6-7.4-1.3-10.8c62.9,11.7,109.2,51.2,109.2,97.9c0,1,0,2-0.1,3.1
		c0,0.3,0,0.6-0.1,0.9c0,0.7-0.1,1.4-0.2,2.2c0,0.3-0.1,0.7-0.1,1c-0.1,0.8-0.2,1.5-0.3,2.3c0,0.3-0.1,0.5-0.1,0.8
		c-0.1,0.9-0.3,1.9-0.5,2.8c-0.1,0.4-0.2,0.8-0.3,1.3c-0.1,0.5-0.2,1.1-0.4,1.6c-0.1,0.5-0.2,1-0.4,1.5c-0.1,0.4-0.2,0.9-0.3,1.3
		c-0.6,2.1-1.2,4.2-2,6.2c-0.1,0.1-0.1,0.3-0.2,0.4c-3.4,9.1-8.7,17.7-15.4,25.6C293.4,305,296.9,291.7,296.9,278z M199.2,236.4
		c0-0.1,0-0.1-0.1-0.2c-0.1-0.2-0.2-0.4-0.2-0.6c-0.2-0.6-0.5-1.1-0.7-1.7c-0.1-0.2-0.2-0.5-0.3-0.7c-0.3-0.5-0.5-1.1-0.8-1.6
		c-0.1-0.2-0.2-0.4-0.3-0.6c-0.4-0.7-0.8-1.4-1.2-2.1c-0.1-0.1-0.1-0.2-0.2-0.3c-0.4-0.6-0.8-1.2-1.2-1.7c-0.1-0.2-0.3-0.4-0.4-0.6
		c-0.4-0.5-0.7-1-1.1-1.4c-0.1-0.2-0.3-0.4-0.4-0.6c-0.5-0.6-1.1-1.3-1.6-1.9c0,0,0,0,0,0c-0.7-0.7-1.4-1.4-2.1-2.1
		c-0.1-0.1-0.3-0.3-0.4-0.4c-3.8-3.5-8.1-6.3-12.7-8.1c0,0-0.1,0-0.1-0.1c-0.4-0.2-0.9-0.3-1.3-0.5c-0.2-0.1-0.3-0.1-0.5-0.2
		c-0.4-0.1-0.8-0.3-1.2-0.4c-0.2-0.1-0.5-0.1-0.7-0.2c-0.4-0.1-0.7-0.2-1.1-0.3c-0.6-0.1-1.1-0.3-1.7-0.4c-0.2-0.1-0.5-0.1-0.7-0.1
		c-0.4-0.1-0.8-0.2-1.3-0.2c-0.3,0-0.5-0.1-0.8-0.1c-0.4-0.1-0.8-0.1-1.2-0.2c-0.2,0-0.5-0.1-0.7-0.1c-0.4,0-0.9-0.1-1.3-0.1
		c-0.2,0-0.4,0-0.6,0c-0.7,0-1.3-0.1-2-0.1c-0.7,0-1.3,0-2,0.1c-0.2,0-0.4,0-0.6,0c-0.4,0-0.9,0.1-1.3,0.1c-0.2,0-0.5,0-0.7,0.1
		c-0.4,0-0.8,0.1-1.3,0.2c-0.2,0-0.5,0.1-0.7,0.1c-0.5,0.1-1,0.2-1.4,0.3c-0.3,0.1-0.7,0.1-1,0.2c-0.4,0.1-0.8,0.2-1.2,0.3
		c-0.3,0.1-0.7,0.2-1,0.3c-0.3,0.1-0.5,0.1-0.8,0.2c-0.4,0.1-0.7,0.2-1.1,0.4c-0.2,0.1-0.4,0.1-0.6,0.2c-0.4,0.2-0.8,0.3-1.3,0.5
		c0,0,0,0,0,0c-4.1,1.6-7.9,3.9-11.4,6.8c-0.2,0.1-0.3,0.3-0.5,0.4c-0.3,0.2-0.5,0.5-0.8,0.7c-0.3,0.2-0.5,0.5-0.8,0.7
		c-0.2,0.2-0.4,0.4-0.6,0.6c-0.5,0.5-0.9,0.9-1.4,1.4c-0.5,0.6-1,1.2-1.5,1.8c-0.2,0.2-0.3,0.4-0.4,0.6c-0.3,0.4-0.7,0.9-1,1.3
		c-0.2,0.2-0.3,0.4-0.4,0.6c-0.3,0.5-0.7,1-1,1.5c-0.1,0.2-0.2,0.3-0.3,0.5c-0.4,0.7-0.8,1.3-1.2,2c-0.1,0.2-0.2,0.3-0.3,0.5
		c-0.3,0.5-0.6,1.1-0.8,1.6c-0.1,0.2-0.2,0.5-0.3,0.7c-0.2,0.5-0.5,1-0.7,1.5c-0.1,0.2-0.2,0.4-0.3,0.7c0,0.1-0.1,0.2-0.1,0.3
		c0.3-20,1-40.1,1.6-55.7c0.4-12.4,3.8-22.8,9.9-30.8c7.2-9.4,16.9-14.6,27.4-14.6c10.5,0,20.3,5.2,27.6,14.7c5.9,7.6,9.2,18,9.8,30
		l0.1,3L199.2,236.4z M188.6,148.5c-7.6-9.8-17.8-15.2-28.7-15.2c-10.9,0-21,5.4-28.5,15.1c-2.9,3.8-5.3,8.2-6.9,13.1
		c-11.8,1.8-23.2,4.6-33.9,8.2l-0.1-0.8l-0.2-0.1l0.2-1L74.6,167l-2.2,9.9c-5.8,2.7-11.4,5.6-16.6,8.7
		c-26.5-15.7-41.1-36.4-41.1-58.4c0-46,64.5-83.5,143.7-83.5s143.7,37.4,143.7,83.5c0,22-14.6,42.7-41.1,58.4
		c-18.6-11.2-40.9-19.4-65.5-23.6C194,157,191.6,152.4,188.6,148.5z M158.6,384.3c-41.4,0-80.4-11.5-109.8-32.3
		c-14.6-10.3-26-22.3-33.9-35.5c25.1,38.1,80,64.7,143.6,64.7c21.2,0,41.3-2.9,59.8-8.3c0.2-0.1,0.5-0.1,0.7-0.2
		c0.7-0.2,1.4-0.4,2.1-0.6c0.7-0.2,1.4-0.4,2-0.6c0.3-0.1,0.5-0.2,0.8-0.3c16.8-5.4,32.3-12.8,45.8-22.2c6.8-4.7,13-9.9,18.4-15.3
		l0.2,0.2c0,0,0,0,0,0c0,0,0,0,0,0c3.4-3.4,6.5-6.9,9.3-10.5C271.6,359.6,219.1,384.3,158.6,384.3z M230.1,367.7
		c-0.2,0.1-0.4,0.1-0.6,0.2c-0.8,0.3-1.5,0.5-2.3,0.8c-0.5,0.2-1,0.3-1.5,0.5c-0.5,0.2-0.9,0.3-1.4,0.5c-0.8,0.3-1.7,0.5-2.5,0.8
		c-0.1,0-0.2,0.1-0.4,0.1c-19.6,6-40.9,9.2-63,9.2l-0.2,0c-0.8,0-1.6,0-2.3,0h0c-41.1-0.5-79.6-12-108.6-32.4
		c-28.9-20.4-45.1-47.4-45.5-76.1H1.8c0-0.4,0-0.7,0-1.1c0-38.1,28-71.8,70.3-91.5l-0.9,4.1l-0.2,0.1c-22.7,11.3-40,26.6-50.5,44
		c-0.1,0.1-0.1,0.2-0.2,0.3c-0.4,0.6-0.7,1.2-1.1,1.8c-0.2,0.4-0.5,0.9-0.7,1.3c-0.2,0.3-0.3,0.6-0.5,0.9c-0.4,0.7-0.8,1.4-1.1,2.2
		c0,0,0,0.1-0.1,0.1c-5.1,10.4-7.9,21.4-7.9,33c0,21.6,9.8,41.7,26.4,58.3l2.9,3l-0.4-0.7c27.2,25.5,71.2,42.2,120.7,42.2
		c48.7,0,92.1-16.1,119.4-41l-0.7,1.1l5.2-5.3c10.9-11.1,18.4-23.4,22.4-36.3c0.1-0.3,0.2-0.6,0.3-1c0.2-0.6,0.4-1.3,0.5-1.9
		c0.2-0.8,0.4-1.5,0.6-2.3c0.1-0.6,0.3-1.2,0.4-1.7c0.1-0.7,0.3-1.4,0.4-2.1c0.1-0.4,0.1-0.8,0.2-1.2c0.2-1.1,0.3-2.1,0.4-3.2
		c0-0.2,0-0.4,0.1-0.6c0.1-1,0.2-1.9,0.2-2.9c0-0.3,0-0.6,0.1-0.9c0.1-1.1,0.1-2.3,0.1-3.4c0-47.5-47.2-87.6-111-99.4
		c-0.3-1.2-0.6-2.3-0.9-3.4c68.3,11.8,119,55.1,119,106.5C315.2,312.5,280.6,349.4,230.1,367.7z"/>
</g>
</svg>