<svg height="960" viewBox="0 0 960 960" width="960" xmlns="http://www.w3.org/2000/svg"><g fill="none" fill-rule="evenodd" stroke="#000" stroke-linejoin="round"><ellipse cx="419.750897" cy="480" rx="363" ry="364" stroke-linecap="round" stroke-width="20" transform="matrix(.99756405 -.06975647 .06975647 .99756405 -32.460615 30.449598)"/><path d="m441.547021 843c169.84859-11.859561 296.166978-183.849578 282.140016-384.150453-14.026962-200.300876-163.087549-353.062744-332.93614-341.203182" stroke-linecap="round" stroke-width="20"/><path d="m252.342408 716.653833c97.368386-6.799037 169.320502-111.996262 160.709548-234.964579-8.610953-122.968316-94.524183-217.142124-191.892569-210.343087s-169.3205022 111.996262-160.7095488 234.964579c8.6109534 122.968316 94.5241828 217.142124 191.8925698 210.343087z" stroke-linecap="round" stroke-width="20"/><path d="m406.819941 110.914021c109.109825-7.638375 210.466945 32.943331 283.240212 103.627545 62.154659 2.917907 118.137197 29.991225 159.082822 72.271916 42.554911 43.942447 68.857025 104.319311 68.857025 170.971492 0 58.560031-20.305841 112.277162-54.095219 154.259401-32.833259 40.79429-78.400453 70.497776-130.474638 82.893447-61.889571 86.722683-160.550122 146.12895-275.044726 154.144293-132.318778 9.263148-253.238526-52.389949-325.605378-152.642473-50.3142816-40.536556-86.4389202-108.85664-92.0322415-188.731802-5.5675951-79.50778 20.4166877-151.885631 64.2358275-199.052272 57.529571-110.003981 169.031996-188.444408 301.836316-197.741547z" stroke-width="40"/><g stroke-linecap="round" stroke-width="20"><path d="m797.750897 305c16.92204 1.047866 29.893927 2.640162 38.915663 4.776889s21.383181 6.544431 37.084337 13.223111"/><path d="m765.750897 262c16.92204 1.047866 29.893927 2.640162 38.915663 4.776889s21.383181 6.544431 37.084337 13.223111"/><path d="m831.750897 561c17.249094-1.735822 31.572002-5.044758 42.968725-9.92681 11.396723-4.882051 22.407148-11.573115 33.031275-20.07319"/><path d="m843.750897 498c12.645326-1.315475 20.293004-2.222045 22.943037-2.719709 28.829455-5.414036 35.614465-9.552714 41.056963-13.280291"/><path d="m826.750897 360c31.526992 2.201845 53.526992 5.535178 66 10"/><path d="m837.750897 427c16.174675-1.514172 28.289275-2.501387 36.3438-2.961645 8.054526-.460259 19.273259-.806377 33.6562-1.038355"/><path d="m809.750897 612c33.214118-5.652151 53.880784-10.985484 62-16"/></g></g></svg>