<?xml version="1.0" encoding="utf-8"?>
<!-- Generator: Adobe Illustrator 21.0.0, SVG Export Plug-In . SVG Version: 6.00 Build 0)  -->
<svg version="1.1" id="Layer_1" xmlns="http://www.w3.org/2000/svg" xmlns:xlink="http://www.w3.org/1999/xlink" x="0px" y="0px"
	 viewBox="0 0 1417.3 1417.3" style="enable-background:new 0 0 1417.3 1417.3;" xml:space="preserve">
<style type="text/css">
	.fillpulse {
	animation: fillpulse 5s infinite;
}

@keyframes fillpulse {
	0%, 20%, 44%, 68%, 100% {
		fill: rgba(255,255,255,0);
	}
	32%, 56%, 80% {
		fill: #0074CC;
	}
}

.move {
	animation: move 5s infinite;
}

@keyframes move {
	0%, 100% {
		transform: translate3d(0px, 0px, 0px);
        animation-timing-function: ease-in;
	}
    20%, 44%, 68% {
        transform: translate3d(0px, 220px, 0px);
        animation-timing-function: ease-out;
    }
    32%, 56%, 80% {
	    transform: translate3d(0px, 290px, 0px);
        animation-timing-function: ease-out;
    }
}
</style>
<path d="M749.2,517.1c-1.3-2.1-3.6-3.3-6-3.3h-34.9h-34.9c-2.4,0-4.7,1.2-6,3.3l-4.9,7.8c-3,4.7,0.4,10.9,6,10.9h39.8h39.8
	c5.6,0,9-6.1,6-10.9L749.2,517.1z"/>
<g>
	<g>
		<path d="M626.1,1329.4c0.8,0.1,1.6,0.2,2.4,0.3c-0.3-3.3-0.5-4.9-0.8-8.1c-8.1-0.9-12.1-1.4-20.1-2.6c-0.5-4.4-0.8-6.6-1.3-11.1
			c7.8,1.1,15.7,2.1,23.5,3c-0.3-3.5-0.5-5.3-0.8-8.8c-11.5-1.3-23-2.9-34.5-4.6c1.1,8.5,2.2,17,3.4,25.5
			C607.2,1325.4,616.6,1327.5,626.1,1329.4z"/>
		<path d="M643.3,1332.4c-0.8-9.7-1.5-19.4-2.3-29.1c-4.3-0.4-6.5-0.6-10.8-1.1c0.9,9.5,1.7,19,2.6,28.5
			C636.2,1331.3,639.7,1331.8,643.3,1332.4z"/>
		<path d="M658,1334.4c-0.1-1.1-0.1-2.2-0.2-3.5c4.6,0.3,6.9,0.5,11.5,0.7c2.3,0.1,4.1,0.7,5.6,1.8c0.8,0.6,1.4,1.6,1.8,2.7
			c3.5,0.3,7.1,0.5,10.6,0.7c-0.4-1.7-1-3.3-2-4.7c-1.5-2.1-3.8-3.7-6.8-4.7c2.1-0.9,3.7-2.2,4.8-3.7c1.1-1.6,1.6-3.5,1.5-5.9
			c-0.1-2.2-0.5-4.1-1.3-5.6c-0.8-1.5-1.9-2.8-3.3-3.7c-1.4-1-3.1-1.7-5-2.2c-2-0.5-4.1-0.8-6.5-0.9c-7.7-0.4-15.5-1-23.2-1.6
			c0.7,9.8,1.4,19.6,2.2,29.4C651,1333.5,654.5,1333.9,658,1334.4z M669.5,1313.7c0.9,0.2,1.7,0.5,2.4,1c0.7,0.4,1.3,1,1.7,1.7
			c0.4,0.7,0.7,1.6,0.7,2.8c0.1,2-0.5,3.4-1.7,4.2c-1.2,0.8-2.7,1.2-4.6,1.1l0,0c-4.3-0.2-6.4-0.4-10.7-0.7
			c-0.3-4.4-0.4-6.7-0.7-11.1c4,0.3,6,0.4,10.1,0.7C667.7,1313.3,668.6,1313.5,669.5,1313.7z"/>
		<path d="M708.2,1337.3c3.6,0,7.1-0.1,10.7-0.1c1.9,0,3.9-0.1,5.8-0.2c-3.7-10.2-7.4-20.5-11.3-30.6c-4.5,0-6.7,0-11.2,0
			c-3.9,10.2-7.7,20.4-11.4,30.6C696.7,1337.2,702.4,1337.3,708.2,1337.3z M707.7,1318.1c0.1,0,0.1,0,0.1,0c2.5,7,3.7,10.4,6,17.4
			c-4.9,0-7.4,0-12.4,0C704,1328.5,705.2,1325,707.7,1318.1z"/>
		<path d="M740.7,1336.1c0-0.5,0-1,0.1-1.6c4.2-0.2,6.3-0.3,10.5-0.6c2-0.1,3.6,0.1,4.7,0.7c3.9-0.4,7.8-0.9,11.7-1.5c0,0,0,0,0,0
			c-0.5-1-1.1-1.8-1.9-2.4c-0.8-0.7-1.8-1.1-3.1-1.4c0-0.1,0-0.1,0-0.1c2.8-1.3,4.8-3,6.1-5.1c1.3-2.1,2.1-4.6,2.3-7.4
			c0.1-1.8-0.1-3.5-0.6-5c-0.5-1.5-1.4-2.8-2.6-3.9c-1.2-1.1-2.6-1.9-4.4-2.5c-1.7-0.6-3.7-0.8-5.9-0.6c-8.9,0.6-17.8,1-26.6,1.3
			c-0.3,10.2-0.5,20.5-0.8,30.7C733.7,1336.5,737.2,1336.3,740.7,1336.1z M741.6,1313.7c4.7-0.2,7.1-0.3,11.8-0.6
			c2.5-0.2,4.3,0.2,5.5,1.2c1.2,1,1.7,2.6,1.5,4.9c-0.1,2.4-0.9,4.2-2.1,5.3c-1.3,1.1-3.1,1.8-5.6,2v0c-4.6,0.3-7,0.4-11.6,0.6
			C741.3,1321.7,741.4,1319,741.6,1313.7z"/>
		<path d="M782.4,1330.9c-0.1-1.5-0.2-2.9-0.1-4.5c0.2-2.1,0.6-4.1,1.2-6.1c0.7-2,1.6-3.8,2.7-5.5c1.2-1.6,2.7-3,4.4-4.1
			c1.8-1.1,3.9-1.8,6.3-2.1c2.4-0.3,4.4-0.1,6,0.6c1.6,0.7,2.8,1.7,3.7,3.1c0.9,1.4,1.4,3,1.6,4.9c0.2,1.9,0.2,3.9,0,6
			c-0.1,0.8-0.3,1.6-0.4,2.4c3.6-0.9,7.1-1.8,10.7-2.7c0.1-0.4,0.2-0.9,0.2-1.3c0.5-3.6,0.4-6.8-0.3-9.7c-0.7-2.9-1.9-5.3-3.7-7.3
			c-1.8-2-4.1-3.4-6.9-4.3c-2.8-0.9-6.2-1.1-10-0.6c-3.8,0.5-7.2,1.5-10.4,3.1c-3.1,1.6-5.8,3.7-8.1,6.1c-2.2,2.5-4,5.3-5.4,8.4
			c-1.3,3.1-2.1,6.5-2.4,10c-0.1,1.8-0.1,3.5,0.1,5.1C775.4,1332,778.9,1331.5,782.4,1330.9z"/>
	</g>
</g>
<path d="M874.9,526.5c13.9-29.6,21.8-63.4,21.8-99.2c0-8.9-0.5-17.7-1.5-26.4h0c0-0.2,0-0.3,0-0.5c-0.7-6.7-1.8-13.2-3-19.7
	c-15.8-52.4-92-92.1-183.6-92.1c-89.9,0-164.9,38.2-182.7,89.1c-3.4,15.9-5.2,32.5-5.2,49.6c0,35.7,7.8,69.4,21.7,98.9
	c-153.4,64.8-261,216.6-261,393.5c0,127.5,55.9,241.9,144.4,320.1c0,0,0,0,0,0c0.3,0.2,0.5,0.5,0.8,0.7c1.7,1.5,3.5,3,5.2,4.5
	c0.7,0.6,1.4,1.2,2.1,1.8c1.7,1.5,3.5,2.9,5.3,4.4c0.7,0.6,1.5,1.2,2.2,1.8c1.8,1.4,3.5,2.8,5.3,4.2c0.8,0.6,1.5,1.2,2.3,1.7
	c1.8,1.4,3.6,2.8,5.5,4.1c0.7,0.5,1.4,1,2.1,1.6c1.9,1.4,3.8,2.8,5.8,4.2c0.6,0.4,1.1,0.8,1.7,1.2c9.3,6.5,18.9,12.6,28.7,18.4
	c0.6,0.4,1.3,0.8,1.9,1.1c1.9,1.1,3.8,2.1,5.6,3.2c1,0.6,2,1.1,3,1.7c1.8,1,3.5,1.9,5.3,2.8c1.2,0.6,2.3,1.2,3.5,1.8
	c1.7,0.9,3.4,1.7,5.1,2.6c1.2,0.6,2.5,1.3,3.8,1.9c1.7,0.8,3.4,1.6,5.1,2.4c1.3,0.6,2.6,1.2,4,1.8c1.7,0.8,3.3,1.5,5,2.3
	c1.4,0.6,2.7,1.2,4.1,1.8c1.7,0.7,3.3,1.4,5,2.1c1.4,0.6,2.9,1.2,4.3,1.7c1.6,0.7,3.3,1.3,4.9,2c1.5,0.6,3,1.1,4.5,1.7
	c1.6,0.6,3.2,1.2,4.9,1.8c1.6,0.6,3.1,1.1,4.7,1.6c1.6,0.6,3.2,1.1,4.8,1.7c1.7,0.6,3.4,1.1,5.2,1.7c1.5,0.5,2.9,1,4.4,1.4
	c3.1,1,6.3,1.9,9.4,2.8c1.2,0.3,2.4,0.7,3.7,1c2,0.6,4.1,1.1,6.1,1.7c1.4,0.4,2.8,0.7,4.3,1.1c1.9,0.5,3.7,0.9,5.6,1.4
	c1.5,0.3,3,0.7,4.4,1c1.8,0.4,3.7,0.8,5.5,1.2c1.5,0.3,3,0.6,4.5,0.9c1.8,0.4,3.7,0.7,5.5,1.1c1.5,0.3,3.1,0.5,4.6,0.8
	c1.9,0.3,3.7,0.6,5.6,0.9c1.5,0.2,3.1,0.5,4.6,0.7c1.9,0.3,3.8,0.5,5.7,0.8c1.5,0.2,3.1,0.4,4.6,0.6c1.9,0.2,3.8,0.5,5.8,0.7
	c1.5,0.2,3,0.3,4.6,0.5c2,0.2,4,0.4,6,0.5c1.5,0.1,3,0.3,4.4,0.4c2.1,0.2,4.2,0.3,6.3,0.4c1.4,0.1,2.8,0.2,4.2,0.2
	c2.3,0.1,4.7,0.2,7,0.3c1.2,0,2.3,0.1,3.5,0.1c3.5,0.1,7.1,0.1,10.6,0.1s7.1,0,10.6-0.1c1.2,0,2.3-0.1,3.5-0.1
	c2.3-0.1,4.7-0.2,7-0.3c1.4-0.1,2.8-0.2,4.2-0.2c2.1-0.1,4.2-0.2,6.3-0.4c1.5-0.1,3-0.2,4.4-0.4c2-0.2,4-0.3,6-0.5
	c1.5-0.1,3-0.3,4.6-0.5c1.9-0.2,3.9-0.4,5.8-0.7c1.5-0.2,3.1-0.4,4.6-0.6c1.9-0.3,3.8-0.5,5.7-0.8c1.5-0.2,3.1-0.5,4.6-0.7
	c1.9-0.3,3.7-0.6,5.6-0.9c1.5-0.3,3.1-0.5,4.6-0.8c1.9-0.3,3.7-0.7,5.5-1.1c1.5-0.3,3-0.6,4.5-0.9c1.9-0.4,3.7-0.8,5.5-1.2
	c1.5-0.3,3-0.6,4.4-1c1.9-0.4,3.8-0.9,5.6-1.4c1.4-0.4,2.9-0.7,4.3-1.1c2.1-0.5,4.1-1.1,6.1-1.7c1.2-0.3,2.4-0.7,3.7-1
	c3.2-0.9,6.3-1.8,9.4-2.8c1.5-0.5,2.9-0.9,4.4-1.4c1.7-0.6,3.4-1.1,5.2-1.7c1.6-0.5,3.2-1.1,4.8-1.7c1.6-0.5,3.1-1.1,4.7-1.6
	c1.6-0.6,3.3-1.2,4.9-1.8c1.5-0.6,3-1.1,4.5-1.7c1.7-0.6,3.3-1.3,4.9-2c1.4-0.6,2.9-1.2,4.3-1.7c1.7-0.7,3.3-1.4,5-2.1
	c1.4-0.6,2.7-1.2,4.1-1.8c1.7-0.7,3.3-1.5,5-2.3c1.3-0.6,2.6-1.2,4-1.8c1.7-0.8,3.4-1.6,5.1-2.4c1.3-0.6,2.5-1.2,3.8-1.9
	c1.7-0.9,3.4-1.7,5.1-2.6c1.2-0.6,2.3-1.2,3.5-1.8c1.8-0.9,3.6-1.9,5.3-2.8c1-0.5,2-1.1,3-1.7c1.9-1.1,3.8-2.1,5.6-3.2
	c0.6-0.4,1.3-0.8,1.9-1.1c9.8-5.8,19.4-11.9,28.7-18.4c0.6-0.4,1.2-0.8,1.7-1.2c1.9-1.4,3.9-2.8,5.8-4.2c0.7-0.5,1.4-1,2.1-1.6
	c1.8-1.4,3.7-2.8,5.5-4.1c0.8-0.6,1.5-1.2,2.3-1.7c1.8-1.4,3.6-2.8,5.3-4.2c0.8-0.6,1.5-1.2,2.2-1.8c1.8-1.4,3.5-2.9,5.3-4.4
	c0.7-0.6,1.4-1.2,2.1-1.8c1.8-1.5,3.5-3,5.2-4.5c0.3-0.2,0.5-0.5,0.8-0.7c0,0,0,0,0,0c88.6-78.2,144.4-192.6,144.4-320.1
	C1135.2,743,1027.9,591.4,874.9,526.5z M525.6,427.3c0-16.1,1.7-32.4,5-48.2c8.3-23.5,30.2-45,61.7-60.5
	c32.6-16.1,73.8-24.9,116.2-24.9c43.2,0,85.1,9.2,118,25.9c31.8,16.2,53.4,38.3,60.8,62.5c1.2,6.1,2.2,12.5,2.9,18.8
	c0,0.1,0,0.1,0,0.2l0,0l0,4.9h0.5c0.7,7.3,1,14.4,1,21.4c0,34-7.4,67.5-21.4,97.3c-50-20.5-104.7-31.8-162-31.8
	c-57.1,0-111.6,11.2-161.3,31.5C533,494.5,525.6,461.1,525.6,427.3z M413,624.4c78.9-78.9,183.7-122.3,295.3-122.3
	s216.4,43.4,295.3,122.3c4.3,4.3,8.6,8.8,12.7,13.3c-30.1-27.1-64.1-50.2-100.7-68.4c-63.5-31.6-135.2-48.2-207.3-48.2
	S564.5,537.8,501,569.3c-36.6,18.2-70.6,41.3-100.7,68.4C404.4,633.2,408.6,628.8,413,624.4z M987.1,1230.5
	c-76.7,69-174.9,106.8-278.9,106.8s-202.1-37.8-278.9-106.8c0-0.2,0-0.4,0-0.7c0-29.2,28.5-57,80.2-78.3
	c53-21.8,123.6-33.9,198.7-33.9s145.7,12,198.7,33.9c51.7,21.3,80.2,49.1,80.2,78.3C987.1,1230.1,987.1,1230.3,987.1,1230.5z
	 M1003.5,1215c-3.9,3.9-7.8,7.6-11.8,11.3c-4.5-62.9-129.7-113.3-283.5-113.3s-278.9,50.4-283.5,113.3c-4-3.7-8-7.5-11.8-11.3
	c-78.9-78.9-122.3-183.7-122.3-295.3c0-89.5,28-174.8,79.9-245.7c37-41.1,82.3-75.5,132.6-100.5c62.9-31.2,133.8-47.7,205.2-47.7
	c71.4,0,142.3,16.5,205.2,47.7c50.3,25,95.5,59.4,132.6,100.5c51.8,70.9,79.9,156.2,79.9,245.7
	C1125.8,1031.3,1082.4,1136.1,1003.5,1215z"/>
<circle cx="780.1" cy="528.7" r="9"/>
<g>
	<path class="move" d="M778.3,71.2c-22,1.4-40.3,18.7-42.8,40.6c-2.6,23.4,12.3,43.7,33.3,49.6c1.5,0.4,2.6,1.9,2.6,3.4v72.4
		c0,4.1,3.3,7.4,7.4,7.4h5c4.1,0,7.4-3.3,7.4-7.4v-72.4c0-1.6,1-3,2.6-3.4c19.4-5.4,33.6-23.2,33.6-44.3
		C827.3,90.7,805,69.5,778.3,71.2z M803.9,127.7h-39.7v-23.2h6.3v16.3h9.9V105h6.4v15.9h17.1V127.7z"/>
</g>
<circle class="fillpulse" cx="780.1" cy="528.7" r="7.2"/>
</svg>