<svg height="960" viewBox="0 0 960 960" width="960" xmlns="http://www.w3.org/2000/svg"><g fill="none" fill-rule="evenodd"><path d="m369.474754 136.812066c25.331792-1.326883 47.646785 2.514004 59.451538 9.290238 20.836311-.046563 37.652038.979855 50.448127 3.079584 24.469509 1.107542 48.559776 5.420983 71.733349 12.648535l98.868556-16.830169c82.812197 6.10008 159.296498 51.319735 204.055412 122.729632l4.968232 270.873446c-26.137484 45.231135-65.799184 82.837985-115.59047 106.164016l-59.197102 19.650136c-4.257043.876598-8.516496 1.644132-12.775096 2.304263-10.013493 9.476151-20.760563 18.256116-32.192542 26.234841-65.965027 49.356191-135.50195 85.940306-208.614209 109.748793-6.021388 2.53471-12.189114 4.824357-18.494503 6.865747-146.762226 47.514462-312.5277822-57.45874-370.2479945-234.464264-57.7197686-177.005667 14.4631927-359.015237 161.2253375-406.529951 23.328261-7.552555 47.136661-11.25236 70.914958-11.42253 12.439176-1.391167 24.386383-2.651027 35.841625-3.779573 10.483124-8.508036 33.106617-15.174766 59.604782-16.562744z" stroke="#000" stroke-linecap="round" stroke-linejoin="round" stroke-width="40"/><g fill="#000" transform="translate(281.706162 322.727512)"><ellipse cx="243.518682" cy="144.843997" rx="31.435801" ry="41.73512" stroke="#000" stroke-width="22" transform="matrix(.95105652 -.30901699 .30901699 .95105652 -32.840604 82.340581)"/><path d="m44.8971685 155.13184c16.2397183-5.150133 23.761908-26.27535 16.801281-47.184493-6.960627-20.9091426-25.7682229-33.6843443-42.0079412-28.5342114-16.23971837 5.1501329-23.76190813 26.2753494-16.80128112 47.1844924s25.76822292 33.684344 42.00794132 28.534212z" stroke="#000" stroke-width="22"/><path d="m573.654101 29.2625372c7.559098-2.3612502 17.392192-5.203395 29.499282-8.5264344 18.160634-4.9845592 32.077045 3.1186776 38.064018 18.8917591 5.986974 15.7730814.440534 48.3882366-35.451661 58.8203193-23.928129 6.9547218-34.632009 10.5628238-32.111639 10.8243068z"/><path d="m582.787912 14.0365559c10.366764-3.253278 23.852151-7.16912193 40.456159-11.74753186 24.906013-6.8676149 43.991376 4.29684477 52.202082 26.02864586 8.210706 21.7318012.604161 66.6682371-48.61942 81.0413291-32.815721 9.582061-47.495328 14.553224-44.038821 14.913489z"/></g><g stroke="#000" stroke-linecap="round" stroke-linejoin="round"><path d="m851.997856 272.816003-140.30185 35.086706" stroke-width="20"/><path d="m500.780518 748.062569c-13.352345 8.075695-29.516189 11.495161-48.491531 10.258398-85.33738-6.75148-168.61241-66.050433-218.017598-157.174819l10.713397-2.639523v-101.892331l-47.405956-23.632138-4.696436.743582c-4.567252-34.612344-3.892061-68.547344 1.507608-100.448275l25.815824-3.960941 21.930686-3.355439 2.848274-83.256411-21.081225 2.960898c20.007527-37.213007 48.299548-67.775782 83.446585-87.944031l1.067158-.607974c35.958456-19.19881 64.074244-23.733972 84.347364-13.605486" stroke-width="20"/><path d="m647.023948 675.552969c82.952356-79.73188 118.422591-200.746118 81.234156-315.181207-30.033076-92.416843-100.933457-160.458675-187.144924-191.52044" stroke-width="20"/><path d="m859.057953 534.241753-147.360498 52.69183" stroke-width="20"/><path d="m91.9453854 489.486496 105.8852766-16.816059 47.53833 23.755171v102.422798l-110.421081 27.245637c-19.360214-32.464025-32.256095-64.627069-38.687643-96.489131l-.7349704.164107z" stroke-width="20"/><path d="m245.368992 282.909661-110.083908 15.441977c-19.843686 30.032081-32.944431 60.212559-39.3022352 90.541435 45.6842792-7.134978 94.5272422-14.668517 146.5288862-22.600617z" stroke-width="20"/><path d="m412.325301 809.920666c146.720932-47.533952 218.884065-229.616272 161.180869-406.692244s-223.421695-282.090529-370.142627-234.556577c-146.7209326 47.533952-218.884066 229.616272-161.18087 406.692244 57.7031961 177.075972 223.421695 282.090528 370.142628 234.556577z" stroke-width="40"/><path d="m407.36223 811.533265c143.982737-46.644258 213.928421-228.006085 156.228057-405.082977s-221.196822-282.813434-365.179559-236.169176c-143.982738 46.644259-213.9284217 228.006085-156.2280577 405.082978 57.700364 177.076892 221.1968217 282.813434 365.1795597 236.169175z" stroke-width="40"/><path d="m343.82691 177.935614c61.196962-14.227678 110.992343-20.099168 149.386143-17.614469" stroke-width="20"/></g></g></svg>