<svg height="960" viewBox="0 0 960 960" width="960" xmlns="http://www.w3.org/2000/svg"><g fill="none" fill-rule="evenodd" stroke="#000"><path d="m920.766244 223.399843c-5.979642 40.46509-19.512518 87.228248-40.179001 139.029862-27.537828 69.016334-66.038333 143.963349-117.809448 229.144726-38.710317 56.892552-77.787806 107.2771-116.026046 149.63161-47.522422 52.588872-95.569374 94.943383-142.881984 125.856403-54.970749 35.89899-110.361121 57.364907-164.649981 63.662975-29.740853 3.463938-59.796425 2.466744-89.275013-2.991582-31.261991-5.77323-62.8387-16.689882-93.838425-32.435053-33.255205-16.899817-60.0062374-40.255154-79.6236611-69.383721-17.7815685-26.399404-29.8457595-57.889747-35.930308-93.578801-5.5075655-32.277602-6.1370015-67.914172-1.8358552-105.912519 3.8815223-34.219506 11.592114-69.593657 22.921963-105.020292 25.2823481-78.935792 69.3953253-153.830324 131.1325113-222.689206 28.272169-31.542826 60.216049-61.616103 94.939938-89.485056 33.097846-26.556856 68.870795-51.171807 106.269787-73.110079 71.388539-41.8821556 148.022378-73.7398854 221.509037-92.0042841 46.420909-11.5464589 90.219168-17.3721722 129.558921-17.3721722 22.030262 0 42.59184 1.8369366 61.474922 5.5108099 27.170656 5.3008743 49.882807 14.6430093 67.611922 27.7639853 16.312885 12.071298 28.7967 27.7639853 37.084274 46.6057071 13.375516 30.125761 16.57515 69.436205 9.546447 116.776687z" stroke-linecap="round" stroke-linejoin="round" stroke-width="40"/><g fill="#020204" fill-rule="nonzero" stroke-width="5"><path d="m185.836654 430.24724c6.815836-1.944898 13.995877-2.680805 21.07186-1.997462 7.023954.683342 13.371527 2.733369 18.93866 5.782127 5.931339 3.311583 10.92615 7.727026 14.776317 12.930941 3.433933 4.678267 6.035398 10.092441 7.596276 16.032263.624352 1.734638 1.092615 3.521841 1.508849 5.309044 1.50885 6.5706 1.664938 13.456589.520293 20.395142-1.144644 7.043683-3.59002 13.877107-7.180041 20.237447-3.590021 6.360341-8.220627 12.089904-13.787761 16.97843-5.775251 5.098785-12.278911 9.09371-19.302865 11.879644-7.075983 2.785934-14.360083 4.205184-21.644183 4.205184-7.700334 0-14.984434-1.576944-21.696212-4.678267-6.763807-3.101323-12.539058-7.67446-17.169664-13.509153-4.630607-5.887257-7.804393-12.668116-9.365272-20.184882-1.560878-7.359072-1.45682-15.033533.260147-22.813123.468263-2.102592 1.040585-4.205183 1.716966-6.255211 1.768996-6.518035 4.578577-12.615551 8.220627-18.08229 4.318431-6.46547 9.729477-12.089904 15.920962-16.557911 5.983368-4.362879 12.695146-7.674461 19.615041-9.671923zm16.454475 17.75276c-3.839276 0-7.731145.575672-11.675607 1.674682-5.364469 1.51768-10.360787 3.925035-14.88377 7.169731-4.785947 3.454031-8.888188 7.640736-12.148943 12.455446-3.208162 4.762376-5.417061 9.891089-6.626696 15.229137-1.209635 5.390382-1.262228 10.623762-.210371 15.595474.105185.366336.157778.680339.262964 1.046676 1.209635 3.244696 2.840012 6.175389 4.943725 8.792079 2.997791 3.768034 6.942253 6.803395 11.517829 8.896747 4.470391 2.041018 9.624488 3.140028 15.304513 3.140028 5.627432 0 11.044493-1.09901 16.145997-3.087694 5.417062-2.093353 10.41338-5.181047 14.778585-8.949081 4.207426-3.663366 7.836331-7.954738 10.571158-12.769448 1.420006-2.459689 2.577048-5.024046 3.471126-7.640736.262964-1.203677.525929-2.355021.7363-3.558699.788892-4.81471.683707-9.472418-.315557-13.868458-.946671-4.291372-2.78742-8.216407-5.364468-11.670438-2.629642-3.506365-5.94299-6.332391-9.729673-8.425743-3.891869-2.093352-8.309667-3.401697-13.095614-3.872702-1.209635-.104667-2.41927-.157001-3.681498-.157001z"/><path d="m411.811532 191.388684c9.234672 2.775093 17.165012 5.229984 24.677965 7.738241-7.14774 8.592117-14.138961 18.144842-20.973662 28.551443-.782599 1.174078-1.147812 2.45489-1.252159 3.78907-1.043466 1.814484-1.356505 3.895804-.991292 5.977124.417386 2.294789 1.721718 4.216008 3.599957 5.550187 1.408678.96061 3.02605 1.494281 4.695596 1.494281.573906 0 1.095639-.053367 1.669545-.160101 2.243451-.426938 4.12169-1.761117 5.426022-3.682336 8.504246-13.074959 17.478052-24.762372 26.66055-34.795403 13.669402 5.069883 27.91271 10.99364 43.512523 18.038108 4.27821 1.921219 9.286846-.053367 11.217257-4.429476 1.147813-2.614992.886946-5.49682-.417386-7.791609-.15652-2.775093-1.773892-5.336718-4.382556-6.510796-12.730283-5.710289-23.94754-10.459968-34.382198-14.569241 7.512954-6.564163 15.286774-12.221085 23.112767-16.86403 4.069517-2.401523 5.478196-7.684874 3.130398-11.847514-.052174-1.120711-.365213-2.241422-.93912-3.308766-2.034758-3.628968-6.521661-4.856413-10.069444-2.82846-12.156376 7.097835-23.79102 16.27699-35.008277 27.430732-11.686817-4.109273-22.956247-7.631508-34.851757-11.207109-3.912996-1.174078-7.982513 1.120711-9.130325 5.12325-.15652.533672-.260867 1.120711-.260867 1.654382-.313039.587039-.626079 1.227446-.782599 1.867852-.62608 2.241421-.365213 4.589578.730426 6.61753.991292 2.027953 2.817358 3.468867 5.008636 4.162641z"/><path d="m706.45214 290.652388c-19.483157-11.899341-37.810978-21.876081-55.193525-30.293955-17.435062-8.469836-33.872334-15.276883-49.521878-20.888799-3.833613-1.402979-8.087348.571584-9.505259 4.416786-.262577.675508-.367607 1.402979-.420122 2.078487-.262577.415698-.472638.831395-.630183 1.299055-1.627973 4.364824.682698 9.249269 5.093979 10.808135 16.01715 5.71584 31.719209 12.367 47.94642 20.21329 17.330032 8.417874 35.447792 18.342652 53.828128 29.514522 1.417912.831395 2.940854 1.247092 4.463796 1.247092 2.888339 0 5.671647-1.402979 7.247104-4.001088 1.680488-2.702034 1.627973-6.027613.157546-8.625723-.105031-2.234374-1.312881-4.416786-3.466006-5.767802z"/><path d="m306.922104 270.496466c1.435846-3.37413 5.167328-5.211706 8.748732-4.235244 11.773284 3.311327 24.802385 7.516188 39.191954 12.719702 14.441896 5.203515 29.930305 11.300562 46.412903 18.186021 1.517445.630729 2.825588 1.787065 3.662799 3.311327.523258.998654.837212 2.10243.889537 3.153645.052326.052561.104652.105122.104652.157683 1.09884 1.997308 1.360468 4.309981.73256 6.517533-.627909 2.207552-2.093029 3.994617-4.081405 5.045832-20.250049 11.195441-39.610561 22.390881-57.505953 33.270957-17.79074 10.774954-34.534967 21.549909-49.814073 31.904377l-.941863.630729-.052326-.052561c-1.151165.578168-2.459308.893533-3.767451.893533-.36628 0-.784885-.052561-1.151165-.105122-4.656988-.630729-7.901182-4.94071-7.273273-9.618617 2.668611-19.079554 6.017456-37.00277 9.941884-53.296604 1.988377-8.304599 4.133731-16.241272 6.488388-23.810021 2.563959-8.619963 5.337222-16.76688 8.319787-24.44075zm12.466706 16.503534c-3.825779 10.754641-7.28966 22.610977-10.288243 35.254237-2.223088 9.285715-4.239377 19.305892-6.100567 29.745763 10.805241-7.134786 22.127479-14.374496 34.070113-21.666667 12.356233-7.606941 25.332862-15.266343 38.929887-23.083131-9.305949-3.724778-18.146601-7.134786-26.366856-10.125101-10.753541-3.882163-20.938385-7.292171-30.244334-10.125101z"/><path d="m435.287826 538.415838c3.866467-.89072 8.046431-.366767 11.494902 1.729046l65.782186 39.872842c.313497.209581.522495.314371.574745.366767l.340661.234352c3.252541 2.301989 5.328415 5.656629 6.086034 9.353992 0 .104791.052249.209581.052249.314372.470246 1.047907.835993 2.095813 1.044991 3.24851.835993 4.086835.104499 8.330857-2.089982 12.050925l-.261247.366767c0 .104791-.05225.157186-.1045.209581l-1.14949 1.729046-.835993 1.257488v.052395c-.104499.104791-.156748.261977-.261247.366767l-.104499.104791c-.574746.890721-.835993 1.257488-.835993 1.257488l-32.812719 49.304-.574745.943116-13.532634 20.329386-.05225-.052396c-2.560228 3.458092-6.217696 5.920672-10.345411 6.968578-1.462987.366768-2.925975.576349-4.388962.576349-3.291722 0-6.478945-.943116-9.248171-2.776952-23.042052-15.404226-46.084105-30.808451-69.126157-46.160281-.417997-.261976-.731494-.523953-.940492-.681139-3.396221-2.619766-5.486203-6.549416-5.9042-11.003018-.313497-2.829348.156749-5.763486 1.306239-8.435647.417997-2.148209 1.306239-4.296417 2.612478-6.287439.313497-.471558.574745-.838325.783743-1.100302 17.608099-22.63478 35.163949-45.321956 52.772048-68.009131 2.455729-3.196115 6.008698-5.291928 9.718416-6.130253zm4.25457 19.584162h-.05249c-.20996.052647-.419919.210586-.577389.368526-17.269179 22.322148-34.590848 44.644295-51.912517 66.966443 22.25572 14.846334 44.51144 29.692668 66.76716 44.539002.20996.157939.577389.157939.944818.052646.682369-.15794 1.312248-.631759 1.732167-1.263518v-.052646l12.965007-19.531879h.05249l12.650067-19.05806c11.001885-16.552083 13.336636-20.073086 13.524759-20.367907l.008319-.0162-.00976.014734c-.035199.050474-.130181.190775-.232783.342464l-.077564.114677c-.593117.876768-1.006968 1.481719 8.67532-13.09717l-2.257066-1.105578h.367429c-7.453566-4.580252-14.959623-9.107858-22.30821-13.53017-4.304172-2.579682-8.608344-5.159364-12.860026-7.739046z"/><path d="m626.199302 408.762534c-24.932086-.885906-51.487899-.26056-78.253226 2.553496-1.047567-3.752075-2.147512-7.504151-3.299835-11.256227-4.452158-14.851966-9.847126-29.18281-16.132526-42.940421-1.676107-3.699963-6.075886-5.31544-9.794748-3.647851-2.566538 1.19858-4.190266 3.647851-4.295023 6.305571-1.309458 2.292935-1.518972 5.159104-.366648 7.7126 6.599669 14.487181 12.256529 29.912381 16.813444 45.910815-24.460681 3.491515-48.816604 8.859067-71.915448 16.675892-2.933187.990131-4.871185 3.647851-5.02832 6.566132-.104757.156336-.157135.312673-.261892.416897-.995188 2.032375-1.152323 4.32531-.419026 6.461908 1.518971 4.429534 6.337778 6.826693 10.789936 5.315441 21.789385-7.347815 45.883418-12.871704 71.653556-16.311107 4.504537 20.01107 7.437723 41.324944 8.79956 63.316277.157135 2.240823 1.152323 4.325309 2.82843 5.836562 1.57135 1.407028 3.561726 2.136598 5.656859 2.136598h.523784c4.714049-.26056 8.275776-4.273197 8.013884-8.963291-1.414215-22.356118-4.347401-43.982665-8.799559-64.306408 23.51787-2.292935 48.030929-3.022505 72.910636-2.136599 4.71405.156337 8.642424-3.491514 8.799559-8.181609.052379-1.615477-.366648-3.178842-1.099944-4.481646-.157135-3.752076-3.247457-6.826693-7.123453-6.98303z"/></g></g></svg>